<?xml version="1.0" encoding="utf-8"?>
<!-- Generator: Adobe Illustrator 23.0.0, SVG Export Plug-In . SVG Version: 6.00 Build 0)  -->
<svg version="1.1" id="Layer_1" xmlns="http://www.w3.org/2000/svg" xmlns:xlink="http://www.w3.org/1999/xlink" x="0px" y="0px"
	 viewBox="0 0 123 62" style="enable-background:new 0 0 123 62;" xml:space="preserve">
<style type="text/css">
	.st0{fill:#F7F4FC;}
</style>
<g>
	<path class="st0" d="M26,39.3c2.4-1.6,3.8-3.8,3.7-6.8c-0.1-2.4-0.1-4.8,0-7.3c0-1.7-0.5-3.3-1.5-4.6c-0.2-0.2-0.6-0.4-0.3-0.8
		c1.4-2.4,0.7-5,0.9-7.6c0.1-1.5,0.2-3.1-0.1-4.6c-0.7-3.9-3.6-5.7-7.1-6.8c-0.5-0.2-1.2-0.1-1.6-0.5c-0.4,0-0.8,0-1.2,0
		c-2.8,0-5.6,0-8.3,0c-0.6,0-1.1,0-1.7,0C8.5,0.8,8.1,0.7,7.8,0.8c-3.5,1-6.2,2.8-7.2,6.5c0,0.1-0.2,0.1-0.2,0.2c0,0.2,0,0.5,0,0.7
		c0,11,0,22.1,0,33.1c0.1,0,0.2,0,0.3,0c6.4,0,12.9,0,19.3,0C22.1,41.3,24.2,40.6,26,39.3z M11,12.6c0-1,0-2.1,0-3.1
		c0-0.6,0.1-0.8,0.8-0.8c1.8,0,3.6,0,5.5,0c0.6,0,0.8,0.1,0.8,0.7c0,2.2,0,4.4,0,6.5c0,0.6-0.3,0.7-0.8,0.7c-1.8,0-3.6,0-5.5,0
		c-0.6,0-0.8-0.1-0.7-0.7C11.1,14.8,11,13.7,11,12.6z M19.1,32.2c0,0.6-0.1,0.9-0.8,0.9c-2.2,0-4.4,0-6.5,0c-0.6,0-0.8-0.2-0.7-0.7
		c0-1.1,0-2.3,0-3.4c0-1,0-2.1,0-3.1c0-0.6,0.1-0.9,0.8-0.9c2.1,0,4.3,0,6.4,0c0.7,0,0.9,0.2,0.9,0.9C19.1,27.9,19.1,30.1,19.1,32.2
		z"/>
	<path class="st0" d="M120.8,20.8c-2.1-2.6-4.9-3.9-8.2-4c-4.2-0.1-8.4-0.1-12.6,0c-1.3,0-1.5-0.4-1.5-1.5c0.1-1.7,0.1-3.3,0-5
		c-0.1-1.2,0.2-1.6,1.5-1.6c6.1,0.1,12.1,0,18.2,0.1c1,0,1.3-0.2,1.2-1.2c-0.1-2.3-0.1-4.6-0.1-6.9c0-0.1,0-0.2,0-0.2
		c-7.1,0-14.3,0-21.4,0c-0.6,0-1.1,0-1.7,0c-0.3,0.4-0.8,0.4-1.3,0.5C90.4,2.1,88,5.2,88,10.1c0,2.1,0,4.2,0,6.3
		C87.9,19,89,21,91,22.5c2.2,1.7,4.8,2.5,7.5,2.5c4,0,7.9,0,11.9,0c1,0,1.2,0.3,1.1,1.2c-0.1,1.9-0.1,3.7,0,5.6c0,1-0.2,1.3-1.3,1.3
		c-6.6-0.1-13.3,0-19.9,0c-0.5,0-1.1-0.2-1.1,0.8c0.1,2.3,0,4.5,0,6.8c0,0.6,0.2,0.7,0.8,0.7c7.5,0,14.9,0.1,22.4-0.1
		c3.7-0.1,6.9-1.6,8.9-5.1c0.4-0.6,0.6-1.3,0.9-2c0-0.1,0-0.2,0-0.2c0-3.3,0-6.5,0-9.8c0-0.1,0-0.2,0-0.2
		C121.7,23,121.5,21.8,120.8,20.8z"/>
	<path class="st0" d="M60.4,29.6c5.3-6.5,10.6-12.9,15.9-19.4c0.4-0.5,0.9-1.1,1.2-1.8c1-2,0.7-3.6-0.9-4.6c-2-1.3-3.7-1.1-5.2,0.6
		c-4.3,4.9-8.5,9.7-12.8,14.6c-0.9,1.1-0.9,1.1-1.9-0.1c-4.1-4.8-8.3-9.6-12.4-14.5c-0.9-1-2-1.5-3.3-1.6c-2.4,0.1-4.8,1.5-3.2,4.9
		c0.3,0.7,0.8,1.4,1.3,2c4.9,6.3,9.7,12.6,14.6,19c0.4,0.5,0.8,0.9,1.2,1.3C56.8,31.8,58.8,31.6,60.4,29.6z"/>
	<path class="st0" d="M38.4,13.2c-0.1,0-0.2,0.1-0.2,0.1c0.2,7,0.3,14,0.5,20.9c0,0.4,0.1,0.9,0.2,1.3c0.3,1.7,1.7,2.2,2.9,2.2
		c1.3-0.1,2.9-1.8,3-2.9c0-3.9,0.1-7.9,0.1-11.8c0-0.3,0-0.6-0.2-0.9C42.6,19.1,40.5,16.2,38.4,13.2z"/>
	<path class="st0" d="M71.4,23.5c0,3.9,0.1,7.8,0.1,11.7c0,1.5,2.2,3.2,3.7,2.8c1.6-0.4,2.2-1.2,2.3-3.1c0.1-3,0.2-6,0.2-9
		c0-4.1,0-8.1,0-12.1c-2,2.8-4,5.6-6.1,8.5C71.4,22.6,71.4,23,71.4,23.5z"/>
	<path class="st0" d="M42.1,47.1c-0.7-0.6-2.6-0.2-2.9,0.7c-0.7,2-1.4,4.1-2.1,6.4c-0.7-2.1-1.3-4-1.9-5.8c-0.5-1.6-0.9-1.8-2.6-1.6
		c-0.6,0.1-0.8,0.3-0.8,1c-0.1,4-0.2,8.1-0.4,12.1c-0.1,1.1,0.5,1.1,1.3,1.1c0.8,0,1.5,0.1,1.4-1.1c-0.1-2.1,0-4.2,0-6.3
		c0.1,0,0.2,0,0.4,0c0.4,1.2,0.8,2.5,1.1,3.7c0.2,0.7,0.5,1,1.2,1c0.7,0,1.3-0.1,1.5-0.9c0.4-1.3,0.9-2.6,1.3-3.9c0.1,0,0.3,0,0.4,0
		c0,2.2,0.1,4.3,0,6.5c-0.1,1.5,1,1,1.7,1.1c0.8,0.1,1.2-0.1,1.2-1.1c-0.2-4-0.4-8.1-0.5-12.1C42.2,47.7,42.3,47.4,42.1,47.1z"/>
	<path class="st0" d="M56.2,46.9c-0.3,0-0.6,0.1-0.8,0.1c-0.7,0-0.9,0.3-0.9,1c0,3.6,0,7.1,0,10.7c0,2.6,0,2.6,2.6,2.7
		c4.5,0.2,6.8-2,6.9-6.5c0-0.2,0-0.4,0-0.6C64,48.7,61.6,46.5,56.2,46.9z M60.6,56.6c-0.2,0.6-0.6,1-1.1,1.3
		c-1.5,0.8-2.1,0.4-2.1-1.2c0-0.9,0-1.7,0-2.6c0-1.1,0-2.2,0-3.3c0-0.8,0.3-0.9,1-0.9c1.1,0.1,1.9,0.7,2.2,1.7
		C61.2,53.2,61.2,54.9,60.6,56.6z"/>
	<path class="st0" d="M7.8,52.8C9.5,50.2,8,47.2,5,46.9c-1.1-0.1-2.2,0-3.3,0.1c-0.6,0.1-0.8,0.3-0.8,1c0,2.1,0,4.1,0,6.2
		c0,2.1,0,4.1,0,6.2c0,0.5,0.1,0.8,0.7,0.9c1.5,0.2,2.9,0.3,4.4,0c1.5-0.3,2.7-1,3.1-2.6c0.4-1.7,0.4-3.4-1-4.6
		C7.4,53.5,7.5,53.3,7.8,52.8z M4.3,49.5c0.9,0,1.4,0.5,1.4,1.4c0,0.9-0.4,1.4-1.3,1.4c-1.2,0-0.3-1-0.7-1.4
		C4,50.5,3.1,49.5,4.3,49.5z M4.4,58.5c-1.4,0-0.4-1.2-0.8-1.7C4,56.3,3,55.2,4.5,55.2c1.1,0,1.8,0.6,1.8,1.6
		C6.2,57.9,5.5,58.5,4.4,58.5z"/>
	<path class="st0" d="M102,49.9c-0.8-2-2.3-3.1-4.4-3.1c-2.2,0-3.6,1-4.4,3c-1.1,2.8-1.1,5.7-0.1,8.5c0.8,2.1,2.5,3.1,4.6,3.1
		c2.1-0.1,3.6-1.2,4.3-3.3c0.5-1.3,0.6-2.6,0.7-4.2c-0.1-0.6-0.1-1.5-0.3-2.3C102.4,50.9,102.2,50.4,102,49.9z M99.3,57
		c-0.3,0.8-0.8,1.4-1.7,1.3c-0.9,0-1.4-0.5-1.6-1.3c-0.6-1.9-0.6-3.9,0-5.8c0.2-0.8,0.8-1.3,1.7-1.3c0.9,0,1.4,0.6,1.7,1.4
		c0.3,0.9,0.4,1.8,0.4,2.8C99.7,55.1,99.6,56,99.3,57z"/>
	<path class="st0" d="M78.1,48c-0.3-1.2-1-1-1.8-1.1c-0.8,0-1.6-0.1-1.9,1.1c-1,4-2.1,8-3.1,12c-0.1,0.3-0.7,1,0.2,1.1
		c0.8,0.1,2.1,0.6,2.4-0.4c0.3-1.7,0.9-2.2,2.7-2.1c1,0.1,1.4,0.1,1.5,1.1c0.1,1,0.4,1.8,1.5,1.5c1.9,0,1.9,0,1.5-1.6
		C80.1,55.7,79,51.9,78.1,48z M77,55.8c-0.5,0.2-1.1,0.2-1.6,0c-0.4-0.1-0.2-0.5-0.1-0.7c0.3-1.3,0.6-2.6,0.9-3.9
		c0.1,0,0.1,0,0.2,0.1c0.3,1.3,0.5,2.5,0.8,3.8C77.1,55.3,77.4,55.7,77,55.8z"/>
	<path class="st0" d="M17.4,48.2c-0.3-1.2-0.9-1.3-1.8-1.3c-1,0-1.6,0.1-1.9,1.3c-0.9,3.9-2,7.8-3,11.7c-0.1,0.3-0.7,0.9,0.2,1.1
		c1.1,0.3,2.4,0.1,2.5-0.6c0.2-1.4,0.6-2.2,2.4-2c1.1,0.1,1.7,0.2,1.8,1.3c0.1,1,0.6,1.5,1.4,1.3c1.9,0,1.9,0,1.5-1.6
		C19.4,55.8,18.3,52,17.4,48.2z M16.3,55.8c-0.5,0.2-1.1,0.2-1.6,0c-0.4-0.1-0.2-0.4-0.1-0.7c0.3-1.3,0.6-2.6,0.9-3.9
		c0.1,0,0.1,0,0.2,0c0.3,1.4,0.6,2.7,0.8,4.1C16.4,55.4,16.6,55.7,16.3,55.8z"/>
	<path class="st0" d="M50.5,58c-0.4,0-0.7-0.1-1.1,0c-1.1,0.2-1.3-0.3-1.3-1.3c-0.1-1.3,0.4-1.7,1.6-1.5c0.3,0.1,0.7,0,1.1,0
		c0.3,0,0.5,0,0.6-0.4c0.1-0.8,0.3-1.8-0.1-2.5c-0.3-0.5-1.1-0.1-1.7-0.2c-0.3,0-0.6,0-0.8,0c-0.3,0-0.4-0.1-0.5-0.3
		c-0.4-1.1,0.1-1.8,1.2-1.8c0.6,0,1.1-0.1,1.7,0c0.9,0.1,1.3-0.2,1.2-1.2c0-0.4,0-0.7,0-1.1c0-0.7-0.3-0.9-0.9-0.9
		c-1.7,0-3.5,0-5.2,0c-0.7,0-0.9,0.2-0.9,0.9c0,2.1,0,4.1,0,6.2c0,2.1,0,4.1,0,6.2c0,0.5,0,0.8,0.7,0.8c1.9,0,3.8,0,5.7,0
		c0.3,0,0.6,0,0.7-0.4C52.8,58.9,52.3,58,50.5,58z"/>
	<path class="st0" d="M88.7,53.1c-0.7-0.4-1.4-0.7-2.1-1.1c-0.6-0.3-0.9-0.8-0.7-1.5c0.2-0.6,0.7-0.8,1.3-0.8c0.4,0,0.8,0,1.2,0.2
		c1.2,0.7,1.4,0.1,1.7-1c0.3-1.1,0-1.6-1.1-1.8c-0.6-0.1-1.2-0.3-1.8-0.3c-2.2,0-3.6,1-4.1,2.8c-0.6,2.3,0.1,4.3,2,5.2
		c0.6,0.3,1.2,0.5,1.7,0.8c0.6,0.3,0.9,0.8,0.8,1.6c-0.1,0.7-0.7,0.9-1.3,1c-0.6,0.1-1.1,0-1.6-0.2c-1.5-0.4-1.5-0.4-1.8,1.1
		c0,0.2,0,0.3-0.1,0.5c-0.3,0.7,0,1,0.7,1.2c1.3,0.4,2.6,0.6,4,0.3c1.8-0.4,3-1.6,3.3-3.5C90.9,55.6,90.3,54,88.7,53.1z"/>
	<path class="st0" d="M26.5,48.4c-0.3,1.3-0.9,2.5-1.4,4.1c-0.6-1.6-1.2-2.8-1.5-4.1c-0.3-1.4-1.2-1.6-2.4-1.5
		c-1.4,0.1-1.4,0.1-0.9,1.3c0.5,1.3,1,2.7,1.6,3.9c1.2,2.5,1.9,5.1,1.6,7.9c-0.2,1.3,0.8,1.1,1.5,1.1c0.8,0,1.6,0.1,1.4-1.2
		c-0.4-2.7,0.3-5.3,1.5-7.8c0.8-1.6,1.4-3.3,2.1-5.1c-0.5-0.1-0.9-0.1-1.4-0.2C27.6,46.8,26.8,47.1,26.5,48.4z"/>
	<path class="st0" d="M111,47c-1.7,0.1-3.4,0.1-5.1,0c-0.8,0-1,0.3-1,1c0,2,0,4,0,6.1c0,1.8,0,3.6,0,5.4c0,1.8,0.1,1.9,2,1.7
		c0.7,0,1-0.2,1-1c-0.1-0.7,0-1.5,0-2.3c0-2.3,0-2.3,2.3-2.4c0.4,0,0.9,0.2,0.9-0.4c0.1-0.8,0.3-1.7-0.1-2.4
		c-0.3-0.5-1.1-0.1-1.7-0.2c-0.1,0-0.2,0-0.4,0c-0.9,0.2-1.1-0.3-1.1-1.1c-0.1-1.1,0.3-1.4,1.3-1.3c0.6,0.1,1.3,0,1.9,0
		c0.7,0.1,0.9-0.2,0.9-0.9c0-0.4,0-0.9,0-1.3C112,47.3,111.8,47,111,47z"/>
	<path class="st0" d="M120.9,47c-2,0-4,0.1-6.1,0c-1.3-0.1-1.6,0.4-1.5,1.5c0,1.6,0,1.6,1.6,1.6c0.2,0,0.3,0,0.5,0
		c0.7-0.1,0.9,0.2,0.8,0.9c0,1.5,0,3.1,0,4.6c0,1.3,0,2.5,0,3.8c0,1.8,0.1,1.9,1.9,1.8c0.8,0,1-0.4,1-1.2c0-2.7,0-5.3,0-8
		c0-1.9,0-1.9,1.9-1.9c0.7,0,1-0.2,0.9-0.9c0-0.4,0-0.9,0-1.3C122,47.2,121.6,47,120.9,47z"/>
	<path class="st0" d="M69.4,54.1c0-1.8,0-3.6,0-5.3c0-1.8-0.4-2.1-2.2-1.8c-0.5,0.1-0.7,0.3-0.7,0.8c0,4.2,0,8.3,0,12.5
		c0,0.7,0.3,0.9,0.9,0.9c0.4,0,0.8,0,1.2,0c0.7,0,0.9-0.3,0.9-1C69.3,58.1,69.4,56.1,69.4,54.1z"/>
</g>
</svg>
