<?xml version="1.0" encoding="utf-8"?>
<!-- Generator: Adobe Illustrator 23.0.0, SVG Export Plug-In . SVG Version: 6.00 Build 0)  -->
<svg version="1.1" id="Isolation_Mode" xmlns="http://www.w3.org/2000/svg" xmlns:xlink="http://www.w3.org/1999/xlink" x="0px"
	 y="0px" viewBox="0 0 252 252" style="enable-background:new 0 0 252 252;" xml:space="preserve">
<style type="text/css">
	.st0{fill:#800023;}
	.st1{opacity:0.5;fill:#800023;enable-background:new    ;}
	.st2{fill:#FF5E64;}
	.st3{opacity:0.6;fill:#B3123F;enable-background:new    ;}
	.st4{fill:#A1002D;}
	.st5{fill:#5E0019;}
	.st6{opacity:0.4;fill:#5E0019;enable-background:new    ;}
	.st7{fill:#B3123F;}
	.st8{opacity:0.4;fill:#B3123F;enable-background:new    ;}
	.st9{fill:#FEDA79;}
	.st10{fill:#FFFFFF;}
	.st11{enable-background:new    ;}
	.st12{fill:#A88CE1;}
</style>
<g>
	<g>
		<g>
			<g>
				<g>
					<g>
						<path class="st0" d="M249.2,154.8c0,0-3.1,0.9-8.6,5.1c-3,2.3-6.7,5.6-10.9,10.2c-0.2,0.2-0.4,0.5-0.6,0.7
							c-0.2,0.3-0.5,0.6-0.7,0.8c-0.5,0.6-1,1.1-1.5,1.7c-0.3,0.3-0.6,0.7-0.9,1c-0.7,0.8-1.5,1.6-2.3,2.4c-0.2,0.2-0.4,0.4-0.6,0.6
							c-0.5,0.5-1,1-1.5,1.5c-0.3,0.3-0.7,0.7-1.1,1c-0.9,0.8-1.8,1.7-2.8,2.6c-1.3,1.1-2.6,2.3-3.9,3.4c-0.3,0.2-0.5,0.4-0.8,0.6
							c-2.2,1.7-4.5,3.4-6.9,5.1c-0.4,0.3-0.9,0.6-1.4,0.9c-7.3,4.7-15.7,8.7-24.9,10.3c-10.7,2-22.5,0.9-34.9-5.5
							c-2.9-1.5-5.4-3-7.8-4.6c-0.4-0.3-0.8-0.6-1.2-0.8c-3.1-2.1-5.7-4.3-8-6.4c-0.2-0.2-0.4-0.4-0.7-0.6c-0.7-0.7-1.3-1.3-1.9-2
							c-0.7-0.8-1.4-1.6-2-2.3c-0.2-0.2-0.3-0.4-0.5-0.6c-0.9-1.1-1.7-2.2-2.4-3.3c-0.1-0.2-0.3-0.4-0.4-0.6
							c-0.1-0.2-0.3-0.4-0.4-0.6c-0.1-0.2-0.3-0.4-0.4-0.6c-0.1-0.2-0.3-0.5-0.4-0.7s-0.2-0.3-0.3-0.5c-0.4-0.7-0.7-1.4-1.1-2.1
							c-0.1-0.2-0.2-0.4-0.3-0.5c-4.7-10.2-3-18.2-3-18.2l2.4-0.1L249.2,154.8z"/>
						<path class="st1" d="M125.1,166.2c0,0-3.2,4.8,1.2,6.8c4.3,2,41.8,13,84.1,1.9c-2.5,0.8-48,15.7-70.9,11
							c-18.7-3.8,12.5,14.8,40.4,17c-10.7,2-22.5,0.9-34.9-5.5c-2.9-1.5-5.4-3-7.8-4.6c-0.4-0.3-0.8-0.6-1.2-0.8
							c-3.1-2.1-5.7-4.3-8-6.4c-0.2-0.2-0.4-0.4-0.7-0.6c-0.7-0.7-1.3-1.3-1.9-2c-0.7-0.8-1.4-1.6-2-2.3c-0.2-0.2-0.3-0.4-0.5-0.6
							c-0.9-1.1-1.7-2.2-2.4-3.3c-0.1-0.2-0.3-0.4-0.4-0.6c-0.1-0.2-0.3-0.4-0.4-0.6c-0.1-0.2-0.3-0.4-0.4-0.6
							c-0.1-0.2-0.3-0.5-0.4-0.7s-0.2-0.3-0.3-0.5c-0.4-0.7-0.7-1.4-1.1-2.1c-0.1-0.2-0.2-0.4-0.3-0.5c-4.7-10.2-3-18.2-3-18.2
							l2.4-0.1l132.5,2.1c0,0-3.1,0.9-8.6,5.1C224.4,165.7,177.4,179.7,125.1,166.2z"/>
						<g>
							<g>
								<g>
									<g>
										<path class="st2" d="M205.5,191.3c-0.1,0-0.1,0-0.2,0c-0.4,0.1-0.7,0.6-0.6,1v0.1c0.5-0.3,0.9-0.6,1.4-0.9
											C205.9,191.4,205.7,191.3,205.5,191.3z M136.9,191.2c-0.1,0-0.1,0-0.2,0c-0.4,0-0.7,0.3-0.8,0.6c0,0,0,0,0,0.1
											c0.4,0.3,0.8,0.6,1.2,0.8c0.2-0.1,0.3-0.3,0.4-0.5c0-0.1,0-0.1,0-0.2C137.6,191.6,137.3,191.3,136.9,191.2z M140.9,192
											c-0.1,0-0.1,0-0.2,0c-0.4,0-0.7,0.3-0.8,0.7c-0.1,0.5,0.2,0.9,0.7,1c0.1,0,0.1,0,0.2,0c0.4,0,0.7-0.3,0.8-0.7
											c0-0.1,0-0.1,0-0.2C141.6,192.5,141.3,192.1,140.9,192z M202.3,192.9c-0.1-0.4-0.4-0.7-0.8-0.7c-0.1,0-0.1,0-0.2,0
											c-0.5,0.1-0.7,0.5-0.6,1c0.1,0.4,0.4,0.7,0.8,0.7c0.1,0,0.1,0,0.2,0c0.4-0.1,0.7-0.4,0.7-0.8
											C202.4,193,202.4,192.9,202.3,192.9z M144.9,192.8h-0.1c-0.4,0-0.7,0.3-0.8,0.7c-0.1,0.5,0.2,0.9,0.7,1c0.1,0,0.1,0,0.1,0
											c0.4,0,0.7-0.3,0.8-0.7c0-0.1,0-0.1,0-0.1C145.6,193.2,145.3,192.8,144.9,192.8z M198.3,193.7c-0.1-0.4-0.4-0.7-0.8-0.7
											c-0.1,0-0.1,0-0.1,0c-0.5,0.1-0.8,0.5-0.7,1c0.1,0.4,0.4,0.7,0.8,0.7c0.1,0,0.1,0,0.1,0c0.4-0.1,0.7-0.4,0.7-0.8
											C198.4,193.8,198.4,193.7,198.3,193.7z M148.9,193.4h-0.1c-0.4,0-0.8,0.3-0.8,0.7c-0.1,0.5,0.2,0.9,0.7,0.9h0.1
											c0.4,0,0.8-0.3,0.8-0.7v-0.1C149.6,193.8,149.3,193.5,148.9,193.4z M194.3,194.4c-0.1-0.4-0.4-0.7-0.8-0.7h-0.1
											c-0.5,0.1-0.8,0.5-0.7,0.9s0.4,0.7,0.8,0.7h0.1C194,195.2,194.3,194.9,194.3,194.4C194.3,194.5,194.3,194.4,194.3,194.4z
											 M152.9,194h-0.1c-0.4,0-0.8,0.3-0.8,0.7c-0.1,0.5,0.3,0.9,0.7,0.9h0.1c0.4,0,0.8-0.3,0.8-0.7v-0.1
											C153.6,194.4,153.3,194,152.9,194z M190.3,194.9c-0.1-0.4-0.4-0.7-0.8-0.7h-0.1c-0.5,0.1-0.8,0.5-0.7,0.9s0.4,0.7,0.8,0.7
											h0.1C190,195.8,190.3,195.5,190.3,194.9C190.3,195,190.3,195,190.3,194.9z M157,194.4C156.9,194.4,156.9,194.4,157,194.4
											c-0.5,0-0.9,0.3-0.9,0.7c0,0.5,0.3,0.9,0.7,0.9h0.1c0.4,0,0.8-0.3,0.8-0.8v-0.1C157.7,194.8,157.4,194.4,157,194.4z
											 M186.2,195.4c0-0.4-0.4-0.8-0.8-0.8h-0.1c-0.5,0-0.8,0.4-0.8,0.9c0,0.4,0.4,0.8,0.8,0.8h0.1
											C185.9,196.2,186.2,195.9,186.2,195.4L186.2,195.4z M161,194.8L161,194.8C161,194.8,161,194.7,161,194.8
											c-0.5,0-0.9,0.3-0.9,0.8s0.3,0.9,0.8,0.9h0.1c0.4,0,0.8-0.3,0.8-0.8c0,0,0,0,0-0.1C161.8,195.2,161.4,194.8,161,194.8z
											 M181.3,194.9L181.3,194.9c-0.5,0-0.9,0.4-0.8,0.9c0,0.4,0.4,0.8,0.8,0.8l0,0c0.4,0,0.8-0.4,0.8-0.8v-0.1
											C182.1,195.3,181.8,194.9,181.3,194.9z M165,195L165,195c-0.5,0-0.8,0.3-0.9,0.8c0,0.5,0.3,0.9,0.8,0.9l0,0
											c0.4,0,0.8-0.3,0.8-0.8l0,0C165.8,195.4,165.5,195,165,195z M177.3,195.1L177.3,195.1c-0.5,0-0.8,0.4-0.8,0.9
											c0,0.2,0.1,0.4,0.3,0.6c0.1,0.1,0.4,0.2,0.6,0.2l0,0c0.5,0,0.8-0.4,0.8-0.8l0,0C178.1,195.5,177.7,195.1,177.3,195.1z
											 M169.1,195.1L169.1,195.1c-0.5,0-0.8,0.4-0.8,0.8c0,0.5,0.4,0.8,0.8,0.9l0,0c0.2,0,0.4-0.1,0.6-0.2
											c0.1-0.1,0.2-0.3,0.2-0.6l0,0C169.9,195.5,169.6,195.1,169.1,195.1z M173.8,195.4c-0.1-0.1-0.4-0.2-0.6-0.2
											c-0.5,0-0.8,0.4-0.8,0.8c0,0.2,0.1,0.4,0.2,0.6c0.1,0.1,0.4,0.2,0.6,0.2l0,0c0.2,0,0.4-0.1,0.6-0.2
											c0.1-0.1,0.2-0.4,0.2-0.6C174,195.8,173.9,195.6,173.8,195.4z"/>
									</g>
								</g>
								<g>
									<path class="st2" d="M168.5,173c0-0.5,0.4-0.8,0.8-0.8l0,0c0.5,0,0.8,0.4,0.8,0.8l0,0c0,0.5-0.4,0.8-0.8,0.8l0,0l0,0l0,0
										C168.9,173.8,168.5,173.4,168.5,173z M165.2,173.8L165.2,173.8c-0.5,0-0.8-0.4-0.8-0.8l0,0c0-0.5,0.4-0.8,0.8-0.8l0,0
										c0.5,0,0.8,0.4,0.8,0.8l0,0C166,173.4,165.6,173.8,165.2,173.8L165.2,173.8L165.2,173.8z M172.7,172.9
										c0-0.5,0.3-0.8,0.8-0.9l0,0c0.5,0,0.8,0.3,0.9,0.8l0,0c0,0.5-0.3,0.8-0.8,0.9l0,0l0,0l0,0
										C173.1,173.7,172.7,173.3,172.7,172.9z M161,173.6L161,173.6c-0.5,0-0.8-0.4-0.8-0.9l0,0c0-0.5,0.4-0.8,0.9-0.8l0,0
										c0.5,0,0.8,0.4,0.8,0.9l0,0C161.8,173.3,161.5,173.6,161,173.6L161,173.6L161,173.6z M176.8,172.6c0-0.5,0.3-0.9,0.8-0.9
										l0,0c0.5,0,0.9,0.3,0.9,0.8l0,0c0,0.5-0.3,0.9-0.8,0.9l0,0c0,0,0,0-0.1,0l0,0C177.2,173.4,176.9,173.1,176.8,172.6z
										 M156.8,173.4c-0.5,0-0.8-0.4-0.8-0.9l0,0c0-0.5,0.4-0.8,0.9-0.8l0,0c0.5,0,0.8,0.4,0.8,0.9l0,0
										C157.7,173,157.3,173.4,156.8,173.4L156.8,173.4L156.8,173.4z M181,172.2c-0.1-0.5,0.3-0.9,0.7-0.9l0,0
										c0.5-0.1,0.9,0.3,0.9,0.7l0,0c0.1,0.5-0.3,0.9-0.7,0.9l0,0h-0.1l0,0C181.4,173,181,172.7,181,172.2z M152.6,172.9
										c-0.5-0.1-0.8-0.5-0.7-0.9l0,0c0.1-0.5,0.5-0.8,0.9-0.7l0,0c0.5,0.1,0.8,0.5,0.7,0.9l0,0
										C153.5,172.6,153.1,173,152.6,172.9L152.6,172.9C152.7,173,152.7,172.9,152.6,172.9z M148.5,172.4
										c-0.5-0.1-0.8-0.5-0.7-0.9l0,0c0.1-0.5,0.5-0.8,0.9-0.7l0,0c0.5,0.1,0.8,0.5,0.7,0.9l0,0
										C149.3,172.1,149,172.4,148.5,172.4L148.5,172.4C148.6,172.4,148.5,172.4,148.5,172.4z M185.1,171.7
										c-0.1-0.5,0.2-0.9,0.7-1l0,0c0.5-0.1,0.9,0.2,1,0.7l0,0c0.1,0.5-0.2,0.9-0.7,0.9l0,0H186l0,0
										C185.5,172.4,185.2,172.1,185.1,171.7z M144.3,171.8c-0.5-0.1-0.8-0.5-0.7-1l0,0c0.1-0.4,0.5-0.8,1-0.7l0,0l0,0l0,0
										c0.4,0.1,0.8,0.5,0.7,1l0,0c-0.1,0.4-0.4,0.7-0.8,0.7l0,0C144.4,171.8,144.4,171.8,144.3,171.8z M189.2,171
										c-0.1-0.5,0.2-0.9,0.7-1l0,0c0.4-0.1,0.9,0.2,1,0.7l0,0c0.1,0.4-0.2,0.9-0.7,1l0,0c-0.1,0-0.1,0-0.2,0l0,0
										C189.6,171.7,189.3,171.4,189.2,171z M140.2,171c-0.4-0.1-0.7-0.5-0.6-1l0,0c0.1-0.4,0.5-0.7,1-0.6l0,0
										c0.4,0.1,0.7,0.5,0.6,1l0,0c-0.1,0.4-0.4,0.7-0.8,0.7l0,0C140.3,171,140.3,171,140.2,171z M193.3,170.2
										c-0.1-0.4,0.2-0.9,0.6-1l0,0l0,0l0,0c0.4-0.1,0.9,0.2,1,0.6l0,0c0.1,0.4-0.2,0.9-0.6,1l0,0c-0.1,0-0.1,0-0.2,0l0,0
										C193.7,170.8,193.4,170.6,193.3,170.2z M136.1,170.1L136.1,170.1c-0.4-0.1-0.7-0.6-0.6-1l0,0c0.1-0.4,0.5-0.7,1-0.6l0,0
										c0.4,0.1,0.7,0.6,0.6,1l0,0c-0.1,0.4-0.4,0.6-0.8,0.6l0,0C136.3,170.1,136.2,170.1,136.1,170.1z M197.3,169.3
										c-0.1-0.4,0.2-0.9,0.6-1l0,0c0.4-0.1,0.9,0.2,1,0.6l0,0c0.1,0.4-0.2,0.9-0.6,1l0,0c-0.1,0-0.1,0-0.2,0l0,0
										C197.8,169.9,197.4,169.7,197.3,169.3z M132.1,169.1c-0.4-0.1-0.7-0.6-0.6-1l0,0c0.1-0.4,0.6-0.7,1-0.6l0,0
										c0.4,0.1,0.7,0.6,0.6,1l0,0c-0.1,0.4-0.4,0.6-0.8,0.6l0,0C132.2,169.1,132.1,169.1,132.1,169.1z M201.4,168.4
										c-0.1-0.4,0.2-0.9,0.6-1l0,0c0.4-0.1,0.9,0.2,1,0.6l0,0c0.1,0.4-0.2,0.9-0.6,1l0,0c-0.1,0-0.1,0-0.2,0l0,0
										C201.8,169,201.5,168.8,201.4,168.4z M205.5,167.5c-0.1-0.4,0.2-0.9,0.6-1l0,0c0.4-0.1,0.9,0.2,1,0.6l0,0
										c0.1,0.4-0.2,0.9-0.6,1l0,0c-0.1,0-0.1,0-0.2,0l0,0C205.9,168.2,205.6,167.9,205.5,167.5z M128,168c-0.4-0.1-0.7-0.6-0.6-1
										l0,0c0.1-0.4,0.6-0.7,1-0.6l0,0l0,0l0,0c0.4,0.1,0.7,0.6,0.6,1l0,0c-0.1,0.4-0.4,0.6-0.8,0.6l0,0
										C128.2,168,128.1,168,128,168z M209.6,166.7c-0.1-0.4,0.2-0.9,0.7-1l0,0c0.4-0.1,0.9,0.2,1,0.7l0,0c0.1,0.5-0.2,0.9-0.7,1
										l0,0c-0.1,0-0.1,0-0.2,0l0,0C210,167.4,209.6,167.1,209.6,166.7z M124,166.7L124,166.7c-0.4-0.1-0.7-0.6-0.5-1l0,0
										c0.1-0.4,0.6-0.7,1-0.5l0,0l0,0l0,0c0.4,0.1,0.7,0.6,0.5,1l0,0c-0.1,0.4-0.4,0.6-0.8,0.6l0,0
										C124.2,166.8,124.1,166.8,124,166.7z M213.7,165.9c-0.1-0.4,0.2-0.9,0.7-1l0,0c0.4-0.1,0.9,0.2,1,0.7l0,0
										c0.1,0.5-0.2,0.9-0.7,1l0,0c-0.1,0-0.1,0-0.2,0l0,0C214.1,166.6,213.7,166.3,213.7,165.9z M217.7,165.1
										c-0.1-0.5,0.2-0.9,0.7-1l0,0c0.5-0.1,0.9,0.2,1,0.7l0,0c0.1,0.5-0.2,0.9-0.7,1l0,0c-0.1,0-0.1,0-0.1,0l0,0
										C218.2,165.8,217.8,165.5,217.7,165.1z M120.1,165.4c-0.4-0.2-0.7-0.6-0.5-1.1l0,0c0.2-0.4,0.6-0.7,1.1-0.5l0,0l0,0l0,0
										c0.4,0.2,0.7,0.6,0.5,1.1l0,0c-0.1,0.3-0.4,0.5-0.8,0.5l0,0C120.2,165.4,120.1,165.4,120.1,165.4z M221.8,164.4
										c-0.1-0.5,0.2-0.9,0.7-1l0,0c0.5-0.1,0.9,0.2,1,0.7l0,0c0.1,0.5-0.2,0.9-0.7,1l0,0h-0.1l0,0
										C222.3,165.1,221.9,164.8,221.8,164.4z M225.9,163.7c-0.1-0.5,0.2-0.9,0.7-0.9l0,0c0.5-0.1,0.9,0.2,0.9,0.7l0,0
										c0.1,0.5-0.2,0.9-0.7,1l0,0h-0.1l0,0C226.4,164.4,226,164.1,225.9,163.7z M116.1,163.9c-0.4-0.2-0.6-0.7-0.5-1.1l0,0
										c0.2-0.4,0.7-0.6,1.1-0.5l0,0c0.4,0.2,0.6,0.7,0.5,1.1l0,0c-0.1,0.3-0.4,0.5-0.8,0.5l0,0
										C116.3,163.9,116.2,163.9,116.1,163.9z M230.1,163.1c-0.1-0.5,0.3-0.9,0.7-0.9l0,0l0,0l0,0c0.5-0.1,0.9,0.3,0.9,0.7l0,0
										c0.1,0.5-0.3,0.9-0.7,0.9l0,0h-0.1l0,0C230.5,163.8,230.1,163.5,230.1,163.1z M234.2,162.6c-0.1-0.5,0.3-0.9,0.7-0.9l0,0
										c0.5-0.1,0.9,0.3,0.9,0.7l0,0c0,0.5-0.3,0.9-0.7,0.9l0,0H235l0,0C234.6,163.3,234.2,163,234.2,162.6z"/>
								</g>
							</g>
						</g>
						<g>
							<g>
								<path class="st2" d="M229.7,170c-0.2,0.2-0.4,0.5-0.6,0.7c-20.8,8.3-40.4,10.9-56.8,10.9c-8.7,0-16.5-0.7-23-1.7
									c-15.4-2.3-26.7-6.4-31.7-8.3c-0.1-0.2-0.2-0.4-0.3-0.6c4.7,1.9,16.2,6.1,32,8.5C168.4,182.3,197.8,183,229.7,170z"/>
							</g>
						</g>
						<g>
							<g>
								<path class="st2" d="M213.8,185.8c-0.3,0.2-0.5,0.4-0.8,0.6c-14.8,4.1-28.6,5.4-40.7,5.4c-8.7,0-16.5-0.7-23-1.7
									c-8.5-1.3-15.7-3.1-21.3-4.7c-0.2-0.2-0.4-0.4-0.7-0.6c5.7,1.8,13.2,3.7,22.1,5C165.1,192.2,188.1,193,213.8,185.8z"/>
							</g>
						</g>
						<path class="st2" d="M226.8,173.3c-2.5,2.7-5.5,5.9-9.1,9.1c-1.2-0.3-2.3-0.9-3.2-1.7c-0.6,2.4-2.5,4.3-5,4.9
							c-2.5,0.6-5.1-0.3-6.7-2.1c-0.8,2.3-2.8,4.1-5.4,4.5c-2.6,0.4-5.1-0.7-6.5-2.6c-1,2.2-3.1,3.9-5.7,4.1c-2.6,0.2-5-1.1-6.3-3.1
							c-1.2,2.2-3.4,3.6-6,3.6l0,0c-2.6,0-4.9-1.5-6-3.6c-1.3,2.1-3.7,3.3-6.3,3.2c-2.6-0.2-4.8-1.8-5.8-4.1c-1.5,2-3.9,3.1-6.5,2.7
							s-4.6-2.2-5.4-4.5c-1.6,1.8-4.2,2.8-6.7,2.2c-2.6-0.6-4.5-2.5-5.1-4.9c-1.4,1.4-3.4,2.1-5.5,1.9c-2.9-3.1-5.1-6.2-6.7-9.2
							c5.4,2.1,16.2,5.8,30.6,7.9c6.6,1,14.4,1.7,23,1.7C188.1,183.3,206.9,180.9,226.8,173.3z"/>
						<path class="st3" d="M221.4,167.7c1.1-0.1,2.6,0.2,2.7,1.3c0.1,1-1.1,1.6-2.1,1.8c-6.2,1.5-12.6,3-19,3.7
							c-2.3,0.2-4.4-1.4-1.3-2.5c3-1.1,6-1.9,9.1-2.6C214.3,168.5,217.8,168,221.4,167.7z"/>
					</g>
					<g>
						<g>
							<path class="st4" d="M249.2,154.8c0,0-41.4-22.1-92.6-16.7c-51.2,5.4-46,17.1-36,21.4c10,4.4,45.4,15.2,93.7,2.7L249.2,154.8
								z"/>
							<path class="st4" d="M156.5,138.1c-51.2,5.4-46,17.1-36,21.4c10,4.4,45.4,15.2,93.7,2.7l35-7.5
								C249.2,154.8,207.8,132.7,156.5,138.1z M213,161.9c-46.6,12-80.7,1.6-90.3-2.6c-9.6-4.2-14.7-15.4,34.7-20.7
								c49.4-5.2,89.3,16.1,89.3,16.1L213,161.9z"/>
						</g>
						<g>
							<g>
								<path class="st5" d="M238.1,154.5l-13,2.8l-16.2,3.5c-41.5,9.1-70,1.4-78.4-2.3c-1-0.4-1.9-0.9-2.7-1.5
									c-3.7-2.7-4.7-6.7,3.8-10.4c5.3-2.3,14.5-4.4,29-6c25.9-2.7,48.8,2.9,62.8,7.8C232.7,151.6,238.1,154.5,238.1,154.5z"/>
								<path class="st6" d="M238.1,154.5l-13,2.8l-16.2,3.5c-41.5,9.1-70,1.4-78.4-2.3c-1-0.4-1.9-0.9-2.7-1.5
									c-3.7-2.7-4.7-6.7,3.8-10.4c-0.8,2.7,1.8,5.7,4.9,4.7c12.6-3.8,45.3-11.2,81.3,2c1.3,0.5,2.8,0.3,3.9-0.7
									c1-0.8,1.9-2.2,1.8-4.3C232.7,151.6,238.1,154.5,238.1,154.5z"/>
							</g>
							<g>
								<path class="st7" d="M225.1,157.2l-16.2,3.5c-1.5,0.3-2.9,0.6-4.4,0.9c-2.2,0.4-4.4,0.8-6.5,1.2
									c-11.4,1.8-21.7,2.4-30.6,2.2c-8.9-0.2-16.4-1.1-22.4-2.3c-6.8-1.3-11.8-3-14.5-4.2c-1-0.4-1.9-0.9-2.7-1.5
									c4.2-3.1,13.9-6.1,32.9-8.1c9.7-1,19-0.9,27.6,0s16.5,2.4,23.4,4.2C216.7,154.4,221.3,155.9,225.1,157.2z"/>
								<path class="st3" d="M225.1,157.2l-4,0.9c-2.9-0.9-6-1.9-9.5-2.8c-6.8-1.8-14.7-3.4-23.4-4.2c-8.6-0.9-17.9-1-27.6,0
									c-16.5,1.8-26.1,4.3-31,6.9c-0.7-0.3-1.3-0.7-1.9-1.1c4.2-3.1,13.9-6.1,32.9-8.1c9.7-1,19-0.9,27.6,0s16.5,2.4,23.4,4.2
									C216.7,154.4,221.3,155.9,225.1,157.2z"/>
								<path class="st3" d="M211.6,153.1c-0.5,1-1.4,1.9-2.4,2.3c-1.8,0.8-3.7,0.8-5.6,1.1c-1.9,0.3-3.9,1.1-4.7,2.8
									c-0.5,1.1-0.5,2.3-0.8,3.5c-11.4,1.8-21.7,2.4-30.6,2.2c0.7-0.7,1.6-1.3,2.4-1.8c4.2-2.4,8.8-3.8,13.5-4.4
									c1-0.1,2.1-0.2,2.9-0.8c0.8-0.6,1.2-2,0.4-2.7c-0.5-0.4-1.2-0.4-1.8-0.5s-1.4-0.3-1.5-0.9c-0.2-0.8,0.6-1.4,1.4-1.5
									c0.8-0.1,1.6,0.1,2.3-0.2c1.7-0.6,1.7-2.1,1.1-3.3C196.9,149.7,204.7,151.3,211.6,153.1z"/>
								<path class="st3" d="M145.8,161.3c-1.5,0-3.1-0.2-4.6-0.6c-0.8-0.2-1.5-0.4-2.2-0.8c-0.7-0.3-1.5-0.8-2-1.7
									c-0.2-0.4-0.3-1-0.1-1.5s0.4-0.8,0.7-1.2c0.7-0.7,1.4-1,2.2-1.4c1.5-0.6,3-1,4.5-1.4c3-0.6,6.1-1,9.1-1.3
									c3.1-0.2,6.1-0.3,9.2-0.1c-3,0.6-6,1.1-9,1.5c-3,0.5-6,1-8.8,1.6c-1.4,0.3-2.9,0.7-4.2,1.2c-0.6,0.2-1.3,0.5-1.6,0.9
									c-0.2,0.1-0.3,0.4-0.4,0.6c-0.1,0.2-0.1,0.3,0,0.5c0.1,0.4,0.6,0.8,1.2,1.2c0.6,0.4,1.2,0.7,1.9,0.9
									C142.9,160.4,144.3,160.8,145.8,161.3z"/>
								<path class="st8" d="M204.5,161.6c-2.2,0.4-4.4,0.8-6.5,1.2c-2,0.3-4,0.6-5.9,0.8c-4.7-0.9-10.3-1.4-16.3-1.4
									c-7.4,0-14.1,0.8-19.3,2.1c-4.3-0.4-8.1-1-11.5-1.6c5.9-3.2,17.5-5.4,30.8-5.4C187.7,157.2,198.2,158.9,204.5,161.6z"/>
							</g>
						</g>
					</g>
				</g>
				<g>
					<path class="st9" d="M236.9,141.1c-0.6-4.8,0.7-9.7,1.7-14.4c0.9-4,1.7-8.1,1.2-12.1c-0.1-1,0.9-1.6,1.7-1.1
						c5.9,3.8,10.1,10.2,11.3,17.2c1.1,6.5-0.5,14.1-4.6,19.2C243.2,156.2,237.5,145.7,236.9,141.1z"/>
					<path class="st9" d="M246.9,147.7c0.1-0.1,0.2-0.3,0.2-0.4c2.5-7.7,2.1-16.3-1-23.8c-0.2-0.5-0.6-1.1-1.1-1.1
						c-0.8-0.1-1.2,1.1-1.1,1.9c0,2.2,0.3,4.5-0.3,6.6c-0.4,1.4-1.2,2.7-2.3,3.5c-1.3,0.9-2.2,2.3-2.1,3.9c0.5,6.1,3.2,9.4,4.7,10.9
						c0.6,0.5,1.5,0.6,2,0l0,0L246.9,147.7z"/>
					<path class="st9" d="M244.6,117.2c4.5,4.3,13.6,15.4,4.1,27.6c-0.3,0.4-1.1,0.2-1-0.4c0.4-3.2-0.4-6.6-1.8-9.6
						c-0.2,1.4-0.5,2.9-1.8,3.8c-0.6,0.4-1.4,0.5-2,0.1c-1-0.6-0.9-1.7-0.8-2.6c0.3-3.4,0.7-6.8,1-10.3c0.6,1.4,2.9,1.4,3.5,0
						c0.3-0.7,0.1-1.6-0.1-2.3c-0.5-1.8-1.1-3.8-1.9-5.7C243.4,117.3,244.1,116.8,244.6,117.2z"/>
					<g>
						<path class="st9" d="M241.6,120.3c0.3,2.6,0,5.2-0.4,7.7c-0.2,1.3-0.6,2.5-1,3.7s-0.9,2.4-1.5,3.6c-0.1,0.2-0.4,0.3-0.7,0.2
							c-0.2-0.1-0.3-0.3-0.3-0.6l0,0l0.8-3.7c0.3-1.2,0.5-2.4,0.7-3.6c0.5-2.4,0.9-4.9,1.3-7.4l0,0c0.1-0.3,0.3-0.5,0.6-0.4
							C241.4,119.9,241.6,120,241.6,120.3z"/>
					</g>
				</g>
			</g>
			<path class="st10" d="M182.2,167.7l16.8-3c5.6-1,11.2-2,16.8-3.1c5.6-1,11.2-2.1,16.8-3.2l16.8-3.3c-2.8,0.7-5.5,1.4-8.3,2.1
				l-8.3,1.9c-5.6,1.3-11.2,2.3-16.8,3.4c-5.6,1-11.2,2-16.9,2.9C193.5,166.3,187.9,167.1,182.2,167.7z"/>
		</g>
		<g>
			<g>
				<g>
					<g>
						<path class="st0" d="M136.9,139.3c0,0-3.1,0.9-8.6,5.1c-3,2.3-6.7,5.6-10.9,10.2c-0.2,0.2-0.4,0.5-0.6,0.7
							c-0.2,0.3-0.5,0.6-0.7,0.8c-0.5,0.6-1,1.1-1.5,1.7c-0.3,0.3-0.6,0.7-0.9,1c-0.7,0.8-1.5,1.6-2.3,2.4c-0.2,0.2-0.4,0.4-0.6,0.6
							c-0.5,0.5-1,1-1.5,1.5c-0.3,0.3-0.7,0.7-1.1,1c-0.9,0.8-1.8,1.7-2.8,2.6c-1.3,1.1-2.6,2.3-3.9,3.4c-0.3,0.2-0.5,0.4-0.8,0.6
							c-2.2,1.7-4.5,3.4-6.9,5.1c-0.5,0.3-0.9,0.6-1.4,0.9c-7.3,4.7-15.7,8.7-24.9,10.3c-10.7,2-22.5,0.9-34.9-5.5
							c-2.9-1.5-5.4-3-7.8-4.6c-0.4-0.3-0.8-0.6-1.2-0.8c-3.1-2.1-5.7-4.3-8-6.4c-0.2-0.2-0.4-0.4-0.7-0.6c-0.7-0.7-1.3-1.3-1.9-2
							c-0.7-0.8-1.4-1.6-2-2.3c-0.2-0.2-0.3-0.4-0.5-0.6c-0.9-1.1-1.7-2.2-2.4-3.3c-0.1-0.2-0.3-0.4-0.4-0.6
							c-0.1-0.2-0.3-0.4-0.4-0.6c-0.1-0.2-0.3-0.4-0.4-0.6c-0.1-0.2-0.3-0.5-0.4-0.7s-0.2-0.3-0.3-0.5c-0.4-0.7-0.7-1.4-1.1-2.1
							c-0.1-0.2-0.2-0.4-0.3-0.5c-4.7-10.2-3-18.2-3-18.2l2.4-0.1L136.9,139.3z"/>
						<path class="st1" d="M12.8,150.7c0,0-3.2,4.8,1.2,6.8c4.3,2,41.8,13,84.1,1.9c-2.5,0.8-48,15.7-70.9,11
							c-18.7-3.8,12.5,14.8,40.4,17c-10.7,2-22.5,0.9-34.9-5.5c-2.9-1.5-5.4-3-7.8-4.6c-0.4-0.3-0.8-0.6-1.2-0.8
							c-3.1-2.1-5.7-4.3-8-6.4c-0.2-0.2-0.4-0.4-0.7-0.6c-0.7-0.7-1.3-1.3-1.9-2c-0.7-0.8-1.4-1.6-2-2.3c-0.2-0.2-0.3-0.4-0.5-0.6
							c-0.9-1.1-1.7-2.2-2.4-3.3c-0.1-0.2-0.3-0.4-0.4-0.6c-0.1-0.2-0.3-0.4-0.4-0.6c-0.1-0.2-0.3-0.4-0.4-0.6
							c-0.1-0.2-0.3-0.5-0.4-0.7s-0.2-0.3-0.3-0.5c-0.4-0.7-0.7-1.4-1.1-2.1c-0.1-0.2-0.2-0.4-0.3-0.5c-4.7-10.2-3-18.2-3-18.2
							l2.4-0.1l132.5,2.1c0,0-3.1,0.9-8.6,5.1C112.2,150.2,65.2,164.2,12.8,150.7z"/>
						<g>
							<g>
								<g>
									<g>
										<path class="st2" d="M93.3,175.8c-0.1,0-0.1,0-0.2,0c-0.4,0.1-0.7,0.6-0.6,1v0.1c0.5-0.3,0.9-0.6,1.4-0.9
											C93.7,175.9,93.5,175.8,93.3,175.8z M24.7,175.7c-0.1,0-0.1,0-0.2,0c-0.4,0-0.7,0.3-0.8,0.6c0,0,0,0,0,0.1
											c0.4,0.3,0.8,0.6,1.2,0.8c0.2-0.1,0.3-0.3,0.4-0.5c0-0.1,0-0.1,0-0.2C25.3,176.1,25.1,175.8,24.7,175.7z M28.6,176.5
											c-0.1,0-0.1,0-0.2,0c-0.4,0-0.7,0.3-0.8,0.7c-0.1,0.5,0.2,0.9,0.7,1c0.1,0,0.1,0,0.2,0c0.4,0,0.7-0.3,0.8-0.7
											c0-0.1,0-0.1,0-0.2C29.3,177,29,176.6,28.6,176.5z M90.1,177.4c-0.1-0.4-0.4-0.7-0.8-0.7c-0.1,0-0.1,0-0.2,0
											c-0.5,0.1-0.7,0.5-0.6,1c0.1,0.4,0.4,0.7,0.8,0.7c0.1,0,0.1,0,0.2,0c0.4-0.1,0.7-0.4,0.7-0.8
											C90.1,177.5,90.1,177.4,90.1,177.4z M32.6,177.3L32.6,177.3c-0.5,0-0.8,0.3-0.9,0.7c-0.1,0.5,0.2,0.9,0.7,1h0.1
											c0.4,0,0.7-0.3,0.8-0.7c0-0.1,0-0.1,0-0.1C33.3,177.7,33,177.3,32.6,177.3z M86.1,178.2c-0.1-0.4-0.4-0.7-0.8-0.7
											c-0.1,0-0.1,0-0.1,0c-0.5,0.1-0.8,0.5-0.7,1c0.1,0.4,0.4,0.7,0.8,0.7c0.1,0,0.1,0,0.1,0c0.4-0.1,0.7-0.4,0.7-0.8
											C86.1,178.3,86.1,178.2,86.1,178.2z M36.6,177.9L36.6,177.9c-0.5,0-0.9,0.3-0.9,0.7c-0.1,0.5,0.2,0.9,0.7,0.9h0.1
											c0.4,0,0.8-0.3,0.8-0.7v-0.1C37.3,178.3,37.1,178,36.6,177.9z M82.1,178.9c-0.1-0.4-0.4-0.7-0.8-0.7h-0.1
											c-0.5,0.1-0.8,0.5-0.7,0.9c0.1,0.4,0.4,0.7,0.8,0.7h0.1C81.8,179.7,82.1,179.4,82.1,178.9C82.1,179,82.1,178.9,82.1,178.9
											z M40.7,178.5L40.7,178.5c-0.5,0-0.9,0.3-0.9,0.7c-0.1,0.5,0.3,0.9,0.7,0.9h0.1c0.4,0,0.8-0.3,0.8-0.7v-0.1
											C41.4,178.9,41.1,178.5,40.7,178.5z M78,179.4c-0.1-0.4-0.4-0.7-0.8-0.7h-0.1c-0.5,0.1-0.8,0.5-0.7,0.9
											c0.1,0.4,0.4,0.7,0.8,0.7h0.1C77.7,180.3,78,180,78,179.4C78,179.5,78,179.5,78,179.4z M44.7,178.9
											C44.7,178.9,44.6,178.9,44.7,178.9c-0.5,0-0.9,0.3-0.9,0.7c0,0.5,0.3,0.9,0.7,0.9h0.1c0.4,0,0.8-0.3,0.8-0.8v-0.1
											C45.5,179.3,45.1,178.9,44.7,178.9z M74,179.9c0-0.4-0.4-0.8-0.8-0.8h-0.1c-0.5,0-0.8,0.4-0.8,0.9c0,0.4,0.4,0.8,0.8,0.8
											h0.1C73.7,180.7,74,180.4,74,179.9L74,179.9z M48.7,179.3L48.7,179.3C48.7,179.3,48.7,179.2,48.7,179.3
											c-0.5,0-0.9,0.3-0.9,0.8s0.3,0.9,0.8,0.9h0.1c0.4,0,0.8-0.3,0.8-0.8c0,0,0,0,0-0.1C49.5,179.7,49.2,179.3,48.7,179.3z
											 M69.1,179.4L69.1,179.4c-0.5,0-0.9,0.4-0.8,0.9c0,0.4,0.4,0.8,0.8,0.8l0,0c0.4,0,0.8-0.4,0.8-0.8v-0.1
											C69.9,179.8,69.5,179.4,69.1,179.4z M52.8,179.5L52.8,179.5c-0.5,0-0.8,0.3-0.9,0.8c0,0.5,0.3,0.9,0.8,0.9l0,0
											c0.4,0,0.8-0.3,0.8-0.8l0,0C53.6,179.9,53.2,179.5,52.8,179.5z M65,179.6L65,179.6c-0.5,0-0.8,0.4-0.8,0.9
											c0,0.2,0.1,0.4,0.3,0.6c0.1,0.1,0.4,0.2,0.6,0.2l0,0c0.5,0,0.8-0.4,0.8-0.8l0,0C65.8,180,65.5,179.6,65,179.6z
											 M56.9,179.6L56.9,179.6c-0.5,0-0.8,0.4-0.8,0.8c0,0.5,0.4,0.8,0.8,0.9l0,0c0.2,0,0.4-0.1,0.6-0.2
											c0.1-0.1,0.2-0.3,0.2-0.6l0,0C57.7,180,57.3,179.6,56.9,179.6z M61.5,179.9c-0.1-0.1-0.4-0.2-0.6-0.2
											c-0.5,0-0.8,0.4-0.8,0.8c0,0.2,0.1,0.4,0.2,0.6c0.1,0.1,0.4,0.2,0.6,0.2l0,0c0.2,0,0.4-0.1,0.6-0.2
											c0.1-0.1,0.2-0.4,0.2-0.6C61.8,180.3,61.7,180.1,61.5,179.9z"/>
									</g>
								</g>
								<g>
									<path class="st2" d="M56.3,157.5c0-0.5,0.4-0.8,0.8-0.8l0,0c0.5,0,0.8,0.4,0.8,0.8l0,0c0,0.5-0.4,0.8-0.8,0.8l0,0l0,0l0,0
										C56.6,158.3,56.3,157.9,56.3,157.5z M52.9,158.3L52.9,158.3c-0.5,0-0.8-0.4-0.8-0.8l0,0c0-0.5,0.4-0.8,0.8-0.8l0,0
										c0.5,0,0.8,0.4,0.8,0.8l0,0C53.8,157.9,53.4,158.3,52.9,158.3L52.9,158.3L52.9,158.3z M60.4,157.4c0-0.5,0.3-0.8,0.8-0.9
										l0,0c0.5,0,0.8,0.3,0.9,0.8l0,0c0,0.5-0.3,0.8-0.8,0.9l0,0l0,0l0,0C60.8,158.2,60.4,157.8,60.4,157.4z M48.7,158.1
										L48.7,158.1c-0.5,0-0.8-0.4-0.8-0.9l0,0c0-0.5,0.4-0.8,0.9-0.8l0,0c0.5,0,0.8,0.4,0.8,0.9l0,0
										C49.6,157.8,49.2,158.1,48.7,158.1L48.7,158.1C48.8,158.1,48.7,158.1,48.7,158.1z M64.6,157.1c0-0.5,0.3-0.9,0.8-0.9l0,0
										c0.5,0,0.9,0.3,0.9,0.8l0,0c0,0.5-0.3,0.9-0.8,0.9l0,0c0,0,0,0-0.1,0l0,0C65,157.9,64.6,157.6,64.6,157.1z M44.6,157.9
										c-0.5,0-0.8-0.4-0.8-0.9l0,0c0-0.5,0.4-0.8,0.9-0.8l0,0c0.5,0,0.8,0.4,0.8,0.9l0,0C45.4,157.5,45,157.9,44.6,157.9
										L44.6,157.9L44.6,157.9z M68.7,156.7c-0.1-0.5,0.3-0.9,0.7-0.9l0,0c0.5-0.1,0.9,0.3,0.9,0.7l0,0c0.1,0.5-0.3,0.9-0.7,0.9
										l0,0h-0.1l0,0C69.1,157.5,68.8,157.2,68.7,156.7z M40.4,157.4c-0.5-0.1-0.8-0.5-0.7-0.9l0,0c0-0.5,0.5-0.8,0.9-0.7l0,0
										c0.5,0.1,0.8,0.5,0.7,0.9l0,0C41.3,157.1,40.9,157.5,40.4,157.4L40.4,157.4C40.4,157.5,40.4,157.4,40.4,157.4z M36.2,156.9
										c-0.5-0.1-0.8-0.5-0.7-0.9l0,0c0.1-0.5,0.5-0.8,0.9-0.7l0,0c0.5,0.1,0.8,0.5,0.7,0.9l0,0c-0.1,0.4-0.4,0.7-0.8,0.7l0,0
										C36.3,156.9,36.3,156.9,36.2,156.9z M72.9,156.2c-0.1-0.5,0.2-0.9,0.7-1l0,0c0.5-0.1,0.9,0.2,1,0.7l0,0
										c0.1,0.5-0.2,0.9-0.7,0.9l0,0h-0.1l0,0C73.3,156.9,72.9,156.6,72.9,156.2z M32.1,156.3c-0.5-0.1-0.8-0.5-0.7-1l0,0
										c0.1-0.4,0.5-0.8,1-0.7l0,0l0,0l0,0c0.4,0.1,0.8,0.5,0.7,1l0,0c-0.1,0.4-0.4,0.7-0.8,0.7l0,0
										C32.2,156.3,32.1,156.3,32.1,156.3z M77,155.5c-0.1-0.5,0.2-0.9,0.7-1l0,0c0.4-0.1,0.9,0.2,1,0.7l0,0
										c0.1,0.4-0.2,0.9-0.7,1l0,0c-0.1,0-0.1,0-0.2,0l0,0C77.4,156.2,77,155.9,77,155.5z M28,155.5c-0.4-0.1-0.7-0.5-0.6-1l0,0
										c0.1-0.4,0.5-0.7,1-0.6l0,0c0.4,0.1,0.7,0.5,0.6,1l0,0c-0.1,0.4-0.4,0.7-0.8,0.7l0,0C28.1,155.5,28,155.5,28,155.5z
										 M81,154.7c-0.1-0.4,0.2-0.9,0.6-1l0,0l0,0l0,0c0.4-0.1,0.9,0.2,1,0.6l0,0c0.1,0.4-0.2,0.9-0.6,1l0,0c-0.1,0-0.1,0-0.2,0
										l0,0C81.5,155.3,81.1,155.1,81,154.7z M23.9,154.6L23.9,154.6c-0.4-0.1-0.7-0.6-0.6-1l0,0c0.1-0.4,0.5-0.7,1-0.6l0,0
										c0.4,0.1,0.7,0.6,0.6,1l0,0c-0.1,0.4-0.4,0.6-0.8,0.6l0,0C24,154.6,23.9,154.6,23.9,154.6z M85.1,153.8
										c-0.1-0.4,0.2-0.9,0.6-1l0,0c0.4-0.1,0.9,0.2,1,0.6l0,0c0.1,0.4-0.2,0.9-0.6,1l0,0c-0.1,0-0.1,0-0.2,0l0,0
										C85.5,154.4,85.2,154.2,85.1,153.8z M19.8,153.6c-0.4-0.1-0.7-0.6-0.6-1l0,0c0.1-0.4,0.6-0.7,1-0.6l0,0
										c0.4,0.1,0.7,0.6,0.6,1l0,0c-0.1,0.4-0.4,0.6-0.8,0.6l0,0C20,153.6,19.9,153.6,19.8,153.6z M89.2,152.9
										c-0.1-0.4,0.2-0.9,0.6-1l0,0c0.4-0.1,0.9,0.2,1,0.6l0,0c0.1,0.4-0.2,0.9-0.6,1l0,0c-0.1,0-0.1,0-0.2,0l0,0
										C89.6,153.5,89.2,153.3,89.2,152.9z M93.2,152c-0.1-0.4,0.2-0.9,0.6-1l0,0c0.4-0.1,0.9,0.2,1,0.6l0,0
										c0.1,0.4-0.2,0.9-0.6,1l0,0c-0.1,0-0.1,0-0.2,0l0,0C93.7,152.7,93.3,152.4,93.2,152z M15.8,152.5c-0.4-0.1-0.7-0.6-0.6-1
										l0,0c0.1-0.4,0.6-0.7,1-0.6l0,0l0,0l0,0c0.4,0.1,0.7,0.6,0.6,1l0,0c-0.1,0.4-0.4,0.6-0.8,0.6l0,0
										C15.9,152.5,15.9,152.5,15.8,152.5z M97.3,151.2c-0.1-0.4,0.2-0.9,0.7-1l0,0c0.4-0.1,0.9,0.2,1,0.7l0,0
										c0.1,0.5-0.2,0.9-0.7,1l0,0c-0.1,0-0.1,0-0.2,0l0,0C97.7,151.9,97.4,151.6,97.3,151.2z M11.8,151.2L11.8,151.2
										c-0.4-0.1-0.7-0.6-0.5-1l0,0c0.1-0.4,0.6-0.7,1-0.5l0,0l0,0l0,0c0.4,0.1,0.7,0.6,0.5,1l0,0c-0.1,0.4-0.4,0.6-0.8,0.6l0,0
										C11.9,151.3,11.9,151.3,11.8,151.2z M101.4,150.4c-0.1-0.4,0.2-0.9,0.7-1l0,0c0.4-0.1,0.9,0.2,1,0.7l0,0
										c0.1,0.5-0.2,0.9-0.7,1l0,0c0,0-0.1,0-0.2,0l0,0C101.8,151.1,101.5,150.8,101.4,150.4z M105.5,149.6
										c-0.1-0.5,0.2-0.9,0.7-1l0,0c0.5-0.1,0.9,0.2,1,0.7l0,0c0.1,0.5-0.2,0.9-0.7,1l0,0h-0.1l0,0
										C105.9,150.3,105.6,150,105.5,149.6z M7.8,149.9c-0.4-0.2-0.7-0.6-0.5-1.1l0,0c0.2-0.4,0.6-0.7,1.1-0.5l0,0l0,0l0,0
										c0.4,0.2,0.7,0.6,0.5,1.1l0,0c-0.1,0.3-0.4,0.5-0.8,0.5l0,0C8,149.9,7.9,149.9,7.8,149.9z M109.6,148.9
										c-0.1-0.5,0.2-0.9,0.7-1l0,0c0.5-0.1,0.9,0.2,1,0.7l0,0c0.1,0.5-0.2,0.9-0.7,1l0,0h-0.1l0,0
										C110,149.6,109.7,149.3,109.6,148.9z M113.7,148.2c-0.1-0.5,0.2-0.9,0.7-0.9l0,0c0.5-0.1,0.9,0.2,0.9,0.7l0,0
										c0.1,0.5-0.2,0.9-0.7,1l0,0h-0.1l0,0C114.1,148.9,113.8,148.6,113.7,148.2z M3.9,148.4c-0.4-0.2-0.6-0.7-0.5-1.1l0,0
										c0.2-0.4,0.7-0.6,1.1-0.5l0,0c0.4,0.2,0.6,0.7,0.5,1.1l0,0c-0.1,0.3-0.4,0.5-0.8,0.5l0,0C4.1,148.4,4,148.4,3.9,148.4z
										 M117.8,147.6c-0.1-0.5,0.3-0.9,0.7-0.9l0,0l0,0l0,0c0.5-0.1,0.9,0.3,0.9,0.7l0,0c0.1,0.5-0.3,0.9-0.7,0.9l0,0h-0.1l0,0
										C118.2,148.3,117.9,148,117.8,147.6z M121.9,147.1c-0.1-0.5,0.3-0.9,0.7-0.9l0,0c0.5-0.1,0.9,0.3,0.9,0.7l0,0
										c0,0.5-0.3,0.9-0.7,0.9l0,0h-0.1l0,0C122.3,147.8,122,147.5,121.9,147.1z"/>
								</g>
							</g>
						</g>
						<g>
							<g>
								<path class="st2" d="M117.5,154.5c-0.2,0.2-0.4,0.5-0.6,0.7c-20.8,8.3-40.4,10.9-56.8,10.9c-8.7,0-16.5-0.7-23-1.7
									c-15.4-2.3-26.7-6.4-31.7-8.3c-0.1-0.2-0.2-0.4-0.3-0.6c4.7,1.9,16.2,6.1,32,8.5C56.1,166.8,85.5,167.5,117.5,154.5z"/>
							</g>
						</g>
						<g>
							<g>
								<path class="st2" d="M101.5,170.3c-0.3,0.2-0.5,0.4-0.8,0.6C86,175,72.1,176.4,60,176.4c-8.7,0-16.5-0.7-23-1.7
									c-8.5-1.3-15.7-3.1-21.3-4.7c-0.2-0.2-0.4-0.4-0.7-0.6c5.7,1.8,13.2,3.7,22.1,5C52.9,176.7,75.9,177.5,101.5,170.3z"/>
							</g>
						</g>
						<path class="st2" d="M114.6,157.8c-2.5,2.7-5.5,5.9-9.1,9.1c-1.2-0.3-2.3-0.9-3.2-1.7c-0.6,2.4-2.5,4.3-5,4.9
							c-2.5,0.6-5.1-0.3-6.7-2.1c-0.8,2.3-2.8,4.1-5.4,4.5s-5.1-0.7-6.5-2.6c-1,2.2-3.1,3.9-5.7,4.1c-2.6,0.2-5-1.1-6.3-3.1
							c-1.2,2.2-3.4,3.6-6,3.6l0,0c-2.6,0-4.9-1.5-6-3.6c-1.3,2.1-3.7,3.3-6.3,3.2c-2.6-0.2-4.8-1.8-5.8-4.1c-1.5,2-3.9,3.1-6.5,2.7
							s-4.6-2.2-5.4-4.5c-1.6,1.8-4.2,2.8-6.7,2.2c-2.6-0.6-4.5-2.5-5.1-4.9c-1.4,1.4-3.4,2.1-5.5,1.9c-2.9-3.1-5.1-6.2-6.7-9.2
							c5.4,2.1,16.2,5.8,30.6,7.9c6.6,1,14.4,1.7,23,1.7C75.8,167.8,94.7,165.4,114.6,157.8z"/>
						<path class="st3" d="M109.2,152.2c1.1-0.1,2.6,0.2,2.7,1.3c0.1,1-1.1,1.6-2.1,1.8c-6.2,1.5-12.6,3-19,3.7
							c-2.3,0.2-4.4-1.4-1.3-2.5c3-1.1,6-1.9,9.1-2.6C102,153,105.6,152.5,109.2,152.2z"/>
					</g>
					<g>
						<g>
							<path class="st4" d="M136.9,139.3c0,0-41.4-22.1-92.6-16.7c-51.2,5.4-46,17.1-36,21.4c10,4.4,45.4,15.2,93.7,2.7L136.9,139.3
								z"/>
							<path class="st4" d="M44.3,122.6c-51.2,5.4-46,17.1-36,21.4c10,4.4,45.4,15.2,93.7,2.7l35-7.5
								C136.9,139.3,95.5,117.2,44.3,122.6z M100.8,146.4c-46.6,12-80.7,1.6-90.3-2.6c-9.6-4.2-14.6-15.4,34.7-20.7
								c49.4-5.2,89.3,16,89.3,16L100.8,146.4z"/>
						</g>
						<g>
							<g>
								<path class="st5" d="M125.9,139l-13,2.8l-16.2,3.5c-41.5,9.1-70,1.4-78.4-2.3c-1-0.4-1.9-0.9-2.7-1.5
									c-3.7-2.7-4.7-6.7,3.8-10.4c5.3-2.3,14.5-4.5,29-6c25.9-2.7,48.8,2.9,62.9,7.8C120.4,136.1,125.9,139,125.9,139z"/>
								<path class="st6" d="M125.9,139l-13,2.8l-16.2,3.5c-41.5,9.1-70,1.4-78.4-2.3c-1-0.4-1.9-0.9-2.7-1.5
									c-3.7-2.7-4.7-6.7,3.8-10.4c-0.8,2.7,1.8,5.7,4.9,4.7c12.6-3.8,45.3-11.2,81.3,2c1.3,0.5,2.8,0.3,3.9-0.7
									c1-0.8,1.8-2.2,1.8-4.3C120.4,136.1,125.9,139,125.9,139z"/>
							</g>
							<g>
								<path class="st7" d="M112.8,141.7l-16.2,3.5c-1.5,0.3-2.9,0.6-4.4,0.9c-2.2,0.4-4.4,0.8-6.5,1.2
									c-11.4,1.8-21.7,2.4-30.6,2.2c-8.8-0.2-16.4-1.1-22.4-2.3c-6.8-1.3-11.8-3-14.5-4.2c-1-0.4-1.9-0.9-2.7-1.5
									c4.2-3.1,13.9-6.1,32.8-8.1c9.7-1,19-0.9,27.6,0s16.5,2.4,23.4,4.2C104.5,138.9,109,140.4,112.8,141.7z"/>
								<path class="st3" d="M112.8,141.7l-4,0.9c-2.9-0.9-6.1-1.9-9.5-2.8c-6.8-1.8-14.7-3.4-23.4-4.2c-8.6-0.9-17.9-1-27.6,0
									c-16.5,1.8-26,4.3-31,6.9c-0.7-0.3-1.3-0.7-1.9-1.1c4.2-3.1,13.9-6.1,32.8-8.1c9.7-1,19-0.9,27.6,0s16.5,2.4,23.4,4.2
									C104.5,138.9,109,140.4,112.8,141.7z"/>
								<path class="st3" d="M99.3,137.6c-0.5,1-1.4,1.9-2.4,2.3c-1.8,0.8-3.7,0.8-5.6,1.1s-3.9,1.1-4.7,2.8
									c-0.5,1.1-0.5,2.3-0.8,3.5c-11.4,1.8-21.7,2.4-30.6,2.2c0.7-0.7,1.6-1.3,2.5-1.8c4.1-2.4,8.8-3.8,13.5-4.4
									c1-0.1,2.1-0.2,2.9-0.8s1.2-2,0.4-2.7c-0.5-0.4-1.2-0.4-1.8-0.5c-0.6-0.1-1.3-0.3-1.5-0.9c-0.2-0.8,0.7-1.4,1.4-1.5
									c0.8-0.1,1.6,0.1,2.3-0.2c1.7-0.6,1.7-2.1,1.1-3.3C84.6,134.2,92.5,135.8,99.3,137.6z"/>
								<path class="st3" d="M33.5,145.8c-1.5,0-3.1-0.2-4.6-0.6c-0.8-0.2-1.5-0.4-2.2-0.8c-0.7-0.3-1.5-0.8-2-1.7
									c-0.2-0.4-0.3-1-0.1-1.5c0.2-0.5,0.4-0.8,0.7-1.2c0.7-0.7,1.4-1,2.2-1.4c1.5-0.6,3-1,4.5-1.4c3-0.6,6.1-1,9.1-1.3
									c3.1-0.2,6.1-0.3,9.2-0.1c-3,0.6-6,1.1-9,1.5c-3,0.5-6,1-8.8,1.6c-1.4,0.3-2.9,0.7-4.2,1.2c-0.6,0.2-1.3,0.5-1.6,0.9
									c-0.2,0.1-0.3,0.4-0.4,0.6c-0.1,0.2-0.1,0.3,0,0.5c0.1,0.4,0.6,0.8,1.2,1.2s1.2,0.7,1.9,0.9
									C30.6,144.9,32.1,145.3,33.5,145.8z"/>
								<path class="st8" d="M92.3,146.1c-2.2,0.4-4.4,0.8-6.5,1.2c-2,0.3-4,0.6-5.9,0.8c-4.7-0.9-10.3-1.4-16.3-1.4
									c-7.4,0-14.1,0.8-19.3,2.1c-4.3-0.4-8.1-1-11.5-1.6c5.9-3.2,17.5-5.4,30.8-5.4C75.5,141.7,86,143.4,92.3,146.1z"/>
							</g>
						</g>
					</g>
				</g>
				<g>
					<path class="st9" d="M124.7,125.6c-0.6-4.8,0.7-9.7,1.7-14.4c0.9-4,1.7-8.1,1.2-12.1c-0.1-1,0.9-1.6,1.7-1.1
						c5.9,3.8,10.1,10.2,11.3,17.2c1.1,6.5-0.5,14.1-4.6,19.2C131,140.7,125.2,130.2,124.7,125.6z"/>
					<path class="st9" d="M134.6,132.2c0.1-0.1,0.2-0.3,0.2-0.4c2.5-7.7,2.1-16.3-1-23.8c-0.2-0.5-0.6-1.1-1.1-1.1
						c-0.8-0.1-1.2,1.1-1.1,1.9c0,2.2,0.3,4.5-0.3,6.6c-0.4,1.4-1.2,2.7-2.3,3.5c-1.3,0.9-2.2,2.3-2.1,3.9c0.5,6.1,3.2,9.4,4.7,10.9
						c0.6,0.5,1.5,0.6,2,0l0,0L134.6,132.2z"/>
					<path class="st9" d="M132.3,101.7c4.5,4.3,13.6,15.4,4.1,27.6c-0.3,0.4-1.1,0.2-1-0.4c0.4-3.2-0.4-6.6-1.8-9.6
						c-0.2,1.4-0.5,2.9-1.8,3.8c-0.6,0.4-1.4,0.5-2,0.1c-1-0.6-0.9-1.7-0.8-2.6c0.3-3.4,0.7-6.8,1-10.3c0.6,1.4,2.9,1.4,3.5,0
						c0.3-0.7,0.1-1.6-0.1-2.3c-0.5-1.8-1.1-3.8-1.9-5.7C131.2,101.8,131.9,101.3,132.3,101.7z"/>
					<g>
						<path class="st9" d="M129.3,104.8c0.3,2.6,0,5.2-0.4,7.7c-0.2,1.3-0.6,2.5-1,3.7c-0.4,1.2-0.9,2.4-1.5,3.6
							c-0.1,0.2-0.4,0.3-0.7,0.2c-0.2-0.1-0.3-0.3-0.3-0.6l0,0l0.8-3.7c0.3-1.2,0.5-2.4,0.7-3.6c0.5-2.4,0.9-4.9,1.3-7.4l0,0
							c0.1-0.3,0.3-0.5,0.6-0.4C129.1,104.4,129.3,104.5,129.3,104.8z"/>
					</g>
				</g>
			</g>
			<path class="st10" d="M1.8,139c0.6,1.3,1.8,2.3,2.9,3.2c1.2,0.9,2.4,1.6,3.7,2.2c2.6,1.3,5.4,2.2,8.2,2.9
				c5.6,1.4,11.4,2.3,17.2,3.1c11.6,1.5,23.2,2,34.8,1.2c5.8-0.3,11.6-1,17.3-2s11.4-2.4,17.1-3.6c11.4-2.5,22.8-4.8,34.4-6.7
				c-5.7,1.1-11.4,2.3-17.1,3.6c-5.7,1.2-11.4,2.5-17.1,3.8s-11.3,2.7-17.1,3.7c-5.8,1-11.6,1.7-17.4,2.1c-11.7,0.7-23.4,0.2-35-1.5
				c-5.8-0.9-11.6-1.8-17.2-3.3c-2.8-0.8-5.6-1.8-8.2-3.2c-1.3-0.7-2.6-1.5-3.7-2.4C3.5,141.4,2.4,140.3,1.8,139z"/>
		</g>
		<g>
			<g>
				<g>
					<g>
						<path class="st0" d="M179.6,178.4c0,0-3.1,0.9-8.6,5.1c-3,2.3-6.7,5.5-10.9,10.2c-0.2,0.2-0.4,0.5-0.6,0.7
							c-0.2,0.3-0.5,0.6-0.7,0.8c-0.5,0.6-1,1.1-1.5,1.7c-0.3,0.3-0.6,0.7-0.9,1c-0.7,0.8-1.5,1.6-2.3,2.4c-0.2,0.2-0.4,0.4-0.6,0.6
							c-0.5,0.5-1,1-1.5,1.5c-0.3,0.3-0.7,0.7-1.1,1c-0.9,0.8-1.8,1.7-2.8,2.6c-1.3,1.1-2.6,2.3-3.9,3.4c-0.3,0.2-0.5,0.4-0.8,0.7
							c-2.2,1.7-4.5,3.4-6.9,5.1c-0.4,0.3-0.9,0.6-1.4,0.9c-7.3,4.7-15.7,8.6-24.9,10.3c-10.7,2-22.5,0.9-34.9-5.5
							c-2.9-1.5-5.5-3-7.8-4.6c-0.4-0.3-0.8-0.6-1.2-0.8c-3.1-2.1-5.7-4.3-8-6.4c-0.2-0.2-0.5-0.4-0.7-0.6c-0.7-0.7-1.3-1.3-1.9-2
							c-0.7-0.8-1.4-1.6-2-2.3c-0.2-0.2-0.3-0.4-0.5-0.6c-0.9-1.1-1.7-2.2-2.4-3.3c-0.1-0.2-0.3-0.4-0.4-0.6
							c-0.1-0.2-0.3-0.4-0.4-0.6c-0.1-0.2-0.3-0.4-0.4-0.6c-0.1-0.2-0.3-0.5-0.4-0.7c-0.1-0.2-0.2-0.3-0.3-0.5
							c-0.4-0.7-0.7-1.4-1.1-2.1c-0.1-0.2-0.2-0.4-0.3-0.6c-4.7-10.2-3-18.1-3-18.1l2.4-0.1L179.6,178.4z"/>
						<path class="st1" d="M55.5,189.8c0,0-3.2,4.8,1.2,6.8c4.3,2,41.8,13,84.1,1.9c-2.5,0.8-48,15.7-70.9,11
							c-18.7-3.9,12.5,14.8,40.4,16.9c-10.7,2-22.5,0.9-34.9-5.5c-2.9-1.5-5.5-3-7.8-4.6c-0.4-0.3-0.8-0.6-1.2-0.8
							c-3.1-2.1-5.7-4.3-8-6.4c-0.2-0.2-0.5-0.4-0.7-0.6c-0.7-0.7-1.3-1.3-1.9-2c-0.7-0.8-1.4-1.6-2-2.3c-0.2-0.2-0.3-0.4-0.5-0.6
							c-0.9-1.1-1.7-2.2-2.4-3.3c-0.1-0.2-0.3-0.4-0.4-0.6c-0.1-0.2-0.3-0.4-0.4-0.6c-0.1-0.2-0.3-0.4-0.4-0.6
							c-0.1-0.2-0.3-0.5-0.4-0.7c-0.1-0.2-0.2-0.3-0.3-0.5c-0.4-0.7-0.7-1.4-1.1-2.1c-0.1-0.2-0.2-0.4-0.3-0.6
							c-4.7-10.2-3-18.1-3-18.1l2.4-0.1l132.5,2.1c0,0-3.1,0.9-8.6,5.1C154.8,189.3,107.8,203.2,55.5,189.8z"/>
						<g>
							<g>
								<g>
									<g>
										<path class="st2" d="M135.9,214.9c-0.1,0-0.1,0-0.2,0c-0.4,0.1-0.7,0.6-0.6,1v0.1c0.5-0.3,0.9-0.6,1.4-0.9
											C136.3,215,136.1,214.9,135.9,214.9z M67.3,214.7c-0.1,0-0.1,0-0.2,0c-0.4,0-0.7,0.3-0.8,0.6c0,0,0,0,0,0.1
											c0.4,0.3,0.8,0.6,1.2,0.8c0.2-0.1,0.3-0.3,0.4-0.5c0-0.1,0-0.1,0-0.2C68,215.2,67.7,214.8,67.3,214.7z M71.3,215.6
											c-0.1,0-0.1,0-0.2,0c-0.4,0-0.7,0.3-0.8,0.7c-0.1,0.5,0.2,0.9,0.7,1c0.1,0,0.1,0,0.2,0c0.4,0,0.7-0.3,0.8-0.7
											c0-0.1,0-0.1,0-0.2C72,216,71.7,215.7,71.3,215.6z M132.8,216.4c-0.1-0.4-0.4-0.7-0.8-0.7c-0.1,0-0.1,0-0.2,0
											c-0.5,0.1-0.7,0.5-0.6,1c0.1,0.4,0.4,0.7,0.8,0.7c0.1,0,0.1,0,0.2,0c0.4-0.1,0.7-0.4,0.7-0.8
											C132.8,216.6,132.8,216.5,132.8,216.4z M75.3,216.3L75.3,216.3c-0.5,0-0.8,0.3-0.9,0.7c-0.1,0.5,0.2,0.9,0.7,1
											c0.1,0,0.1,0,0.1,0c0.4,0,0.7-0.3,0.8-0.7c0-0.1,0-0.1,0-0.1C76,216.8,75.7,216.4,75.3,216.3z M128.8,217.3
											c-0.1-0.4-0.4-0.7-0.8-0.7c-0.1,0-0.1,0-0.1,0c-0.5,0.1-0.8,0.5-0.7,1c0.1,0.4,0.4,0.7,0.8,0.7h0.1
											c0.4-0.1,0.7-0.4,0.7-0.8C128.8,217.4,128.8,217.3,128.8,217.3z M79.3,217L79.3,217c-0.5,0-0.9,0.3-0.9,0.7
											c-0.1,0.5,0.2,0.9,0.7,0.9h0.1c0.4,0,0.8-0.3,0.8-0.7v-0.1C80,217.4,79.7,217.1,79.3,217z M124.7,217.9
											c-0.1-0.4-0.4-0.7-0.8-0.7h-0.1c-0.5,0.1-0.8,0.5-0.7,0.9c0.1,0.4,0.4,0.7,0.8,0.7h0.1
											C124.4,218.7,124.7,218.4,124.7,217.9C124.8,218,124.7,218,124.7,217.9z M83.3,217.5L83.3,217.5c-0.5,0-0.9,0.3-0.9,0.7
											c-0.1,0.5,0.3,0.9,0.7,0.9h0.1c0.4,0,0.8-0.3,0.8-0.7v-0.1C84.1,217.9,83.8,217.6,83.3,217.5z M120.7,218.5
											c-0.1-0.4-0.4-0.7-0.8-0.7h-0.1c-0.5,0.1-0.8,0.5-0.7,0.9c0.1,0.4,0.4,0.7,0.8,0.7h0.1C120.4,219.4,120.7,219,120.7,218.5
											C120.7,218.6,120.7,218.5,120.7,218.5z M87.4,218C87.3,218,87.3,218,87.4,218c-0.5,0-0.9,0.3-0.9,0.7
											c0,0.5,0.3,0.9,0.7,0.9h0.1c0.4,0,0.8-0.3,0.8-0.8v-0.1C88.1,218.4,87.8,218,87.4,218z M116.6,218.9
											c0-0.4-0.4-0.8-0.8-0.8h-0.1c-0.5,0-0.8,0.4-0.8,0.9c0,0.4,0.4,0.8,0.8,0.8h0.1C116.3,219.8,116.7,219.4,116.6,218.9
											C116.7,219,116.7,219,116.6,218.9z M91.4,218.3L91.4,218.3L91.4,218.3c-0.5,0-0.9,0.3-0.9,0.8s0.3,0.9,0.8,0.9h0.1
											c0.4,0,0.8-0.3,0.8-0.8c0,0,0,0,0-0.1C92.2,218.7,91.9,218.4,91.4,218.3z M111.8,218.5L111.8,218.5
											c-0.5,0-0.9,0.4-0.8,0.9c0,0.4,0.4,0.8,0.8,0.8l0,0c0.4,0,0.8-0.4,0.8-0.8v-0.1C112.6,218.8,112.2,218.5,111.8,218.5z
											 M95.5,218.6L95.5,218.6c-0.5,0-0.8,0.3-0.9,0.8c0,0.5,0.3,0.9,0.8,0.9l0,0c0.4,0,0.8-0.3,0.8-0.8l0,0
											C96.3,219,95.9,218.6,95.5,218.6z M107.7,218.7L107.7,218.7c-0.5,0-0.8,0.4-0.8,0.9c0,0.2,0.1,0.4,0.3,0.6
											c0.1,0.1,0.4,0.2,0.6,0.2l0,0c0.5,0,0.8-0.4,0.8-0.8l0,0C108.5,219,108.1,218.7,107.7,218.7z M99.5,218.7L99.5,218.7
											c-0.5,0-0.8,0.4-0.8,0.8c0,0.5,0.4,0.8,0.8,0.9l0,0c0.2,0,0.4-0.1,0.6-0.2c0.1-0.1,0.2-0.3,0.2-0.6l0,0
											C100.3,219.1,100,218.7,99.5,218.7z M104.2,219c-0.1-0.1-0.4-0.2-0.6-0.2c-0.5,0-0.8,0.4-0.8,0.8c0,0.2,0.1,0.4,0.2,0.6
											c0.1,0.1,0.4,0.2,0.6,0.2l0,0c0.2,0,0.4-0.1,0.6-0.2c0.1-0.1,0.2-0.4,0.2-0.6S104.3,219.1,104.2,219z"/>
									</g>
								</g>
								<g>
									<path class="st2" d="M98.9,196.5c0-0.5,0.4-0.8,0.8-0.8l0,0c0.5,0,0.8,0.4,0.8,0.8l0,0c0,0.5-0.4,0.8-0.8,0.8l0,0l0,0l0,0
										C99.3,197.4,98.9,197,98.9,196.5z M95.6,197.3L95.6,197.3c-0.5,0-0.8-0.4-0.8-0.8l0,0c0-0.5,0.4-0.8,0.8-0.8l0,0
										c0.5,0,0.8,0.4,0.8,0.8l0,0C96.4,197,96.1,197.3,95.6,197.3L95.6,197.3L95.6,197.3z M103.1,196.4c0-0.5,0.3-0.8,0.8-0.9
										l0,0c0.5,0,0.8,0.3,0.9,0.8l0,0c0,0.5-0.3,0.8-0.8,0.9l0,0l0,0l0,0C103.5,197.2,103.1,196.9,103.1,196.4z M91.4,197.2
										L91.4,197.2c-0.5,0-0.8-0.4-0.8-0.9l0,0c0-0.5,0.4-0.8,0.9-0.8l0,0c0.5,0,0.8,0.4,0.8,0.9l0,0
										C92.3,196.9,91.9,197.2,91.4,197.2L91.4,197.2L91.4,197.2z M107.3,196.2c0-0.5,0.3-0.9,0.8-0.9l0,0c0.5,0,0.9,0.3,0.9,0.8
										l0,0c0,0.5-0.3,0.9-0.8,0.9l0,0c0,0,0,0-0.1,0l0,0C107.7,197,107.3,196.6,107.3,196.2z M87.2,196.9c-0.5,0-0.8-0.4-0.8-0.9
										l0,0c0-0.5,0.4-0.8,0.9-0.8l0,0c0.5,0,0.8,0.4,0.8,0.9l0,0C88.1,196.6,87.7,196.9,87.2,196.9L87.2,196.9
										C87.3,196.9,87.2,196.9,87.2,196.9z M111.4,195.8c-0.1-0.5,0.3-0.9,0.7-0.9l0,0c0.5-0.1,0.9,0.3,0.9,0.7l0,0
										c0.1,0.5-0.3,0.9-0.7,0.9l0,0h-0.1l0,0C111.8,196.5,111.4,196.2,111.4,195.8z M83,196.5c-0.5-0.1-0.8-0.5-0.7-0.9l0,0
										c0-0.5,0.5-0.8,0.9-0.7l0,0c0.5,0.1,0.8,0.5,0.7,0.9l0,0C83.9,196.2,83.6,196.5,83,196.5L83,196.5
										C83.1,196.5,83.1,196.5,83,196.5z M78.9,196c-0.5-0.1-0.8-0.5-0.7-0.9l0,0c0.1-0.5,0.5-0.8,0.9-0.7l0,0
										c0.5,0.1,0.8,0.5,0.7,0.9l0,0C79.7,195.7,79.4,196,78.9,196L78.9,196L78.9,196z M115.5,195.3c-0.1-0.5,0.2-0.9,0.7-1l0,0
										c0.5-0.1,0.9,0.2,1,0.7l0,0c0.1,0.5-0.2,0.9-0.7,0.9l0,0h-0.1l0,0C115.9,196,115.6,195.7,115.5,195.3z M74.8,195.3
										c-0.5-0.1-0.8-0.5-0.7-1l0,0c0.1-0.4,0.5-0.8,1-0.7l0,0l0,0l0,0c0.4,0.1,0.8,0.5,0.7,1l0,0c-0.1,0.4-0.4,0.7-0.8,0.7l0,0
										C74.9,195.3,74.8,195.3,74.8,195.3z M119.6,194.6c-0.1-0.5,0.2-0.9,0.7-1l0,0c0.4-0.1,0.9,0.2,1,0.7l0,0
										c0.1,0.4-0.2,0.9-0.7,1l0,0c-0.1,0-0.1,0-0.2,0l0,0C120.1,195.3,119.7,195,119.6,194.6z M70.6,194.6
										c-0.4-0.1-0.7-0.5-0.6-1l0,0c0.1-0.4,0.5-0.7,1-0.6l0,0c0.4,0.1,0.7,0.5,0.6,1l0,0c-0.1,0.4-0.4,0.7-0.8,0.7l0,0
										C70.7,194.6,70.7,194.6,70.6,194.6z M123.7,193.7c-0.1-0.4,0.2-0.9,0.6-1l0,0l0,0l0,0c0.4-0.1,0.9,0.2,1,0.6l0,0
										c0.1,0.4-0.2,0.9-0.6,1l0,0c-0.1,0-0.1,0-0.2,0l0,0C124.1,194.4,123.8,194.1,123.7,193.7z M66.5,193.7L66.5,193.7
										c-0.4-0.1-0.7-0.6-0.6-1l0,0c0.1-0.4,0.5-0.7,1-0.6l0,0c0.4,0.1,0.7,0.6,0.6,1l0,0c-0.1,0.4-0.4,0.6-0.8,0.6l0,0
										C66.7,193.7,66.6,193.7,66.5,193.7z M127.8,192.8c-0.1-0.4,0.2-0.9,0.6-1l0,0c0.4-0.1,0.9,0.2,1,0.6l0,0
										c0.1,0.4-0.2,0.9-0.6,1l0,0c-0.1,0-0.1,0-0.2,0l0,0C128.2,193.5,127.9,193.2,127.8,192.8z M62.5,192.7
										c-0.4-0.1-0.7-0.6-0.6-1l0,0c0.1-0.4,0.6-0.7,1-0.6l0,0c0.4,0.1,0.7,0.6,0.6,1l0,0c-0.1,0.4-0.4,0.6-0.8,0.6l0,0
										C62.6,192.7,62.5,192.7,62.5,192.7z M131.8,192c-0.1-0.4,0.2-0.9,0.6-1l0,0c0.4-0.1,0.9,0.2,1,0.6l0,0
										c0.1,0.4-0.2,0.9-0.6,1l0,0c-0.1,0-0.1,0-0.2,0l0,0C132.3,192.6,131.9,192.3,131.8,192z M135.9,191.1
										c-0.1-0.4,0.2-0.9,0.6-1l0,0c0.4-0.1,0.9,0.2,1,0.6l0,0c0.1,0.4-0.2,0.9-0.6,1l0,0c-0.1,0-0.1,0-0.2,0l0,0
										C136.3,191.8,136,191.5,135.9,191.1z M58.4,191.5c-0.4-0.1-0.7-0.6-0.6-1l0,0c0.1-0.4,0.6-0.7,1-0.6l0,0l0,0l0,0
										c0.4,0.1,0.7,0.6,0.6,1l0,0c-0.1,0.4-0.4,0.6-0.8,0.6l0,0C58.6,191.6,58.5,191.6,58.4,191.5z M140,190.3
										c-0.1-0.4,0.2-0.9,0.7-1l0,0c0.4-0.1,0.9,0.2,1,0.7l0,0c0.1,0.5-0.2,0.9-0.7,1l0,0c-0.1,0-0.1,0-0.2,0l0,0
										C140.4,190.9,140.1,190.7,140,190.3z M54.4,190.3L54.4,190.3c-0.4-0.1-0.7-0.6-0.5-1l0,0c0.1-0.4,0.6-0.7,1-0.5l0,0l0,0
										l0,0c0.4,0.1,0.7,0.6,0.5,1l0,0c-0.1,0.4-0.4,0.6-0.8,0.6l0,0C54.6,190.3,54.5,190.3,54.4,190.3z M144.1,189.5
										c-0.1-0.4,0.2-0.9,0.7-1l0,0c0.4-0.1,0.9,0.2,1,0.7l0,0c0.1,0.5-0.2,0.9-0.7,1l0,0c-0.1,0-0.1,0-0.2,0l0,0
										C144.5,190.1,144.1,189.9,144.1,189.5z M148.2,188.7c-0.1-0.5,0.2-0.9,0.7-1l0,0c0.5-0.1,0.9,0.2,1,0.7l0,0
										c0.1,0.5-0.2,0.9-0.7,1l0,0c-0.1,0-0.1,0-0.1,0l0,0C148.6,189.4,148.2,189.1,148.2,188.7z M50.5,188.9
										c-0.4-0.2-0.7-0.6-0.5-1.1l0,0c0.2-0.4,0.6-0.7,1.1-0.5l0,0l0,0l0,0c0.4,0.2,0.7,0.6,0.5,1.1l0,0c-0.1,0.3-0.4,0.5-0.8,0.5
										l0,0C50.7,189,50.6,189,50.5,188.9z M152.3,188c-0.1-0.5,0.2-0.9,0.7-1l0,0c0.5-0.1,0.9,0.2,1,0.7l0,0
										c0.1,0.5-0.2,0.9-0.7,1l0,0h-0.1l0,0C152.7,188.7,152.3,188.4,152.3,188z M156.4,187.3c-0.1-0.5,0.2-0.9,0.7-0.9l0,0
										c0.5-0.1,0.9,0.2,0.9,0.7l0,0c0.1,0.5-0.2,0.9-0.7,1l0,0h-0.1l0,0C156.8,188,156.4,187.7,156.4,187.3z M46.6,187.4
										c-0.4-0.2-0.6-0.7-0.5-1.1l0,0c0.2-0.4,0.7-0.6,1.1-0.5l0,0c0.4,0.2,0.6,0.7,0.5,1.1l0,0c-0.1,0.3-0.4,0.5-0.8,0.5l0,0
										C46.8,187.5,46.7,187.5,46.6,187.4z M160.5,186.7c-0.1-0.5,0.3-0.9,0.7-0.9l0,0l0,0l0,0c0.5-0.1,0.9,0.3,0.9,0.7l0,0
										c0.1,0.5-0.3,0.9-0.7,0.9l0,0h-0.1l0,0C160.9,187.4,160.5,187.1,160.5,186.7z M164.6,186.2c-0.1-0.5,0.3-0.9,0.7-0.9l0,0
										c0.5-0.1,0.9,0.3,0.9,0.7l0,0c0,0.5-0.3,0.9-0.7,0.9l0,0h-0.1l0,0C165,186.9,164.7,186.6,164.6,186.2z"/>
								</g>
							</g>
						</g>
						<g>
							<g>
								<path class="st2" d="M160.1,193.6c-0.2,0.2-0.4,0.5-0.6,0.7c-20.8,8.3-40.4,10.9-56.8,10.9c-8.7,0-16.5-0.7-23-1.7
									c-15.4-2.3-26.7-6.4-31.7-8.3c-0.1-0.2-0.2-0.4-0.3-0.6c4.7,1.9,16.2,6.1,32,8.5C98.8,205.9,128.2,206.6,160.1,193.6z"/>
							</g>
						</g>
						<g>
							<g>
								<path class="st2" d="M144.2,209.4c-0.3,0.2-0.5,0.4-0.8,0.6c-14.8,4.1-28.6,5.4-40.7,5.4c-8.7,0-16.5-0.7-23-1.7
									c-8.5-1.3-15.7-3.1-21.3-4.7c-0.2-0.2-0.4-0.4-0.7-0.6c5.7,1.8,13.2,3.7,22.1,5C95.6,215.7,118.5,216.6,144.2,209.4z"/>
							</g>
						</g>
						<path class="st2" d="M157.3,196.9c-2.5,2.7-5.5,5.9-9.1,9.1c-1.2-0.3-2.3-0.9-3.2-1.7c-0.6,2.4-2.5,4.3-5,4.9
							c-2.5,0.6-5.1-0.3-6.7-2.1c-0.8,2.3-2.8,4.1-5.4,4.5s-5.1-0.7-6.5-2.6c-1,2.2-3.1,3.9-5.7,4.1c-2.6,0.2-5-1.1-6.3-3.1
							c-1.2,2.2-3.4,3.6-6,3.6l0,0c-2.6,0-4.9-1.5-6-3.6c-1.3,2.1-3.7,3.3-6.3,3.2c-2.6-0.2-4.8-1.8-5.8-4.1c-1.5,2-3.9,3.1-6.5,2.7
							c-2.6-0.4-4.6-2.2-5.4-4.5c-1.6,1.8-4.2,2.8-6.7,2.2c-2.6-0.6-4.5-2.5-5.1-4.9c-1.4,1.4-3.4,2.1-5.5,1.9
							c-2.9-3.1-5.1-6.2-6.7-9.2c5.4,2.1,16.2,5.8,30.6,7.9c6.6,1,14.4,1.7,23,1.7C118.5,206.8,137.3,204.4,157.3,196.9z"/>
						<path class="st3" d="M151.8,191.3c1.1-0.1,2.6,0.2,2.7,1.3c0.1,1-1.1,1.6-2.1,1.8c-6.2,1.5-12.6,3-19,3.7
							c-2.3,0.2-4.4-1.4-1.3-2.5c3-1.1,6-1.9,9.1-2.6C144.7,192.1,148.3,191.6,151.8,191.3z"/>
					</g>
					<g>
						<g>
							<path class="st4" d="M179.6,178.4c0,0-41.4-22.1-92.6-16.7c-51.2,5.4-46,17.1-36,21.4c10,4.4,45.4,15.2,93.7,2.7L179.6,178.4
								z"/>
							<path class="st4" d="M87,161.7c-51.2,5.4-46,17.1-36,21.4c10,4.4,45.4,15.2,93.7,2.7l35-7.5
								C179.6,178.4,138.2,156.3,87,161.7z M143.5,185.5c-46.6,12-80.7,1.6-90.3-2.6c-9.6-4.2-14.6-15.4,34.7-20.7
								c49.4-5.2,89.3,16.1,89.3,16.1L143.5,185.5z"/>
						</g>
						<g>
							<g>
								<path class="st5" d="M168.5,178l-13,2.8l-16.2,3.5c-41.5,9.1-70,1.4-78.4-2.3c-1-0.4-1.9-1-2.7-1.5
									c-3.7-2.7-4.7-6.7,3.8-10.4c5.3-2.3,14.5-4.5,29-6c25.9-2.7,48.8,2.9,62.8,7.8C163.1,175.1,168.5,178,168.5,178z"/>
								<path class="st6" d="M168.5,178l-13,2.8l-16.2,3.5c-41.5,9.1-70,1.4-78.4-2.3c-1-0.4-1.9-1-2.7-1.5
									c-3.7-2.7-4.7-6.7,3.8-10.4c-0.8,2.7,1.8,5.7,4.9,4.7c12.6-3.8,45.3-11.2,81.3,2c1.3,0.5,2.8,0.3,3.9-0.7
									c1-0.8,1.8-2.2,1.8-4.3C163.1,175.1,168.5,178,168.5,178z"/>
							</g>
							<g>
								<path class="st7" d="M155.5,180.8l-16.2,3.5c-1.5,0.3-2.9,0.6-4.4,0.9c-2.2,0.4-4.4,0.8-6.5,1.2
									c-11.4,1.8-21.7,2.4-30.6,2.2s-16.4-1.1-22.4-2.3c-6.8-1.3-11.8-3-14.5-4.2c-1-0.4-1.9-1-2.7-1.5c4.2-3.1,14-6.1,32.9-8.1
									c9.7-1,19-0.9,27.6,0s16.5,2.4,23.4,4.2C147.1,178,151.7,179.4,155.5,180.8z"/>
								<path class="st3" d="M155.5,180.8l-4,0.9c-2.9-1-6.1-1.9-9.5-2.8c-6.8-1.8-14.7-3.4-23.4-4.2c-8.6-0.9-17.9-1-27.6,0
									c-16.5,1.8-26.1,4.3-31,6.9c-0.7-0.3-1.3-0.7-1.9-1.1c4.2-3.1,14-6.1,32.9-8.1c9.7-1,19-0.9,27.6,0s16.5,2.4,23.4,4.2
									C147.1,178,151.7,179.4,155.5,180.8z"/>
								<path class="st3" d="M142,176.6c-0.5,1-1.4,1.9-2.4,2.3c-1.8,0.8-3.7,0.8-5.6,1.1c-1.9,0.3-3.9,1.1-4.7,2.8
									c-0.5,1.1-0.5,2.3-0.8,3.5c-11.4,1.8-21.7,2.4-30.6,2.2c0.7-0.7,1.6-1.3,2.4-1.8c4.2-2.4,8.8-3.8,13.5-4.4
									c1-0.1,2.1-0.2,2.9-0.8s1.2-2,0.4-2.7c-0.5-0.4-1.2-0.4-1.8-0.5c-0.6-0.1-1.4-0.3-1.5-0.9c-0.2-0.8,0.7-1.4,1.4-1.5
									c0.8-0.1,1.6,0.1,2.3-0.2c1.7-0.6,1.7-2.1,1.1-3.3C127.3,173.3,135.2,174.8,142,176.6z"/>
								<path class="st3" d="M76.2,184.8c-1.5,0-3.1-0.2-4.6-0.6c-0.8-0.2-1.5-0.4-2.2-0.8c-0.7-0.3-1.5-0.8-2-1.7
									c-0.2-0.4-0.3-1-0.1-1.5c0.2-0.5,0.4-0.8,0.7-1.2c0.7-0.7,1.4-1,2.2-1.4c1.5-0.6,3-1,4.5-1.4c3-0.6,6.1-1,9.1-1.3
									c3.1-0.2,6.1-0.3,9.2-0.1c-3,0.6-6,1.1-9,1.5c-3,0.5-6,1-8.8,1.6c-1.4,0.3-2.9,0.7-4.2,1.2c-0.6,0.2-1.3,0.5-1.6,0.9
									c-0.2,0.1-0.3,0.4-0.4,0.6c-0.1,0.2-0.1,0.3,0,0.5c0.1,0.4,0.6,0.8,1.2,1.2s1.2,0.7,1.9,0.9C73.3,184,74.7,184.4,76.2,184.8
									z"/>
								<path class="st8" d="M134.9,185.2c-2.2,0.4-4.4,0.8-6.5,1.2c-2,0.3-4,0.6-5.9,0.8c-4.7-0.9-10.3-1.4-16.3-1.4
									c-7.4,0-14.1,0.8-19.3,2.1c-4.3-0.4-8.1-1-11.5-1.7c5.9-3.2,17.5-5.4,30.8-5.4C118.1,180.7,128.6,182.5,134.9,185.2z"/>
							</g>
						</g>
					</g>
				</g>
				<g>
					<path class="st9" d="M167.3,164.7c-0.6-4.8,0.7-9.7,1.7-14.4c0.9-4,1.7-8.1,1.2-12.1c-0.1-1,0.9-1.6,1.7-1.1
						c5.9,3.8,10.1,10.2,11.3,17.2c1.1,6.5-0.5,14.1-4.6,19.2C173.6,179.8,167.9,169.3,167.3,164.7z"/>
					<path class="st9" d="M177.3,171.3c0.1-0.1,0.2-0.3,0.2-0.4c2.5-7.7,2.1-16.3-1-23.8c-0.2-0.5-0.6-1.1-1.1-1.1
						c-0.8-0.1-1.2,1.1-1.1,1.9c0,2.2,0.3,4.5-0.3,6.6c-0.4,1.4-1.2,2.7-2.3,3.5c-1.3,0.9-2.2,2.3-2.1,3.9c0.5,6.1,3.2,9.4,4.7,10.9
						c0.6,0.5,1.5,0.6,2,0l0,0L177.3,171.3z"/>
					<path class="st9" d="M175,140.8c4.5,4.3,13.6,15.4,4.1,27.6c-0.3,0.4-1.1,0.2-1-0.4c0.4-3.2-0.4-6.6-1.8-9.6
						c-0.2,1.4-0.5,2.9-1.8,3.8c-0.6,0.4-1.4,0.5-2,0.1c-1-0.6-0.9-1.7-0.8-2.6c0.3-3.4,0.7-6.8,1-10.3c0.6,1.4,2.9,1.4,3.5,0
						c0.3-0.7,0.1-1.6-0.1-2.3c-0.5-1.8-1.1-3.8-1.9-5.7C173.8,140.9,174.6,140.4,175,140.8z"/>
					<g>
						<path class="st9" d="M172,143.8c0.3,2.6,0,5.2-0.4,7.7c-0.2,1.3-0.6,2.5-1,3.7s-0.9,2.4-1.5,3.6c-0.1,0.2-0.4,0.3-0.7,0.2
							c-0.2-0.1-0.3-0.3-0.3-0.6l0,0l0.8-3.7c0.3-1.2,0.5-2.4,0.7-3.6c0.5-2.4,0.9-4.9,1.3-7.4l0,0c0.1-0.3,0.3-0.5,0.6-0.4
							C171.8,143.4,172,143.6,172,143.8z"/>
					</g>
				</g>
			</g>
			<path class="st10" d="M52.2,183.8c5.1,1.8,10.3,3.2,15.6,4.4s10.6,2,16,2.5s10.8,0.4,16.2,0.4c5.4,0,10.8-0.1,16.2-0.6
				c5.4-0.4,10.7-1.1,16-2.1s10.5-2.4,15.8-3.7c10.5-2.7,21.1-5.1,31.9-6.2c-5.4,0.7-10.7,1.7-16,2.9s-10.5,2.5-15.7,4
				c-10.4,3-21.1,5.3-31.9,6.1c-5.4,0.4-10.8,0.5-16.3,0.5c-5.4,0-10.8,0.1-16.3-0.5C72.9,190.3,62.3,187.7,52.2,183.8z"/>
		</g>
	</g>
</g>
<g>
	<g>
		<g class="st11">
			<path class="st12" d="M115.3,46.7h-2.6v-9.5h-11.6v9.5h-2.6V26.4h2.6V35h11.6v-8.6h2.6V46.7z"/>
			<path class="st12" d="M131.1,46.7l-0.5-2.2h-0.1c-0.8,1-1.6,1.6-2.5,1.9c-0.8,0.3-1.8,0.5-3.1,0.5c-1.6,0-2.9-0.4-3.8-1.2
				c-0.9-0.8-1.4-1.9-1.4-3.3c0-3.1,2.7-4.7,8-4.8l2.8-0.1v-0.9c0-1.2-0.3-2.1-0.8-2.6s-1.4-0.9-2.7-0.9c-1.4,0-2.9,0.4-4.7,1.2
				l-0.8-1.8c0.8-0.4,1.7-0.7,2.7-1c1-0.2,1.9-0.3,2.9-0.3c2,0,3.4,0.4,4.4,1.2s1.4,2.1,1.4,3.9v10.4H131.1z M125.5,45
				c1.6,0,2.8-0.4,3.7-1.2c0.9-0.8,1.3-1.9,1.3-3.3v-1.4l-2.5,0.1c-2,0.1-3.4,0.3-4.3,0.9c-0.9,0.5-1.3,1.3-1.3,2.4
				c0,0.8,0.3,1.5,0.8,1.9C123.7,44.8,124.5,45,125.5,45z"/>
			<path class="st12" d="M145.8,46.9c-1.1,0-2.1-0.2-2.9-0.5c-0.9-0.4-1.6-0.9-2.2-1.7h-0.2c0.1,0.9,0.2,1.7,0.2,2.5v6.3h-2.5v-22h2
				l0.3,2.1h0.1c0.6-0.8,1.4-1.4,2.2-1.8c0.9-0.4,1.8-0.6,2.9-0.6c2.2,0,3.9,0.7,5.1,2.1c1.2,1.4,1.8,3.3,1.8,5.8
				c0,2.5-0.6,4.4-1.8,5.8S147.9,46.9,145.8,46.9z M145.4,33.1c-1.7,0-2.9,0.4-3.7,1.3c-0.8,0.9-1.1,2.2-1.2,4.1V39
				c0,2.1,0.4,3.7,1.2,4.6c0.8,0.9,2,1.4,3.7,1.4c1.4,0,2.5-0.5,3.3-1.6c0.8-1.1,1.2-2.5,1.2-4.4c0-1.9-0.4-3.3-1.2-4.4
				C148,33.6,146.9,33.1,145.4,33.1z"/>
			<path class="st12" d="M164.6,46.9c-1.1,0-2.1-0.2-2.9-0.5c-0.9-0.4-1.6-0.9-2.2-1.7h-0.2c0.1,0.9,0.2,1.7,0.2,2.5v6.3H157v-22h2
				l0.3,2.1h0.1c0.6-0.8,1.4-1.4,2.2-1.8c0.9-0.4,1.8-0.6,2.9-0.6c2.2,0,3.9,0.7,5.1,2.1c1.2,1.4,1.8,3.3,1.8,5.8
				c0,2.5-0.6,4.4-1.8,5.8C168.5,46.2,166.8,46.9,164.6,46.9z M164.3,33.1c-1.7,0-2.9,0.4-3.7,1.3c-0.8,0.9-1.1,2.2-1.2,4.1V39
				c0,2.1,0.4,3.7,1.2,4.6s2,1.4,3.7,1.4c1.4,0,2.5-0.5,3.3-1.6c0.8-1.1,1.2-2.5,1.2-4.4c0-1.9-0.4-3.3-1.2-4.4
				C166.9,33.6,165.8,33.1,164.3,33.1z"/>
			<path class="st12" d="M173.2,31.5h2.7l3.6,8.7c0.8,2,1.3,3.4,1.5,4.3h0.1c0.1-0.5,0.4-1.3,0.8-2.4c0.4-1.1,1.8-4.7,4.1-10.5h2.7
				l-7.1,17.3c-0.7,1.7-1.5,2.9-2.5,3.6c-0.9,0.7-2.1,1.1-3.5,1.1c-0.8,0-1.5-0.1-2.3-0.2v-1.8c0.6,0.1,1.2,0.2,1.9,0.2
				c1.7,0,2.9-0.9,3.7-2.7l0.9-2.2L173.2,31.5z"/>
		</g>
		<g class="st11">
			<path class="st12" d="M68.1,54c0-0.4-0.2-0.8-0.5-1c-0.3-0.2-0.7-0.3-1.1-0.3c-0.8,0-1.6,0.1-2.4,0.3c-0.8,0.2-1.5,0.5-2.1,0.9
				c-0.6,0.4-1.1,0.8-1.5,1.4c-0.4,0.5-0.6,1.1-0.6,1.7c0,0.4,0.1,0.8,0.2,1c0.1,0.3,0.3,0.5,0.4,0.6c0.2,0.1,0.3,0.2,0.5,0.2
				c0.2,0,0.3,0.1,0.4,0.1c0.4,0,0.7-0.1,0.9-0.2s0.4-0.2,0.6-0.4s0.4-0.3,0.5-0.4c0.2-0.1,0.4-0.2,0.6-0.2c0.2,0,0.4,0,0.6,0.1
				c0.2,0.1,0.4,0.2,0.6,0.4c0.2,0.2,0.3,0.4,0.4,0.6c0.1,0.3,0.2,0.6,0.2,1c0,0.5-0.1,1-0.3,1.4c-0.2,0.4-0.5,0.7-0.9,1
				c-0.4,0.3-0.8,0.5-1.2,0.6c-0.5,0.1-0.9,0.2-1.4,0.2c-0.7,0-1.3-0.1-1.9-0.3c-0.6-0.2-1-0.5-1.4-0.9c-0.4-0.4-0.7-0.9-0.9-1.4
				s-0.3-1.1-0.3-1.7c0-1.7,0.5-3.1,1.4-4.2c0.9-1.1,2.2-2,3.8-2.6c1.6-0.6,3.5-1.1,5.6-1.3s4.4-0.4,6.8-0.4c2.7,0,5.2,0.3,7.4,0.8
				c2.2,0.5,4.1,1.3,5.7,2.5c1.6,1.1,2.8,2.6,3.6,4.5c0.9,1.8,1.3,4.1,1.3,6.7c0,2.6-0.5,5-1.4,7s-2.1,3.8-3.7,5.2
				c-1.6,1.4-3.4,2.4-5.5,3.2c-2.1,0.7-4.4,1.1-6.8,1.1c-1.6,0-2.9-0.1-3.9-0.2c-1-0.1-1.7-0.4-2.3-0.7s-0.9-0.8-1.1-1.4
				s-0.3-1.3-0.3-2.2V54z M75.4,76.9c0,0.8,0.2,1.3,0.6,1.7c0.4,0.3,0.9,0.5,1.7,0.5c1.1,0,2.1-0.2,3.1-0.7c0.9-0.4,1.7-1.2,2.4-2.3
				c0.7-1.1,1.2-2.5,1.6-4.4c0.4-1.8,0.6-4.1,0.6-6.9c0-1.8-0.1-3.4-0.4-4.8c-0.2-1.3-0.6-2.5-1-3.4c-0.4-0.9-0.8-1.7-1.4-2.3
				c-0.5-0.6-1-1.1-1.6-1.4c-0.5-0.3-1-0.6-1.6-0.7c-0.5-0.1-1-0.2-1.4-0.2c-1,0-1.6,0.2-2.1,0.6c-0.4,0.4-0.6,1.1-0.6,2.1V76.9z"/>
			<path class="st12" d="M104.6,79c0,0.2,0,0.4-0.1,0.6c-0.1,0.3-0.2,0.5-0.5,0.7s-0.6,0.4-1,0.6c-0.5,0.2-1.1,0.2-1.9,0.2
				c-0.8,0-1.4-0.1-1.8-0.3s-0.8-0.4-1-0.6c-0.2-0.2-0.4-0.5-0.4-0.7c-0.1-0.2-0.1-0.4-0.1-0.6V63.3c0-0.4-0.1-0.7-0.3-1
				c-0.2-0.3-0.5-0.4-1-0.4c-0.3,0-0.5,0-0.6,0.1c-0.2,0.1-0.4,0.2-0.6,0.3l-0.5-0.5c0.3-0.3,0.7-0.5,1.1-0.8s0.9-0.5,1.4-0.7
				s1-0.3,1.6-0.5c0.6-0.1,1.1-0.2,1.8-0.2c1,0,1.7,0.1,2.2,0.4c0.5,0.2,0.9,0.5,1.2,0.9c0.3,0.3,0.4,0.7,0.5,1.1
				c0.1,0.4,0.1,0.7,0.1,1V79z M97.1,55c0-0.4,0.1-0.7,0.3-1.1c0.2-0.3,0.4-0.6,0.8-0.9c0.3-0.3,0.7-0.5,1.1-0.6
				c0.4-0.1,0.9-0.2,1.4-0.2c0.5,0,1,0.1,1.4,0.2c0.4,0.1,0.8,0.4,1.1,0.6c0.3,0.3,0.6,0.6,0.8,0.9c0.2,0.3,0.3,0.7,0.3,1.1
				c0,0.4-0.1,0.8-0.3,1.1c-0.2,0.3-0.4,0.6-0.8,0.9s-0.7,0.5-1.1,0.6c-0.4,0.1-0.9,0.2-1.4,0.2c-0.5,0-1-0.1-1.4-0.2
				c-0.4-0.1-0.8-0.3-1.1-0.6c-0.3-0.3-0.6-0.5-0.8-0.9C97.2,55.8,97.1,55.4,97.1,55z"/>
			<path class="st12" d="M137,66.1c0-0.9-0.1-1.6-0.2-2.2c-0.1-0.6-0.3-1.1-0.4-1.5c-0.2-0.4-0.3-0.7-0.4-1
				c-0.1-0.3-0.2-0.5-0.2-0.7c0-0.2,0.1-0.4,0.3-0.5c0.2-0.1,0.4-0.3,0.6-0.3c0.2-0.1,0.5-0.2,0.8-0.2c0.3,0,0.5-0.1,0.6-0.1
				c0.4,0,0.7,0.1,0.9,0.2s0.3,0.3,0.5,0.6c0.1,0.4,0.2,0.9,0.3,1.6c0.1,0.6,0.1,1.3,0.1,2.1c0,1-0.1,2.2-0.2,3.4
				c-0.1,1.2-0.3,2.5-0.6,3.8s-0.7,2.5-1.1,3.7c-0.4,1.2-1,2.2-1.6,3.1c-0.6,0.9-1.4,1.6-2.2,2.2s-1.8,0.8-2.8,0.8
				c-0.8,0-1.6-0.2-2.2-0.5c-0.7-0.3-1.2-0.7-1.8-1.3c-0.5-0.5-1-1.1-1.4-1.9c-0.4-0.7-0.7-1.5-1-2.3c-0.3,0.8-0.7,1.6-1.2,2.3
				s-0.9,1.3-1.5,1.9c-0.5,0.5-1.1,0.9-1.8,1.2c-0.6,0.3-1.3,0.4-2.1,0.4c-0.9,0-1.7-0.2-2.5-0.6s-1.3-0.9-1.9-1.5
				c-0.5-0.6-1-1.4-1.4-2.2s-0.7-1.8-1-2.7c-0.3-0.9-0.5-1.9-0.7-2.9c-0.2-1-0.4-2-0.5-2.9c-0.1-0.9-0.2-1.8-0.3-2.6
				s-0.2-1.5-0.3-2.1c-0.1-0.5-0.3-1-0.5-1.3c-0.2-0.3-0.5-0.4-1-0.4c-0.3,0-0.5,0-0.6,0.1c-0.2,0.1-0.4,0.2-0.6,0.3l-0.5-0.5
				c0.3-0.3,0.7-0.5,1.1-0.8c0.4-0.3,0.9-0.5,1.4-0.7c0.5-0.2,1-0.3,1.6-0.5c0.6-0.1,1.1-0.2,1.8-0.2c0.9,0,1.6,0.1,2.1,0.4
				c0.5,0.3,1,0.6,1.3,1s0.5,0.9,0.7,1.3s0.2,0.9,0.3,1.3c0.3,2,0.5,3.9,0.8,5.4c0.3,1.6,0.5,2.9,0.8,3.9c0.3,1.1,0.6,1.8,1,2.4
				c0.3,0.5,0.8,0.8,1.2,0.8c0.3,0,0.6-0.1,0.9-0.4s0.6-0.6,0.8-1c0.3-0.4,0.5-1,0.8-1.6c0.2-0.6,0.4-1.3,0.6-2
				c-0.1-0.7-0.3-1.5-0.4-2.2s-0.2-1.4-0.3-2.1c-0.1-0.7-0.2-1.3-0.2-1.9c-0.1-0.6-0.2-1.1-0.2-1.5c-0.2-1.3-0.1-2.2,0.4-2.9
				c0.5-0.6,1.4-1,2.9-1c0.6,0,1.2,0.1,1.6,0.2c0.4,0.1,0.8,0.3,1.1,0.6s0.5,0.7,0.7,1.1c0.2,0.5,0.3,1.1,0.4,1.8
				c0.3,2,0.6,3.9,0.8,5.5c0.3,1.6,0.5,3,0.8,4s0.6,1.9,1,2.5s0.8,0.9,1.2,0.9c0.5,0,1-0.3,1.4-0.9c0.4-0.6,0.8-1.3,1.1-2.3
				c0.3-0.9,0.5-2,0.7-3.2C136.9,68.7,137,67.4,137,66.1z"/>
			<path class="st12" d="M150.3,61.3c-0.5,0-1,0.1-1.4,0.2c-0.4,0.1-0.8,0.2-1.1,0.4c-0.3,0.2-0.6,0.3-0.7,0.5s-0.3,0.4-0.3,0.6
				c0,0.2,0.1,0.3,0.3,0.4c0.2,0.1,0.5,0.2,0.8,0.3c0.3,0.1,0.5,0.3,0.8,0.5c0.2,0.2,0.3,0.5,0.3,1c0,0.3-0.1,0.5-0.2,0.8
				s-0.3,0.4-0.5,0.6c-0.2,0.2-0.5,0.3-0.8,0.4c-0.3,0.1-0.6,0.2-0.9,0.2c-0.8,0-1.5-0.3-2-0.8s-0.8-1.2-0.8-2.1
				c0-0.8,0.2-1.5,0.7-2.1c0.5-0.6,1.1-1.1,1.8-1.5c0.8-0.4,1.6-0.7,2.6-0.8c1-0.2,1.9-0.3,2.9-0.3c1.1,0,2.2,0.1,3.3,0.3
				c1,0.2,2,0.6,2.8,1.1s1.4,1.1,1.9,1.9c0.5,0.8,0.7,1.7,0.7,2.8v11.5c0,0.1,0,0.3,0,0.4c0,0.1,0.1,0.3,0.1,0.4
				c0.1,0.1,0.1,0.2,0.3,0.3c0.1,0.1,0.3,0.1,0.5,0.1c0.3,0,0.5-0.1,0.7-0.3s0.4-0.4,0.6-0.6l0.6,0.4c-0.2,0.3-0.5,0.6-0.8,0.9
				c-0.3,0.3-0.7,0.7-1.1,1s-1,0.5-1.5,0.8c-0.6,0.2-1.3,0.3-2,0.3c-0.9,0-1.8-0.3-2.5-0.8c-0.7-0.5-1.2-1.3-1.4-2.3
				c-0.5,0.6-1,1.1-1.5,1.5s-1,0.7-1.6,1s-1.1,0.4-1.6,0.5c-0.5,0.1-1.1,0.2-1.6,0.2c-0.7,0-1.4-0.1-2.1-0.3c-0.7-0.2-1.3-0.5-1.8-1
				s-0.9-1-1.3-1.7s-0.5-1.6-0.5-2.6c0-1.2,0.3-2.2,0.8-3s1.2-1.4,2.1-2c0.9-0.5,1.8-1,2.9-1.4c1.1-0.4,2.2-0.8,3.4-1.2
				c0.9-0.3,1.5-0.8,1.9-1.4c0.4-0.6,0.6-1.3,0.6-1.9c0-1-0.3-1.8-1-2.4C152.3,61.6,151.4,61.3,150.3,61.3z M153.8,70.3
				c0-0.3-0.1-0.6-0.4-0.8s-0.5-0.3-0.9-0.3c-0.5,0-1,0.1-1.5,0.3c-0.5,0.2-0.9,0.5-1.2,1s-0.6,0.9-0.8,1.6
				c-0.2,0.6-0.3,1.3-0.3,2.1c0,0.8,0.1,1.4,0.2,2c0.1,0.5,0.3,0.9,0.5,1.2s0.5,0.5,0.7,0.6c0.3,0.1,0.6,0.2,0.9,0.2
				c0.4,0,0.7-0.1,1.1-0.3c0.3-0.2,0.6-0.4,0.9-0.7c0.3-0.3,0.4-0.6,0.6-1c0.1-0.4,0.2-0.7,0.2-1.1V70.3z"/>
			<path class="st12" d="M173.2,79c0,0.2,0,0.4-0.1,0.6s-0.2,0.5-0.5,0.7s-0.6,0.4-1.1,0.6c-0.5,0.2-1.1,0.2-1.9,0.2
				c-0.8,0-1.4-0.1-1.8-0.3c-0.4-0.2-0.8-0.4-1-0.6c-0.2-0.2-0.3-0.5-0.4-0.7c-0.1-0.2-0.1-0.4-0.1-0.6V52.7c0-0.4-0.1-0.7-0.3-1
				c-0.2-0.3-0.5-0.4-1-0.4c-0.3,0-0.5,0-0.7,0.1s-0.4,0.2-0.6,0.3l-0.4-0.5c0.3-0.3,0.7-0.5,1.1-0.8s0.9-0.5,1.4-0.7s1-0.3,1.6-0.5
				c0.6-0.1,1.1-0.2,1.8-0.2c1,0,1.7,0.1,2.2,0.4c0.5,0.2,0.9,0.5,1.2,0.9c0.3,0.3,0.4,0.7,0.5,1.1c0.1,0.4,0.1,0.7,0.1,1V79z"/>
			<path class="st12" d="M185.8,79c0,0.2,0,0.4-0.1,0.6c-0.1,0.3-0.2,0.5-0.5,0.7s-0.6,0.4-1,0.6c-0.5,0.2-1.1,0.2-1.9,0.2
				s-1.4-0.1-1.8-0.3s-0.8-0.4-1-0.6c-0.2-0.2-0.4-0.5-0.4-0.7S179,79.1,179,79V63.3c0-0.4-0.1-0.7-0.3-1c-0.2-0.3-0.5-0.4-1-0.4
				c-0.3,0-0.5,0-0.6,0.1c-0.2,0.1-0.4,0.2-0.6,0.3l-0.5-0.5c0.3-0.3,0.7-0.5,1.1-0.8s0.9-0.5,1.4-0.7c0.5-0.2,1-0.3,1.6-0.5
				c0.6-0.1,1.1-0.2,1.8-0.2c1,0,1.7,0.1,2.2,0.4c0.5,0.2,0.9,0.5,1.2,0.9c0.3,0.3,0.4,0.7,0.5,1.1c0.1,0.4,0.1,0.7,0.1,1V79z
				 M178.4,55c0-0.4,0.1-0.7,0.3-1.1c0.2-0.3,0.4-0.6,0.8-0.9c0.3-0.3,0.7-0.5,1.1-0.6c0.4-0.1,0.9-0.2,1.4-0.2c0.5,0,1,0.1,1.4,0.2
				c0.4,0.1,0.8,0.4,1.1,0.6c0.3,0.3,0.6,0.6,0.8,0.9c0.2,0.3,0.3,0.7,0.3,1.1c0,0.4-0.1,0.8-0.3,1.1c-0.2,0.3-0.4,0.6-0.8,0.9
				c-0.3,0.3-0.7,0.5-1.1,0.6c-0.4,0.1-0.9,0.2-1.4,0.2c-0.5,0-1-0.1-1.4-0.2c-0.4-0.1-0.8-0.3-1.1-0.6s-0.6-0.5-0.8-0.9
				C178.5,55.8,178.4,55.4,178.4,55z"/>
		</g>
	</g>
</g>
</svg>
