<?xml version="1.0" encoding="utf-8"?>
<!-- Generator: Adobe Illustrator 23.0.0, SVG Export Plug-In . SVG Version: 6.00 Build 0)  -->
<svg version="1.1" id="Layer_1" xmlns="http://www.w3.org/2000/svg" xmlns:xlink="http://www.w3.org/1999/xlink" x="0px" y="0px"
	 viewBox="0 0 600 1126" style="enable-background:new 0 0 600 1126;" xml:space="preserve">
<style type="text/css">
	.st0{fill:url(#SVGID_1_);}
	.st1{fill:#C52A91;}
	.st2{fill:#F8A9A3;}
	.st3{fill:#F38AB0;}
	.st4{fill:#BD3D96;}
	.st5{fill:#8A84BF;}
	.st6{fill:#F3BC49;}
	.st7{fill:#CD296B;}
	.st8{fill:#F16B9E;}
	.st9{fill:#A6A8B3;}
	.st10{fill:#FFFFFF;}
	.st11{opacity:0.5;fill:#FFFFFF;}
	.st12{fill:#010101;}
	.st13{fill:#D5BDDB;}
	.st14{fill:#EA8043;}
	.st15{fill:#B21F62;}
	.st16{fill:#AE2085;}
	.st17{fill:#DBB9D8;}
</style>
<radialGradient id="SVGID_1_" cx="300.1104" cy="563" r="451.0926" gradientUnits="userSpaceOnUse">
	<stop  offset="0" style="stop-color:#1E2452"/>
	<stop  offset="0.3715" style="stop-color:#1E2452"/>
	<stop  offset="1" style="stop-color:#2A1E53"/>
</radialGradient>
<rect x="0.1" class="st0" width="600" height="1126"/>
<g>
	<g>
		<path class="st1" d="M57.1,197.3c0-0.2-0.1-0.3-0.3-0.3c-0.8,0-1.6-0.2-2.4-0.2c0,0,0-0.1,0-0.1c-0.1-0.5-0.8,0.2-0.8,0.4
			c-1,3.6-1.3,7.4-1.7,11.1c-0.5,4.8-1.3,9.6-2.4,14.3c-0.8,3.2-1.5,6.5-2.2,9.8c-1.4,2.6-2.4,5.7-2.8,8.7c-0.6,1.6-1,3.2-0.8,4.6
			c0,0.1-0.1,0.1-0.1,0.2c0,0.1-0.1,0.2-0.1,0.4c-0.2,0.2-0.4,0.4-0.5,0.6c0,0.1-0.1,0.2-0.1,0.3h0c0,0,0,0.1,0,0.1
			c-0.1,0.2-0.2,0.5-0.2,0.7c-1.9,5.7-3.6,11.5-5.6,17.3c0,0.1-0.1,0.1-0.1,0.2c-0.3,0.1-0.6,0.3-0.7,0.6c-2.7,6.5-5.2,13-8,19.4
			c-0.1,0.3-0.3,0.6-0.4,0.9c-1,1.9-2.1,3.8-3.1,5.7c-2.3,4.2-4.5,8.4-6.7,12.6c-2.6,4.8-5.6,9.3-8.4,13.9c-0.2,0.3-0.3,1,0.3,0.8
			c0.2-0.1,0.4-0.2,0.5-0.3c0,0.1,0,0.1,0.1,0.2c1.2,0.9,2.7,0.8,4.1,0.7c0,0.1-0.1,0.2,0,0.3l0,0.1c0,0.2,0.2,0.2,0.4,0.2
			c0.1,0,0.1,0,0.2,0c3.9,0.4,9-0.4,12.6-1.7c1.8-0.6,6.9-4,5.7-6.7c0.5-1.3,0.8-2.6,1.2-3.9c0.9-3.1,1.8-6.2,2.7-9.3
			c0.9-3,1.6-6.1,2.4-9.2c0.5-1.9,1.1-3.8,1.4-5.8c0.6-2.5,1.3-5,1.9-7.5c1.5-5.9,2.8-11.8,4.4-17.7c1.3-4.8,2.4-9.9,2.8-14.9
			c0.6-2.7,1.2-5.4,1.8-8.1c1.2-5.8,2.1-11.7,2.8-17.6c0.4-3.6,0.8-7.1,1.4-10.7c0.2-1.4,0.2-2.9,0.3-4.3
			C57,201.1,57.3,199.1,57.1,197.3z M11.5,317.4c0.4-0.5,0.8-1,1.2-1.5c-0.4,0.6-0.7,1.2-1.2,1.6C11.4,317.5,11.5,317.5,11.5,317.4z
			"/>
		<path class="st2" d="M91.8,93.1C91.8,93.1,91.8,93.1,91.8,93.1c-0.1-0.2-0.3-0.1-0.4-0.1c-0.2-0.3-0.6-0.3-0.9-0.1
			c0,0-0.1,0-0.1,0c0,0,0-0.1,0-0.1c-0.4-0.9-1.8-0.6-2.6-0.7c-2.3-0.4-4.7-0.7-7.1-1c-3.5-0.4-6.9-0.6-10.4-0.8
			c-1.8-0.1-4.3-1-6.1-0.5c-0.1-0.1-0.3-0.1-0.4-0.1c0-0.1-0.1-0.2-0.1-0.3c-0.2-0.5-1.1,0.3-1,0.7c1.4,4.2-0.2,7.6-0.9,11.7
			c-0.3,1.9,1.4,1.9,2.8,2c3.3,0.2,6.5,0.3,9.8,0.6c3.9,0.3,8.1,1.4,12.1,0.9c0,0.1,0,0.1,0,0.2c0,0.2,0.1,0.4,0.4,0.4c0,0,0,0,0,0
			c0,0,0.1,0,0.2,0c0,0,0,0,0,0c0.3,0,0.6-0.1,0.9-0.2c0.1,0,0.3,0,0.4,0c0,0.1,0.1,0.2,0.1,0.4c0.1,0.5,0.9-0.1,1-0.5
			c0,0,0.1,0,0.1,0c0.1,0,0.3-0.2,0.2-0.3c-0.1-0.2-0.1-0.3-0.2-0.4c0.1-0.3,0.1-0.6,0-0.9c0.2-1.1,0-2.3,0.1-3.5
			c0-1.3,0.3-2.7,0.3-4c0.4-1,0.8-2,1.6-2.6C91.7,93.6,92,93.3,91.8,93.1z"/>
		<path class="st3" d="M102.7,129.7c-0.9-4.2-2.3-8.2-4.2-12.1c-1.5-3.2-3.6-7.2-7-8.4c-0.1-0.1-0.3,0-0.5,0.1
			c0-0.1-0.1-0.1-0.1-0.2c0.1-0.4,0-0.8-0.5-1.1c-0.3-0.1-0.5-0.3-0.8-0.3c-0.2-0.1-0.4-0.1-0.7,0c-0.6,0-1.4,0.4-1.9,1
			c-3.9-0.9-7.8-1.5-11.6-2.1c-2.2-0.4-4.4-0.5-6.7-0.7c-1.6-0.1-3.2-0.7-4.8-0.7c0.2-0.4,0.4-0.8,0.5-1.2c0.3-0.6-0.5-0.4-0.7-0.1
			c-0.4,0.5-0.7,0.9-1,1.4c-0.3,0-0.5,0.1-0.8,0.2c-0.3,0.1-0.6,0.4-0.5,0.8c0.1,0.2,0.1,0.4,0.2,0.6c-8.9,12.8-13,28-12.9,44
			c0,5.2,0.3,10.5,1.1,15.6c0.6,4.4,1.5,9.5,4.4,13c0.3,0.3,0.6,0.6,0.9,0.9c-0.2,0.3-0.2,0.6,0.1,0.8c4.2,1.7,8.7,2.1,13.2,2.5
			c3.3,0.3,7.3,1.2,10.7,0.7c-0.1,0.2,0,0.4,0.4,0.4c1.7-0.3,3.3-1,4.8-1.8c1.2-0.6,2.8-1.4,3.7-2.5c2.1-1.4,4.1-3.1,5.8-4.8
			c2.8-2.8,6.9-7.9,7-12.6c0.9-2.3,1.7-4.7,1.9-7c0-0.1-0.1-0.3-0.2-0.4c0.9-2.6,1.2-5.4,1.5-8.5C104.6,140.9,104,135.3,102.7,129.7
			z"/>
		<path class="st4" d="M62.3,104.4c-0.3,0.2-0.6,0.4-0.9,0.6c-0.2,0.1-0.3,0.1-0.5,0.2c-0.1-0.1-0.2-0.2-0.5-0.2
			c-0.1,0-0.2,0-0.2,0.1c-0.2,0-0.4,0-0.6,0.1c-0.9,0.4-1.6,0.9-2.3,1.4c-0.2-0.4-0.6-0.6-1.4,0c-5.2,4.1-8.9,9.4-11.6,15.4
			c-1.3,2.8-2.4,5.8-3.3,8.8c-0.2,0.5-0.1,0.8,0.2,0.9c-1.6,8-2.5,16.1-1.5,24.3c1.1,9.3,5.2,16.5,11.7,22.7c0.2,0.2,0.4,0.1,0.6,0
			c0.1,0.1,0.2,0.3,0.4,0.4c0.1,0.1,0.2,0.1,0.3,0c0.5,0.8,1.1,1.5,1.8,2.1c0.4,0.4,1.3-0.5,1.1-0.9c0,0,0-0.1-0.1-0.1c0,0,0,0,0,0
			c0,0,0,0,0,0c-0.1-0.2-0.3-0.3-0.4-0.4c-0.8-0.9-1.5-1.8-2.1-2.8c-0.3-1-0.7-2-1-3.1c-0.8-2.5-1.1-5.1-1.3-7.7
			c-0.4-4.3-0.4-8.6-0.3-12.8c0.1-7.6,1.5-14.9,2.1-22.4c0.9-4,2.1-8,3.5-11.9c1.7-4.8,3.4-10.3,6.8-14
			C63.1,104.6,62.9,104,62.3,104.4z"/>
		<path class="st5" d="M91.1,119.6c-0.2-1.7-0.5-3.4-0.9-5c-0.4-2.4-1.2-4.8-2.7-6.6c0.1-0.5,0.1-0.9-0.4-1.1
			c-2.1-0.8-4.4-1.2-6.7-1.5c-1.4-0.2-3.4-0.5-4.7,0.2c0.1-0.8-1.1-0.3-1.4,0.2c-3.3,5.5-4.9,12.4-6.3,18.7
			c-1.5,6.9-2.5,14-3.1,21.1c-0.6,7.3-0.9,14.7-1.4,22.1c-0.2,3.2-0.2,6.3,0.3,9.5c0.2,1.2,0.4,2.8,1,4c0,0.1,0,0.1,0,0.2
			c0.1,0.4,0.2,0.7,0.3,1l0,0c0.1,0.2,0.3,0.2,0.6,0c0.1,0.1,0.3,0.2,0.4,0.3c0.2,0.1,0.5,0.1,0.8-0.1c3.4,0.8,6.6,2,10.2,1.5
			c0.6-0.1,1.3-0.9,1.5-1.6c0.7,0.1,1.6-0.8,2.4-2.2c0.1-0.1,0.2-0.3,0.3-0.5c0,0.1,0.2,0,0.2-0.1c0.2-0.5,0.4-1,0.6-1.5
			c0.5-1,0.9-2.1,1.2-3c0.5-1.4,1-2.8,1.4-4.2c0.9-2,1.6-4.2,2.2-6.3c0-0.1,0-0.1-0.1-0.1c0.1-0.4,0.3-0.7,0.4-1.1
			c1.7-5,2.7-10,3.3-15.3c0.6-5.4,0.7-10.8,0.7-16.2c0-0.2,0-0.3,0-0.5C91.9,127.5,92,123.4,91.1,119.6z"/>
		<g>
			<path class="st2" d="M79.3,184.1c0-0.1-0.1-0.1-0.2-0.2c-0.2-0.1-0.5,0-0.7,0.2c-0.2,0.1-0.3,0.3-0.5,0.5c-2.5-0.8-5.4-0.9-8-1.3
				c-2.4-0.4-5-1.7-7.4-0.9c-1.8-0.3-3.7-0.6-5.5-0.7c-0.1,0-0.3,0.1-0.3,0.3c-0.1,0-0.2-0.1-0.2-0.1c-0.1-0.2-0.2-0.4-0.4-0.6
				c-0.3-0.4-1.1,0.5-1,0.9c0.7,2.1,1.2,4.9,1,7.6c-0.5,1.4-0.7,2.9-1.4,4.3c-0.2,0.4-0.1,0.5,0.1,0.5c-0.2,0.4-0.5,0.8-0.8,1.1
				c-0.3,0.3-0.5,1.1,0.2,1c0.6-0.1,0.9-0.2,1.1-0.3c3.5,0.7,7.1,1.3,10.6,1.8c3.4,0.5,7.2,1.3,10.6,0.7c0.1,0.1,0.1,0.1,0.1,0h0
				c0,0.6,0.8,0.1,1-0.3c0,0.1-0.1,0.2,0-0.1c0.1-0.1,0.1-0.2,0.1-0.4c0-0.4-0.2-0.8-0.3-1.2c0-0.1-0.1-0.3-0.1-0.4
				c0.1-0.2,0.2-0.4,0.2-0.5c-0.4-3.3-0.7-6.6,0.3-9.7c0.2,0,0.4-0.1,0.6-0.2c0.2-0.1,0.9-0.7,0.6-1c0.1-0.1,0.2-0.3,0.2-0.4
				C79.5,184.4,79.5,184.2,79.3,184.1z"/>
			<path class="st6" d="M77.8,198.6C77.9,198.6,77.9,198.5,77.8,198.6C77.9,198.5,77.9,198.6,77.8,198.6z"/>
		</g>
		<path class="st5" d="M114.5,299.9c0,0,0-0.1,0-0.1c-1.6-2.2-4.5-3.9-6.7-5.6c-2.2-1.7-4.3-3.7-6.3-5.8c-4.4-4.6-8.1-10-11.3-15.5
			c-3-5.1-5.4-10.6-7.5-16.2c-2-5.4-3-10.9-4.4-16.4c-0.4-2.2-0.6-4.3-0.9-6.5c-0.7-5.5-1-11.1-1-16.6c0-4.8,0.5-9.8-0.1-14.6
			c0.2-1.1,0.4-2.2,0.3-3.3c0-0.1-0.1-0.3-0.3-0.3c-0.9,0.1-1.8,0.2-2.7,0.1c-0.2,0-0.6,0.3-0.5,0.6c0,0.2,0,0.3,0.1,0.5
			c-0.4,2.9-0.6,5.8-0.7,8.7c-0.2,3-0.2,6-0.1,9c-0.1,6.4,0,13,0.6,19.4c0.5,6.3,1.5,12.6,2.8,18.8c0.6,3.2,1.3,6.3,2.2,9.4
			c0.6,2.2,1.2,4.7,2.4,6.7c0.9,4.2,3.2,8.2,5.4,11.8c2.2,3.7,4.8,7.2,7.8,10.2c3.4,3.4,7.6,5.9,11.3,8.8c1.6,1.2,3.4,2.5,5.1,1.8
			c0.1,0,0.2,0.1,0.3,0c0.8-0.1,1.5-0.6,2.1-1c0.2-0.1,0.4-0.2,0.5-0.3c0.3-0.2,0.7-0.6,0.8-1.1c0.3-0.3,0.6-0.6,1-0.8
			c0.4-0.3,0.8-0.8,0.8-1.3C115.4,299.9,114.9,299.8,114.5,299.9z"/>
		<path class="st5" d="M66.7,198.2c-0.1,0-0.3,0-0.4,0.1c-0.1-0.1-0.2-0.2-0.3-0.2c-0.6,0.1-1.2,0-1.7-0.2c-0.4-0.1-1.3,0.7-0.9,1.1
			c-0.2,0.1-0.3,0.3-0.3,0.4c-2.9,10.5-2.9,21.1-3.5,31.9c-0.3,5.6-1,11.2-1.4,16.8c-0.2,3.3-0.4,6.9-0.2,10.4
			c-1.2,7.9-0.9,16-1.6,24c-0.3,4.2-1.7,8.1-2.5,12.2c-0.6,2.8-0.6,6.5-2.8,8.5c-0.5,0.4-0.9,1.3-0.4,1.8c2,2.8,5.4,6.7,9.1,5.9
			c0.6-0.1,1.4-0.9,1.5-1.6c0.6-5.1,2.4-10,3.4-15c0.4-1.9,1.8-6.3,1.3-9.1c0.1-0.4,0.1-0.9,0.1-1.3c0.2-3-0.1-6-0.3-8.9
			c-0.4-5.5-1.3-10.9-1.9-16.4c-0.5-5.6-0.8-11.1-0.8-16.8c0-4.9,0.4-10-0.1-14.9c0.2-2.3,0.4-4.6,0.6-6.9c0.4-3.5,0.9-6.9,1.2-10.4
			c0.5-1.2,0.7-2.7,0.8-4c0.1-1.2,0.2-2.3,0.3-3.5c0.1-0.3,0.1-0.6,0.2-1c0.1-0.8,0.3-1.5,0.6-2.3c0-0.1,0-0.2,0-0.2
			C66.8,198.4,66.9,198.2,66.7,198.2z"/>
		<path class="st7" d="M97.4,306.6c0.1-0.2,0.1-0.4,0.1-0.5c-0.5-2.1-1.7-3.8-3-5.5c-2-2.7-4-5.2-5.7-8.1
			c-3.5-6.1-6.4-12.8-9.1-19.4c-1.9-4.7-3.4-9.5-4.4-14.4c-0.1-2.3-0.7-4.6-1.3-6.8c-0.5-3.3-0.9-6.5-1.1-9.9
			c-0.1-2.7-0.2-5.1-0.9-7.6c0-1-0.1-1.9-0.1-2.9c-0.2-8.8-0.1-17.8,0.2-26.6c0,0,0,0,0,0c0.5-0.9,0.6-1.8,0.6-2.8
			c0.1-0.7,0.1-1.4,0.2-2c0-0.3,0.1-0.6,0-0.8c0,0,0-0.1,0-0.1c-0.1-0.2-0.3-0.1-0.4,0c0-0.1-0.2-0.2-0.3-0.2c-0.6,0.1-1.2,0-1.7,0
			c0,0-0.1-0.1-0.1-0.1c-0.1,0-0.1-0.1-0.2-0.1c-0.1-0.1-0.3-0.1-0.4,0.1c-0.3,0-0.5,0.3-0.5,0.6c0,1-0.1,2-0.1,2.9
			c-0.1,0.3-0.2,0.7-0.2,1c0,0,0,0,0,0.1c-2.2,12.5-2.3,25.2-1.9,37.9c0.2,6.7,0.6,13.6,1.5,20.2c0.4,2.8,1.1,5.6,1.9,8.3
			c0.3,1.2,0.6,2.5,1,3.8c-0.2,0.3-0.4,0.6-0.2,0.8c0.6,2.7,1.6,5.2,2.8,7.6c0,0.1,0,0.2,0,0.3c2.2,6.8,5.4,13.1,9,19.2
			c1.6,2.8,3.3,5.5,4.9,8.2c0.7,1.1,1.4,3,2.9,2.7c0.3-0.1,0.7-0.4,0.9-0.7c0.1,0,0.1-0.1,0.2-0.1c1.2-0.9,2.4-1.9,3.7-2.8
			c0,0,0,0,0,0c0.5-0.3,1-0.5,1.4-0.9c0.3-0.3,0.6-0.6,0.6-1C97.5,306.8,97.5,306.7,97.4,306.6z"/>
		<path class="st8" d="M73.3,289c0.3-3-0.5-6.1-1.1-9.1c-0.3-2.5-0.9-4.8-1.7-7.4c-0.6-2.9-1.2-5.8-1.6-8.7c-0.7-5-1.3-10-1.5-15
			c-0.1-2.4-0.3-4.7-0.5-7.1c-0.1-1.5,0.2-3-0.5-4.3c0-0.6,0-1.3,0.1-1.9c0.2-5.4,0.4-10.8,0.7-16.2c0.2-5.2,1.3-10.6,1.2-15.8
			c0,0,0-0.1,0-0.1c0.2-1.6,0.5-3.1,0.9-4.6c0.1-0.3,0-0.5-0.3-0.5c-0.5,0-1-0.1-1.4-0.1c-0.4,0-0.8,0.4-0.8,0.8c0,0.3,0,0.6,0,0.9
			c0,0.1,0,0.2,0.1,0.2c-0.4,1-0.6,2-0.7,3.2c-0.3,2.9-0.6,5.7-1,8.5c-0.7,5.1-1.2,10.2-1.5,15.3c-0.3,5.3-0.1,10.7-0.3,16
			c-0.1,2.8-0.3,6.8,0.5,9.9c-0.6,7.9,1.5,16.2,2.4,24c0.5,4.6,0.6,9.3,0.5,13.9c-0.1,2.1-0.2,4.2-0.3,6.4c0,0.1,0,0.1,0,0.2
			c-0.1,1-0.3,2-0.4,3c-0.2,1.1-0.3,2.2-0.5,3.3c-0.9,1.4-1.1,3.1-1.2,4.9c-1.2,2.5-2.6,5.3-2.8,8.1c0,0.1,0,0.3,0,0.4
			c-0.1,0.2-0.2,0.3-0.3,0.5c-0.4,1,0.2,1.9,0.7,2.7c0.3,0.9,0.9,1.6,1.6,2c1,1.1,2.4,1.9,3.4,2.3c0.1,0,0.1,0,0.2,0
			c0,0,0,0.1,0,0.1c0.5,0.8,1.4,0.7,2.1,0.1c0.5-0.5,1.5-1.6,1.3-2.4c0.4-0.8,0.7-1.7,0.9-2.4c1.4-5.2,2.5-10.4,3-15.8
			C74.8,299.8,75.1,293.7,73.3,289z"/>
		<path class="st8" d="M62.8,198c0-0.1-0.1-0.1-0.2-0.1c0,0-0.1,0-0.1,0c-0.2-0.4-0.6-0.4-1-0.2c-0.5-0.1-0.9-0.1-1.4-0.2
			c-0.6-0.1-1.4-0.5-2-0.3c-0.3,0.1-1,0.8-0.6,1.1c0,0,0.1,0,0.1,0.1c0,0,0,0.1,0.1,0.1c0,0,0,0,0,0c-0.6,3.1-0.7,6.2-0.8,9.3
			c-0.2,1.3-0.2,2.7-0.3,4.1c-0.4,4.9-1.2,9.7-2,14.6c-0.2,1-0.3,2-0.4,3c-0.2,0.8-0.4,1.5-0.6,2.3c-0.2,0.1-0.4,0.3-0.4,0.5
			c0,0.2-0.1,0.3-0.1,0.5c-0.1,0.9-0.3,1.8-0.2,2.7c-1.6,3.7-1.6,8.3-2.5,12.2c-1.3,5.5-1.6,11-2.2,16.5c-0.1,1.2-0.3,2.4-0.5,3.6
			c-1.1,3.9-1.4,8.1-2.3,12c-1.1,5.1-2.3,10.2-3.5,15.2c-1.2,4.8-2,9.7-3.3,14.5c-0.6,2.1-0.5,4.1,1.5,4.1c0.1,0.3,0.3,0.6,0.6,0.6
			c2.4,0.1,5.3-0.5,7.3-1.9c0,0.1,0.1,0.1,0.2,0.2c0.3,0.1,0.8-0.2,0.9-0.5c0.2-0.3,0.4-0.7,0.6-1c0.1-0.1,0.1-0.3,0.1-0.4
			c0.8-1.3,1.1-3,0.3-5c-0.1-0.2-0.2-0.3-0.4-0.3c0-0.2,0-0.5,0-0.7c1.4-2,2.5-4.8,3.1-6.8c1.1-3.4,2.5-8,1.8-11.8
			c0-0.3,0.1-0.6,0.1-0.9c0.7-2.3,0.8-4.7,0.7-7c0.2-1.7,0.3-3.5,0.5-5.2c0.4-3.5,0.6-7.1,1-10.6c0.3-2.5,0.7-5.6,0-8.1
			c0.1-1.3,0.3-2.7,0.4-4c0.5-6,1.1-12,1.7-18.1c0.4-3.9,1.8-9.1,0.9-13.1c0.6-3,0.6-6.2,1.2-9.1c0.4-2,0.7-3.9,1-5.8
			c0.3-1.1,0.5-2.2,0.6-3.3c0.2-0.8,0.4-1.6,0.6-2.4C63.1,198.2,63,198,62.8,198z"/>
		<path class="st9" d="M98.3,116.9c-0.2-0.3-0.7,0.3-0.7,0.5c0.4,3.4,2.3,6.3,3.5,9.5c1.2,3.2,1.5,6.6,1.6,10
			c0.2,6.2-0.9,12.6-3.4,18.2C93.7,167.9,80,171.8,67.7,169c-11.8-2.6-20.9-12-23.6-24.2c-1.5-6.8-1.1-14.3,1.2-21
			c0.6-1.5,1.3-3.1,2-4.6c3.4-6.2,9.2-9.8,13.9-15c0.4-0.5,0.2-1.1-0.4-0.7c-3.6,2.7-7.2,5.6-10.3,9c-0.1-0.1-0.2,0-0.3,0
			c-7.9,8.5-11.5,22.3-11.6,33.9c0,7.1,2,13.6,4.8,20.1c0.5,1.2,1.2,2.7,1.9,4.2c0.2,2.9,2.2,6.1,4.8,6.9c0.7,0.6,1.4,1.1,2.2,1.4
			c0.2,0.1,0.4,0,0.7-0.1c0.7,0.6,1.6,1.1,2.5,1.5c-0.4,0.1-1.1,0.9-0.6,1.3c0.1,0.1,0.2,0.1,0.3,0.2c-0.2,0.3-0.3,0.6-0.1,0.8
			c0.8,1.4,0.8,2.8,0.7,4.4c0,0.3,0.1,0.5,0.2,0.5c-0.1,0.4-0.2,0.8,0,1.3c0,0.1,0.2,0,0.2,0c1.9-3.1,6.9-1.3,9.8-0.8
			c2.5,0.4,5.1,0,7.6,0.6c3.2,0.7,2.3,4,3.1,6.4c0.1,0.3,0.4-0.1,0.4-0.2c0.6-1.9,0.7-4-0.3-5.5c0.5-0.3,1-0.9,1-1.3
			c0-0.5,0.2-1,0.4-1.4c0.4-0.7,1-1.4,0.9-2.1c0-0.2-0.2-0.3-0.4-0.3c0-0.1,0-0.1,0-0.2c3.1,0,6.6-2.4,9-4c3.5-2.4,6.4-5.2,8.8-8.8
			c4.7-7,8.1-17.4,7.2-26.2c0.4-2.2,0.6-4.5,0.6-6.7C104.8,131.3,103.3,122.3,98.3,116.9z M66,182.8c-2.4-0.2-4.7-0.5-7-1
			c-0.3-0.1-0.7-0.2-1-0.4c1.7,0.4,3.5,0.7,5,0.9c1.4,0.2,2.7,0.4,4.1,0.7C66.7,182.8,66.3,182.8,66,182.8z"/>
		<path class="st9" d="M89.9,99.3c0-0.1,0.1-0.4-0.1-0.5c0,0-0.1,0-0.1-0.1c0,0,0,0-0.1,0c0.5-0.6,0.9-1.3,0.7-2.1
			c0-0.1-0.2,0-0.3,0c-1.8,2.1-3.2,3.1-6,3.1c-2.2,0-4.3-0.5-6.4-0.8c-3.2-0.5-6.5-0.4-9.7-1c-3.1-0.6-2.9-2.6-4.5-4.6
			c-0.1-0.1-0.2,0.1-0.2,0.2c0,1,0.2,1.9,0.5,2.6c0,0.6-0.1,1.4-0.1,2.2c-0.2,0.2-0.4,0.5-0.4,0.8c-0.1,0.6-0.2,1.1-0.2,1.7
			c0,0,0,0.1,0,0.1c-0.1,0.1-0.1,0.1-0.2,0.2c-0.2,0.3-0.3,0.6-0.5,0.9c0,0.1,0,0.1,0,0.2c0,0-0.1,0-0.1,0.1c0,0,0,0,0,0
			c-0.1,0-0.1,0.1-0.2,0.1c-0.6,0.4-0.8,1.8,0.2,1.3c0.1,0,0.1-0.1,0.2-0.1c1.5-1,4.6,0.2,6.2,0.6c1.8,0.4,3.7,0.9,5.5,1.1
			c3.1,0.3,8.2,1.9,11.6,0.7c0.2,0.2,0.4,0.4,0.7,0.4c0.8,0.1,1.6,0,2.4-0.2c0.6-0.1,1.5-1,1.2-1.7C89.5,102.7,89.5,100.9,89.9,99.3
			z M64.4,100.9c0-0.3,0.1-0.5,0.1-0.8c0.3,0.2,0.6,0.4,0.9,0.6C65.1,100.7,64.8,100.8,64.4,100.9z M87.9,103.6
			c-0.7-0.5-1.1-0.4-1.8-0.3c0.2-0.2,0.4-0.5,0.3-0.6c0.1,0,0.2,0,0.3,0c0,0,0.1,0,0.1,0c0.2,0.1,0.4,0.2,0.6,0.1
			c0.1,0,0.3-0.1,0.4-0.2c0,0.3,0,0.5,0.2,0.7C87.9,103.4,87.9,103.6,87.9,103.6C87.9,103.7,87.9,103.6,87.9,103.6z"/>
		<path class="st9" d="M76.3,199.3C76.3,199.3,76.3,199.3,76.3,199.3c-0.1,0-0.2,0-0.2,0c0-0.1-0.1-0.1-0.2-0.1
			c-0.4-0.2-0.8-0.4-1.2-0.6c-0.3-0.1-0.6,0.1-0.9,0.3c-0.2-0.3-0.5,0.1-0.7,0.3c0-0.1-0.1-0.2-0.2-0.2c-0.8-0.4-1.5-0.7-2.3-1
			c-0.2-0.1-0.4,0-0.6,0.1c-0.1-0.2-0.6,0.1-0.8,0.4c0,0-0.1-0.1-0.1-0.1c-0.6,0-1.2-0.1-1.8-0.2c-0.3-0.1-0.7,0.2-0.8,0.5
			c0,0.1-0.1,0.2-0.1,0.2c0-0.2,0-0.3,0-0.5c0-0.2-0.1-0.3-0.3-0.4c-0.4-0.1-0.9-0.2-1.3-0.3c0,0,0,0-0.1,0
			c-0.2-0.1-0.3-0.1-0.5-0.1c0,0-0.1,0-0.1,0c-0.1,0-0.2,0-0.2,0c-1.7-0.3-3.3-0.6-5-0.2c-0.1,0-0.1,0.1-0.2,0.1
			c-0.1-0.1-0.3-0.1-0.4-0.2c0,0,0,0-0.1,0c0-0.1,0-0.3-0.2-0.3c-0.7-0.2-1.6-0.4-2.3-0.2c-0.1-0.2-0.3-0.2-0.5-0.2
			c-0.1,0-0.2,0.1-0.3,0.1c0,0,0,0,0,0c-0.2-0.1-0.5-0.3-0.8-0.4c-0.3-0.1-0.8,0.3-0.8,0.6c-0.7,6-1.8,11.9-3,17.8
			c-1.2,6-2.2,12.2-4.1,18c-0.1,0.3,0,0.4,0.2,0.4c-0.2,0.3-0.4,0.6-0.5,0.9c-0.1,0.2,0.1,0.2,0.2,0.1c3.8-3.9,5.1,1.6,4.9,4.7
			c-0.2,3.3-1.4,6.3-1.9,9.5c0,0.2,0.2,0.1,0.3,0c1.5-3.4,2.9-8.1,2.4-12.1c0.8-2.4,1.2-4.9,1.6-7.4c0-0.1,0-0.1,0-0.2c0,0,0,0,0,0
			c0,0.1,0.2,0,0.2-0.1c0.6-0.9,0.9-2,1.5-2.9c1.3-2.1,2.3-0.8,2.8,1c0.9,3.6-0.6,7.4,0.3,11c0,0.1,0.2-0.1,0.3-0.1
			c0.6-2.9,0.7-6.1,0.6-9c0-0.6-0.1-1.4-0.2-2.1c0.5-0.3,1-0.9,1-1.2c0-0.2,0.2-2.6,0.6-5.8c0.1-0.3,0.2-0.7,0.3-1
			c0.9-2.3,2.1-0.4,2.4,1c0,0.2,0.1,0.5,0.1,0.7c-0.1,1.3,0,2.5,0.1,3.7c0,0.5,0.1,1,0.2,1.5c0,0.1,0,0.2,0,0.2v0c0,0,0,0,0,0
			c0,0,0,0,0,0.1c-0.1,1-0.3,1.9-0.4,2.9c-0.1,0.3,0.1,0.4,0.4,0.3c-0.3,0.6-0.5,1.4-0.5,2.1c-0.3,0.9-0.5,2.2-0.1,2.9
			c0.1,0.2,0.4-0.1,0.4-0.2c0.2-0.9,0.2-1.9,0.5-2.8c0.1-0.6,0.4-1.5,1.1-1.6c0.6-0.1,0.8,0.4,1,0.8c0.4,1,0.4,2.3,0.4,3.3
			c0,0.6-0.2,1.5,0.2,2c0.1,0.1,0.2-0.1,0.3-0.1c0.6-1.2,0.5-2.8,0.4-4.1c0-0.5-0.1-1.2-0.3-1.8c0,0,0-0.1,0-0.1
			c-0.1-3.9,0.5-8,0.7-12c0,0,0,0,0,0c0.4-0.8,0.5-1.5,0.7-2.4c0.2-1.3,1.8-2.3,2.7-1.3c0.6,0.7,0.7,1.9,0.8,2.7
			c0.3,2.2-0.4,4.6,0.2,6.7c0,0.1,0.1,0.1,0.1,0.1c-0.1,1.1-0.1,2.2,0.1,3.2c0.1,0.3,0.4,0,0.4-0.2c0.8-2.3,0.1-8,3.3-8.6
			c0.3-0.1,0.6-0.4,0.6-0.8c0.4-5.8-0.9-11.6,0.1-17.4C76.6,199.5,76.6,199.3,76.3,199.3z"/>
		<path class="st10" d="M92.5,92.9c-0.9-0.4-2-0.4-3-0.4c-0.8-0.3-1.8-0.1-2.8-0.1c-2.5,0-5-0.5-7.5-0.8c-4.9-0.7-9.7-0.9-14.5-1.9
			c-0.2,0-0.4,0.2-0.5,0.3c-0.4-0.2-0.7-0.4-1.1-0.6c-0.1-0.1-0.4,0.2-0.3,0.4c3,3.8,8.6,3.9,12.9,4.7c3,0.5,6,0.7,9,0.5
			c2.5-0.2,5,0.1,7.4-1C92.4,93.9,93,93.1,92.5,92.9z"/>
		<path class="st11" d="M95.8,123c-0.6-6.7-5-12-10.7-14.7c-3.7-1.7-7.8-2.2-11.8-3.1c-3.4-0.8-6.9-2.1-10.4-0.8
			c-0.1,0-0.3,0.2-0.5,0.5c-1.7,1-3.5,2.6-4.2,3.1c-4.5,3.8-8.1,10.3-8.6,16.4C48.6,138.7,60.9,148.9,74,148
			C86,147.1,96.9,135.9,95.8,123z"/>
		<path class="st10" d="M77.9,198.5c-1.8-6-7.8-5.5-12.8-6c-4-0.3-9.6-1.5-11.3,3.6c0,0,0,0,0,0c-0.1,0.2-0.1,0.4,0.1,0.4
			c5.2,0.5,10.9,1.6,16.2,1.6c1.9,0.4,3.9,0.7,5.9,0.6c0.3,0,0.6-0.3,0.8-0.6c0.1,0.3,0.2,0.5,0.3,0.8
			C77.2,199.4,78,198.8,77.9,198.5z"/>
		<path class="st10" d="M115.2,299.8c-8.4-5.5-15.5-12.7-20.7-21.6c-2.1-3.6-4.1-7.1-6.3-10.5c-1.4-2.3-3.8-6.6-6.7-7
			c-3.7-0.4-3.4,5.1-2.8,8.4c-0.7-1.5-1.5-3-2.3-4.5c-1.3-2.3-4-6.7-6.4-3.4c-1.6,2.1-0.7,5.9-0.3,8.3c0.9,4.5,2.2,9.3,4.3,13.4
			c0.1,0.1,0.2,0.1,0.3-0.1c0.6,1.3,1.2,2.6,1.7,3.8c2,4.6,3.9,9.2,6.3,13.6c1.1,2.1,2.4,4.1,3.7,6.1c0,0,0,0,0,0
			c-0.1,0.1-0.2,0.2-0.1,0.3c0.8,2.1,1.3,4.5,3.3,5.6c2.2,1.2,6.3-4,8.1-4.5c0.5-0.1,1-0.7,0.8-1.2c-1-3.8-4.3-7.3-6.5-10.4
			c-2.2-3.2-4.1-6.9-5.7-10.6c1.9,2.9,4.1,5.2,6.5,7.6c2.9,3.8,6.5,7.1,10.2,9.6c4.4,3,10.3,4,12.8-2.2
			C115.4,300.2,115.4,300,115.2,299.8z"/>
		<path class="st10" d="M73.7,292.8c-0.4-2.3-1.6-10.3-4.9-10.2c-3,0.1-2.6,6.8-2.8,8.7c0,0.2,0.2,0,0.3-0.1c0-0.1,0.1-0.2,0.1-0.3
			c0.1,1.4,0.2,2.8,0.2,4.1c-1.2,3.7-1.1,7.8-2,11.5c-0.9,3.5-3.4,6.6-3.7,10.3c-0.3,3.7,5.6,11.6,9.1,7.9c0.1-0.1,0.2-0.2,0.1-0.4
			c-0.1-0.2-0.2-0.4-0.4-0.5c1.3-1.7,1.5-4.9,1.8-6.7C73.3,309,75.3,301.3,73.7,292.8z"/>
		<path class="st10" d="M65.5,276.4c0-0.1-0.2,0.1-0.2,0.1c-0.1,0.4-0.1,0.8-0.2,1.2c0.1-2.6-0.1-5.2-1-7.1c-1-2-3.5-0.8-4.6,0.4
			c-2.5,2.7-3.3,6.9-3.8,11c0-0.7-0.1-1.3-0.2-1.9c0-0.1,0-0.1,0-0.1c0,0,0,0,0,0c0,0,0,0,0,0c0,0-0.1-0.1-0.1-0.1
			c-0.4-1.4-1.2-2.6-2.5-3.4c-6.6-3.9-10,12-10.9,15.8c0,0.2,0.1,0.2,0.2,0.1c-0.2,1.1-0.4,2.3-0.5,3.4c-1,4.3-2.3,8.5-3.2,12.9
			c-0.4,2.2-0.4,7.1,2.9,5.2c0,0,0,0,0,0c2.7-0.1,5.4,0,7.4-2.2c1.6-1.7,1.9-4.6,2.1-7c0.7,2.9,3.6,5,6.7,5.6
			c3.8,0.7,4.2-3.1,4.8-6.1c-0.1,0.9-0.1,1.7-0.2,2.6c0,0.3,0.4,0,0.4-0.2c1.6-4.9,2.4-10,3-15.1C66.1,286.8,66.4,281.2,65.5,276.4z
			 M64.2,291.1c-0.1,0.8-0.2,1.7-0.3,2.5c0.2-1.6,0.3-3.1,0.4-4.7C64.3,289.6,64.2,290.3,64.2,291.1z"/>
		<path class="st10" d="M35.8,282.3c-4.1,2.7-7.1,6.7-9.9,10.8c-5.7,8.2-11.4,16.5-16.5,25.1c-0.3,0.6,0.2,0.7,0.5,0.4
			c0.1,0.3,0.2,0.6,0.4,0.9c1.8,2.3,6.9,1.2,9.2,0.9c3.9-0.6,8.1-1.8,11.3-4.3c1.1-0.9,3.6-3.7,2.6-5.3c1.5-3.6,2.3-7.5,3.5-11.2
			c1.4-4.4,3.1-8.9,3.5-13.5C40.9,282.2,39.3,280,35.8,282.3z"/>
	</g>
	<g>
		<g>
			<g>
				<path class="st12" d="M80.1,184.4c14.5-3.3,22.3-19.7,24.7-33c2.7-14.8,0.7-33.3-10.9-44.1c-3.8-3.5-9.5-3-14.4-3.6
					c-5.3-0.7-11.7-2.6-17-2.1c-6.1,0.5-12.6,7.6-16,12.2c-4.9,6.7-8,14.7-9.5,22.8c-3.1,17.5,0.9,36.4,17.7,45.2
					c0.3,0.2,1-0.6,0.6-0.8c-11.9-7.8-15.1-25.2-14.4-38.4c0.3-7.4,2.1-14.8,5.4-21.5c2.5-5,7.8-13.4,13.9-14.6
					c2.4-0.5,8.8,0.9,12.2,1.2c3,0.3,6,0.6,9.1,0.9c2,0.2,4.7,0,6.7,0.7c4.5,1.5,8.7,8.3,10.7,12.4c3.1,6.4,4.5,13.6,4.6,20.7
					c0.3,16.9-6.8,35-23.3,41.7C80,184.2,79.9,184.4,80.1,184.4L80.1,184.4z"/>
			</g>
		</g>
		<g>
			<g>
				<path class="st12" d="M54.7,181.7c7.8,1.7,17.2,3,25.1,2.9c0.3,0,0.9-0.7,0.5-0.8c-3.7-1-7.6-1.1-11.4-1.5
					c-4.6-0.5-9.2-1.2-13.8-1.3C54.9,181,54.4,181.6,54.7,181.7L54.7,181.7z"/>
			</g>
		</g>
		<g>
			<g>
				<path class="st12" d="M65.8,103.8c-4.8,0.1-7.4,6.5-8.9,10.2c-3.4,8.6-5.1,17.9-6.2,27c-1.2,9.3-1.6,19-0.2,28.3
					c0.6,3.8,2.2,13.2,7.8,12.7c0.1,0,0.5-0.3,0.3-0.4c-10.1-7.7-7.8-26-6.9-37.1c0.7-8.4,2-16.9,4.4-25c1.2-4,3.8-14.3,9.3-14.7
					C65.8,104.7,66.4,103.8,65.8,103.8L65.8,103.8z"/>
			</g>
		</g>
		<g>
			<g>
				<path class="st12" d="M85.2,107.1c4.3,2.8,5.3,8.3,5.8,13.1c0.9,7.8,0.5,15.9-0.4,23.7c-0.9,8.3-2.5,16.6-5.1,24.6
					c-1.3,4-4,13.9-9.4,14.2c-0.7,0-1.8,1.7-0.8,1.7c5-0.3,7.8-6.4,9.5-10.4c3.6-8.4,5.4-17.6,6.6-26.6c1.2-9.1,2-18.7,0.8-27.8
					c-0.5-3.8-1.6-12.5-6.8-12.9C85.4,106.7,85,107,85.2,107.1L85.2,107.1z"/>
			</g>
		</g>
		<g>
			<g>
				<path class="st12" d="M75.7,104.2c-4,1.6-5.4,8.8-6.3,12.4c-2.3,8.9-3.6,18-4.6,27.1c-1,9.2-1.8,18.6-1.7,27.9
					c0,1.9-0.6,11,2.6,11.4c0.2,0,0.5-0.4,0.3-0.5c-2.6-1.2-1.8-10.8-1.9-12.9c0-7.9,0.5-15.9,1.3-23.8c0.9-8.5,2-17.1,3.9-25.4
					c0.8-3.8,2.1-13.5,6.3-15.3C76.2,104.8,76.4,103.9,75.7,104.2L75.7,104.2z"/>
			</g>
		</g>
		<g>
			<g>
				<path class="st12" d="M75.6,104.8c-3.1,5.1-4.5,11.4-5.6,17.2c-1.2,6.1-2.9,13.1-2.4,19.4c0,0.4,0.5,0,0.6-0.2
					c1.6-6,1.7-12.5,2.9-18.6c1.2-6.1,3.3-11.7,4.9-17.7C76,104.5,75.6,104.7,75.6,104.8L75.6,104.8z"/>
			</g>
		</g>
		<g>
			<g>
				<path class="st12" d="M66,154.9c-1.7,5.4-1.2,12.4-1.1,18.1c0,1.6-0.4,9.6,2.1,10c0.3,0,0.6-0.4,0.5-0.6
					c-1-4.1-1.6-7.9-1.6-12.3c0-4.9,1.1-10.5,0.3-15.3C66.3,154.6,66,154.8,66,154.9L66,154.9z"/>
			</g>
		</g>
		<g>
			<g>
				<path class="st12" d="M52.5,122.7c-3.4,7.7-5,18.7-4,27.1c0,0.2,0.4,0,0.4-0.1c0.8-4,0.8-8.1,1.2-12.1c0.5-5.1,1.7-9.9,2.6-14.9
					C52.7,122.5,52.5,122.6,52.5,122.7L52.5,122.7z"/>
			</g>
		</g>
		<g>
			<g>
				<path class="st12" d="M49.6,169.9c-0.3,2.3,0.7,5.1,1.6,7.2c0.6,1.5,1.9,4.6,3.9,4.5c0.1,0,0.3-0.1,0.3-0.3
					c-0.1-0.9-0.7-1.3-1.2-2c-0.8-1-1.4-2.1-2-3.3c-0.9-2-1.1-4.5-2.2-6.3C49.8,169.5,49.6,169.7,49.6,169.9L49.6,169.9z"/>
			</g>
		</g>
		<g>
			<g>
				<path class="st12" d="M57.4,110c0.8-1.1,1.5-2.3,2.6-3.3c0.9-0.9,2-1.6,3-2.4c0.1-0.1,0.1-0.3-0.1-0.3c-1.5,0.3-2.7,1.3-3.7,2.4
					c-0.9,1-2,2.2-2.1,3.6C57.1,110.2,57.4,110,57.4,110L57.4,110z"/>
			</g>
		</g>
		<g>
			<g>
				<path class="st12" d="M91.3,155.8c-1.7,5.4-3,10.8-5.2,16c-1.1,2.6-2.3,5.2-4,7.4c-1.3,1.8-3.1,3-4.5,4.6
					c-0.1,0.1-0.2,0.4,0,0.4c3.7,1,7-6.4,8.2-8.8c3.1-6,5.2-13,5.9-19.7C91.7,155.5,91.3,155.7,91.3,155.8L91.3,155.8z"/>
			</g>
		</g>
		<g>
			<g>
				<path class="st12" d="M101.7,133.5c-0.2,2.2-0.1,4.5-0.1,6.7c0,1.8-0.6,3.9,0,5.5c0.1,0.2,0.4-0.1,0.5-0.2
					c0.8-1.9,0.7-3.9,0.6-5.9c-0.1-2.1-0.1-4.3-0.8-6.3C101.9,133.3,101.7,133.5,101.7,133.5L101.7,133.5z"/>
			</g>
		</g>
		<g>
			<g>
				<path class="st12" d="M89.8,123.1c0.7-3.3-0.3-7-1.2-10.1c-0.7-2.5-1.1-7.5-4.3-7.8c-0.9-0.1-2.7,1.6-1.8,2.5
					c2.3,2.2,4.4,3.7,5.4,7c0.8,2.8,0.7,5.9,1.6,8.6C89.6,123.5,89.8,123.2,89.8,123.1L89.8,123.1z"/>
			</g>
		</g>
		<g>
			<g>
				<path class="st12" d="M62.2,89.7c1,4.9-0.3,9.9-2.1,14.5c-0.1,0.3,0.1,0.4,0.3,0.2c4.5-3.4,5.2-10.5,2.4-15.2
					C62.6,89,62.2,89.5,62.2,89.7L62.2,89.7z"/>
			</g>
		</g>
		<g>
			<g>
				<path class="st12" d="M92.3,92.8c-2.1,1.8-2.9,4.3-3.2,7c-0.3,2.4-1.4,7.1,1.7,8c0.3,0.1,0.5-0.2,0.6-0.5c0.8-2.4,0-3.7-0.6-6
					c-0.7-3,0.4-5.8,1.8-8.4C92.7,92.6,92.4,92.7,92.3,92.8L92.3,92.8z"/>
			</g>
		</g>
		<g>
			<g>
				<path class="st12" d="M62.6,89.9c5.1,0.8,10.3,1.3,15.4,1.9c4.7,0.5,9.6,1.7,14.3,1.3c0.2,0,0.6-0.4,0.3-0.5
					c-4.1-1.4-8.8-1.3-13.1-1.8c-5.5-0.6-11-1.4-16.5-1.7C62.6,89.1,62,89.9,62.6,89.9L62.6,89.9z"/>
			</g>
		</g>
		<g>
			<g>
				<path class="st12" d="M69.8,92.7c3.1,0.8,6.3,1.1,9.5,1.5c3.7,0.4,7.6,1.2,11.3,1c0.2,0,0.7-0.5,0.4-0.6c-3-1-6.4-1-9.5-1.4
					c-3.8-0.4-7.6-0.9-11.4-0.9C69.9,92.3,69.6,92.7,69.8,92.7L69.8,92.7z"/>
			</g>
		</g>
		<g>
			<g>
				<path class="st12" d="M62.6,100.5c4.3,1.5,9.2,1.5,13.7,2c4.2,0.5,8.8,1.6,13.1,1c0.2,0,0.5-0.4,0.3-0.5
					c-3.5-1.5-8-1.3-11.8-1.7c-4.9-0.5-10-1.6-14.9-1.3C62.7,100,62.3,100.4,62.6,100.5L62.6,100.5z"/>
			</g>
		</g>
		<g>
			<g>
				<path class="st12" d="M78.2,199.1c-0.6-5.1,0.8-10.3,2.1-15.1c0.1-0.3-0.3-0.2-0.4-0.1c-4,3.8-4.6,10.7-2.2,15.6
					C77.7,199.8,78.2,199.3,78.2,199.1L78.2,199.1z"/>
			</g>
		</g>
		<g>
			<g>
				<path class="st12" d="M53.6,196.6c1.9-2,2.5-4.6,2.9-7.2c0.3-2.4,1.6-7-1.3-8.3c-0.2-0.1-0.5,0.2-0.6,0.4
					c-0.8,2.2-0.4,3.5,0.1,5.8c0.8,3.3-0.2,6.2-1.3,9.3C53.3,196.7,53.5,196.7,53.6,196.6L53.6,196.6z"/>
			</g>
		</g>
		<g>
			<g>
				<path class="st12" d="M77.8,198.8c-4-0.7-8-1-12.1-1.5c-3.9-0.5-8.2-1.5-12.1-1.1c-0.2,0-0.6,0.4-0.3,0.5
					c3.3,1.3,7.4,1.2,11,1.5c4.4,0.5,8.7,1.1,13.1,1.3C77.8,199.7,78.4,198.9,77.8,198.8L77.8,198.8z"/>
			</g>
		</g>
		<g>
			<g>
				<path class="st12" d="M72,196.1c-2.5-0.7-5.1-1-7.7-1.3c-3-0.4-6.2-1.1-9.3-0.7c-0.2,0-0.7,0.5-0.4,0.6c2.4,0.9,5.2,0.9,7.8,1.2
					c3.1,0.3,6.2,0.7,9.3,0.6C71.9,196.5,72.2,196.2,72,196.1L72,196.1z"/>
			</g>
		</g>
		<g>
			<g>
				<path class="st12" d="M78.1,188c-3.5-1.4-7.6-1.3-11.3-1.7c-3.4-0.4-7.1-1.4-10.5-0.8c-0.2,0-0.5,0.4-0.3,0.5
					c2.6,1.4,6.4,1.1,9.3,1.5c4.1,0.5,8.4,1.4,12.5,1C77.9,188.4,78.4,188.1,78.1,188L78.1,188z"/>
			</g>
		</g>
		<g>
			<g>
				<path class="st13" d="M63,89.9c6.6-6.4,11.8-14.2,18-21.1c-0.4,0.1-0.9,0.1-1.3,0.2c2,4.1,4,8.2,5.9,12.3
					c2,4.1,4.6,7.8,6.6,11.8c0.1,0.2,0.5-0.1,0.4-0.3c-2-4.1-3.3-8.6-5.3-12.7c-2-4.1-4-8.2-5.9-12.3c-0.3-0.6-1-0.2-1.3,0.2
					c-6.2,7-12,14.3-17.9,21.5C61.5,90.1,62.4,90.4,63,89.9L63,89.9z"/>
			</g>
		</g>
		<g>
			<g>
				<path class="st13" d="M68.3,90.3c4.8-6.8,8.3-14.6,12.6-21.8c-0.5,0.1-1,0.3-1.5,0.4c1.2,4,2.3,8,3.5,12c1.1,3.9,3,7.6,4.1,11.5
					c0.1,0.2,0.5-0.1,0.4-0.3c-1.2-4.1-1.6-8.4-2.8-12.5c-1.2-4-2.3-8-3.5-12c-0.2-0.7-1.3,0.1-1.5,0.4c-4.3,7.2-8.4,14.6-12.4,22
					C66.7,91,68,90.8,68.3,90.3L68.3,90.3z"/>
			</g>
		</g>
		<g>
			<g>
				<path class="st13" d="M81.7,52.9c-1,3.1-1.1,6.4-1.7,9.6c-0.4,2.4-1.2,4.6-0.2,6.9c0.2,0.4,0.7-0.1,0.8-0.3
					c1.2-2.5,1.2-4.6,1.3-7.3c0.1-3,0.8-6.1,0.2-9.1C82.1,52.4,81.8,52.7,81.7,52.9L81.7,52.9z"/>
			</g>
		</g>
		<g>
			<g>
				<path class="st12" d="M53.5,196.1c-4.2,21.8-8.5,43.4-16,64.4c-3.7,10.4-8.1,20.6-13.1,30.5c-2.3,4.6-4.8,9-7.3,13.5
					c-1.7,2.9-3.5,5.8-5.3,8.7c-0.8,1.2-2.9,3.5-3.1,4.9c-1,6.7,18.9,1.7,21.7,0c5.2-3.2,5.6-10.4,7.1-15.7
					c3-10.7,5.8-21.4,8.4-32.2c5.7-23.8,11.8-48.6,12-73.2c0-0.4-0.6,0-0.6,0.2c-2.8,19.3-5.4,38.6-9.4,57.7
					c-4,19.3-9,38.6-14.7,57.5c-2,6.5-10.5,7.4-16.4,7.4c-1.4,0-4.8,0.2-5.9-0.9c-1.5-1.6,4.6-9.4,5.8-11.4
					c9.4-15.7,17.2-32.4,23.2-49.6c6.9-19.8,12.1-40.8,14.1-61.8C53.9,195.7,53.5,196,53.5,196.1L53.5,196.1z"/>
			</g>
		</g>
		<g>
			<g>
				<path class="st12" d="M72.9,199.2c-1.7,12.2-1.7,24.9-1,37.2c0.7,12.2,2.4,24.5,6.6,36c4.1,11.1,10.7,21.2,19.8,28.7
					c2.9,2.4,7.3,6.9,11.4,5.7c3-0.9,5.6-3.9,7.4-6.3c0.2-0.3,0.6-1.1,0.2-1.4C83.9,276.6,76.5,236.8,77.2,199c0-0.4-0.6,0-0.6,0.3
					c-4.5,37.9,5.4,79.5,38.7,101.9c0.1-0.5,0.1-0.9,0.2-1.4c-1,1.2-2.1,2.7-3.4,3.6c-3.5,2.3-6.5-0.6-9.3-2.7
					c-3.9-2.9-7.4-6.3-10.5-10c-6.7-8.1-11.3-17.8-14.2-27.9c-3-10.4-4.5-21-5-31.8c-0.5-10.7,0.4-21.2,0.3-31.9
					C73.3,198.9,73,199.1,72.9,199.2L72.9,199.2z"/>
			</g>
		</g>
		<g>
			<g>
				<path class="st12" d="M69.1,198.4c-4.7,27-5.2,57.4,3.7,83.6c2.4,7,5.6,13.8,9.1,20.3c1.7,3.1,3.4,7,5.7,9.6
					c0.9,1,0.7,1.3,2.1,1.3c2.5,0.1,6.1-3.2,7.7-4.9c2.5-2.7,1-3.5-1-6.5c-9.5-14.1-17.2-29.5-21.1-46.1c-0.1-0.4-0.8,0.1-0.7,0.4
					c2.3,14.9,8.1,28.3,16.1,41c0.9,1.4,1.8,2.8,2.7,4.2c0.9,1.3,3,3.3,3.3,4.8c0.3,1.7-3.2,4.6-5.2,5.1c-3.2,0.8-4.1-3.2-5.5-5.5
					c-0.9-1.5-1.7-2.9-2.6-4.4c-2-3.5-3.8-7-5.5-10.6c-13.5-29.2-11.5-61.3-8.2-92.5C69.8,197.8,69.2,198.1,69.1,198.4L69.1,198.4z"
					/>
			</g>
		</g>
		<g>
			<g>
				<path class="st12" d="M66.8,197.7c-7.5,27.2-2.9,55.3-0.9,82.8c0.8,10.5,0,20.9-3.3,31c-1.6,5-3.7,8.5,1,12.4
					c1.8,1.6,4.7,3.4,6.6,1.2c2.1-2.5,2.6-8.5,3.1-11.6c0.9-4.7,1.4-9.5,1.7-14.3c0.7-10.7-0.5-20.2-4.4-30.1
					c-0.2-0.5-1,0.3-0.9,0.7c3.6,16.2,5.4,34,1.2,50.1c-1.1,4.1-2.7,6.3-6.5,3.1c-3.1-2.6-3.1-5.1-1.9-8.8c1.5-4.5,2.9-9,3.7-13.7
					c3-18-1.7-36.2-2.4-54.2c-0.3-7.1-0.2-14.2,0.2-21.3c0.6-9.3,2.5-18.4,3.2-27.6C67.1,197.4,66.8,197.6,66.8,197.7L66.8,197.7z"
					/>
			</g>
		</g>
		<g>
			<g>
				<path class="st12" d="M63,197.7c-3.6,13.9-4.7,28.7-5.8,42.9c-0.7,9.1-1.3,18.1-1.9,27.2c-0.6,9.4-0.8,19.2-3.4,28.4
					c-1.6,5.6-5.9,9.4,0,13.3c2.1,1.4,6.6,4.2,9.2,2.6c1.8-1.1,2-4.4,2.5-6.1c1.2-4.4,2.1-8.8,2.8-13.3c1.1-7.7,1.6-15.5-0.7-23
					c-0.1-0.3-0.6,0.2-0.6,0.4c0.2,7.7,0.2,15.5-0.9,23.2c-0.6,4-1.4,7.9-2.5,11.8c-0.2,0.8-0.9,4.3-1.5,4.8c0.8,0.3,0.6,0.3-0.5,0
					c-0.2-0.1-0.5-0.2-0.7-0.3c-2-0.7-4.5-2-5.8-3.7c-1.9-2.4-0.1-4.4,0.9-7c2.5-6.9,3.4-14.2,3.8-21.6c0.9-14.5,1.4-28.9,2.2-43.4
					c0.6-12.1,0.9-24.4,3.9-36.3C64,196.9,63.1,197.4,63,197.7L63,197.7z"/>
			</g>
		</g>
		<g>
			<g>
				<path class="st12" d="M49,252.1c-1.5,11.8-3.5,23.4-6.2,35c-1.8,7.8-4.2,15.6-5.5,23.6c-0.8,5.2,4.2,4.8,8.3,3.8
					c2.1-0.5,4.1-1.1,5.1-3.1c0.8-1.6,1.2-5,0.3-6.7c-0.3-0.4-0.9,0.1-0.9,0.5c-0.5,1.8,0.3,4.3-0.7,5.8c-1.4,2.3-9.7,4.1-10.8,1.1
					c-0.4-1.3,0.6-4,0.9-5.3c0.6-2.6,1.2-5.2,1.8-7.8c3.6-15.3,7.6-31.1,8-46.9C49.2,251.8,49,252,49,252.1L49,252.1z"/>
			</g>
		</g>
		<g>
			<g>
				<path class="st12" d="M81.9,260.6c1.5,5.4,3.8,10.8,6.4,15.7c2,3.7,4.4,8.7,8.4,10.4c0.1,0.1,0.4-0.2,0.3-0.3
					c-1.8-4.4-5.8-8.2-8.1-12.5c-2.3-4.4-4.1-9.2-6.7-13.5C82.1,260.2,81.9,260.4,81.9,260.6L81.9,260.6z"/>
			</g>
		</g>
		<g>
			<g>
				<path class="st12" d="M98.2,288.6c0.8,1.1,1.7,2.1,3,2.5c0.1,0,0.4-0.2,0.3-0.3c-0.6-1.2-1.6-2-2.6-2.9
					C98.6,287.7,98,288.3,98.2,288.6L98.2,288.6z"/>
			</g>
		</g>
		<g>
			<g>
				<path class="st12" d="M40.7,274.8c-2.2,5.3-3.8,11.1-5.2,16.7c-0.1,0.3,0.3,0.1,0.4,0c2.4-5.2,4-11,5.1-16.6
					C41,274.6,40.8,274.7,40.7,274.8L40.7,274.8z"/>
			</g>
		</g>
		<g>
			<g>
				<path class="st12" d="M34.4,295c-0.4,0.7-0.8,1.4-1,2.2c-0.2,0.6-0.2,1.3-0.3,2c0,0.3,0.4,0,0.4-0.1c0.4-0.7,0.8-1.4,1.1-2.2
					c0.2-0.7,0.3-1.3,0.3-2C34.9,294.5,34.4,294.9,34.4,295L34.4,295z"/>
			</g>
		</g>
		<g>
			<g>
				<path class="st12" d="M56.5,236.3c-0.6,4.3-1.1,8.7-1.5,13c0,0.1,0.2,0,0.2-0.1c0.9-4.2,2-8.7,1.5-13
					C56.8,236,56.5,236.2,56.5,236.3L56.5,236.3z"/>
			</g>
		</g>
		<g>
			<g>
				<path class="st12" d="M71.6,296c-0.5,5.2-1,10.4-2.3,15.5c-0.8,3.2-2.6,6.6-1.7,10c0.1,0.3,0.5,0,0.5-0.1
					c2.2-3.6,2.4-7.7,3-11.9c0.7-4.5,1.2-9.1,0.8-13.7C72,295.5,71.6,295.9,71.6,296L71.6,296z"/>
			</g>
		</g>
		<g>
			<g>
				<path class="st12" d="M63.4,271.8c-0.2,2.3-0.1,4.6-0.1,6.9c0,0.3,0.3,0,0.4-0.1c0.8-2.4,0.6-4.6,0.3-7
					C63.9,271.2,63.4,271.6,63.4,271.8L63.4,271.8z"/>
			</g>
		</g>
	</g>
	<g>
		<g>
			<path class="st13" d="M192.2,0.8c-13.8,7.5-27.6,14.4-42.4,19.6c-14.5,5.1-29.5,8.8-44.7,11.6c-31.1,5.7-62.3,7.5-93.8,9.5
				c-0.4,0-1.1,0.9-0.5,1c7.7,1.1,15.4,2.3,23.2,2.1c7.7-0.2,15.4-0.6,23-1.2c16-1.3,32.2-3.4,47.9-7.3
				c30.1-7.4,61.3-17.9,87.3-34.9C192.5,1,192.5,0.7,192.2,0.8L192.2,0.8z"/>
		</g>
	</g>
	<g>
		<g>
			<path class="st13" d="M163,4.8c-11.3,8.9-22.2,17.6-34.6,25c-13.1,7.9-27,14.6-41.2,20.3c-14,5.6-28.3,10.1-42.9,13.6
				c-14.2,3.4-28.7,5.7-43,9c-0.4,0.1-1.1,1.1-0.4,1.1c14.7,0,29.2-3.4,43.4-7.2c14.6-3.9,29-8.8,42.9-14.6
				c13.9-5.8,27.4-12.5,40.2-20.3C140,24.1,152.8,15.5,163.1,5C163.2,4.9,163.2,4.7,163,4.8L163,4.8z"/>
		</g>
	</g>
</g>
<g>
	<g>
		<path class="st2" d="M546.4,77.8c-0.1,0-0.1,0-0.2,0c-0.1-0.1-0.2-0.1-0.3,0c0-0.3-0.1-0.5-0.5-0.5c-0.1,0-0.4-0.1-0.5-0.1
			c-0.2,0-0.3,0-0.5,0.1c-1.4-2-4.7-2.8-6.7-3.9c-3.8-2-7.4-4.3-11-6.6c-4.9-3.2-10.1-5.9-14.4-9.8c-1.9-2-3.8-4-5.6-6.1
			c0-0.2-0.1-0.3-0.1-0.5c-0.1-0.3-0.5,0.1-0.5,0.3c0.5,4,0.8,8.1,0.6,12.2c-1,4.7-1.8,9.4-2.6,14.1c-0.6,2.3-1.2,4.6-1.2,6.9
			c-0.1,0.1-0.1,0.2-0.2,0.2c0,0,0,0,0,0c0,0,0,0,0,0.1c-0.5,0.7-1.1,1.6-0.7,2.4c-1.6,3-2.8,6.4-2.9,9.7c0,0.5,0.3,0.4,0.7,0.2
			c-0.2,0.4-0.3,0.7,0.1,0.9c6.7,2.6,12.2,7.5,18,11.6c2.7,1.9,5.1,4.1,7.5,6.3c2.3,2.1,4.8,5.2,7.8,6.1c0,0,0.1,0,0.1,0
			c0.1,0.2,0.2,0.4,0.3,0.6c0,0,0,0.1,0,0.1c0.1,0.2,0.1,0.4,0.2,0.6c0,0.1,0,0.1,0,0.2c0,0.1,0.1,0.2,0.1,0.3
			c0.3,0.8,0.7,1.4,1.2,2.1c0.3,0.5,1.2-0.5,1-0.9c-0.2-0.9-0.5-1.9-0.6-2.8c0.9-2.9,0.6-6.3,1.1-9.2c0.4-2.7,1-5.3,1.6-7.9
			c0,0,0.1-0.1,0.1-0.1c1.1-3.1,1.9-6.2,2.8-9.4c1-3.4,2.4-6.7,3.2-10.1c0,0,0-0.1,0-0.1c0.5-1.2,0.9-2.4,1.2-3.6
			c0.1-0.2,0.2-0.4,0.2-0.6c0.2-0.6,0.5-1.3,0.7-2c0.1-0.1,0.2-0.2,0.3-0.3C546.5,78.2,546.7,77.8,546.4,77.8z"/>
		<path class="st1" d="M560.7,110.6C560.7,110.6,560.7,110.5,560.7,110.6c0.2-0.2,0.3-0.7,0-0.8c0,0-0.1,0-0.1,0c0,0,0-0.1,0-0.1
			c-0.6-2-1.9-4.1-3-5.9c-0.3-0.9-0.6-1.7-0.9-2.6c-0.5-1.8-0.9-3.7-1.4-5.5c0.1-2.9-0.1-5.7-0.1-8.6c0-2.2,0.2-4.5,0.5-6.7
			c0.2-1.1,0.6-2.2,0.8-3.3c0.1-0.1,0.1-0.1,0.1-0.2c0.1-0.2,0.3-0.4,0.4-0.7c0.2-0.3,0.4-0.6,0.6-1c0.2-0.3,0.2-0.5,0.1-0.6
			c0.1-0.4-0.2-0.5-0.5-0.5c0-0.1-0.1-0.1-0.2-0.2l0-0.1c0.1-0.3,0-0.5-0.4-0.6c-2-0.3-3.7-1.3-5.6-2c-0.1,0-0.2,0-0.4,0
			c-0.9-1.1-2.1-1.8-3.3-2.8c-1.2-1-2.5-2-3.7-2.9c-1-1.1-1.8-2.3-2.7-3.5c-0.1-0.1-0.3,0.1-0.2,0.2c0,0,0,0.1,0,0.1
			c-2.5-3.7-5-8.3-5.7-12.7c0.1-0.1,0.1-0.2,0.1-0.3c0-0.2,0-0.3-0.1-0.4c0.1-0.2,0.2-0.4,0.3-0.6c0,0,0-0.1,0-0.1c0,0,0,0,0,0
			c0-0.1,0.1-0.2,0.1-0.3c0.2-0.7-0.2-0.8-0.6-0.7c-0.1-0.3-0.3-0.4-0.6-0.4c-5.2-0.1-11.3-2.2-16.1,0.4c-2.3-0.1-4.6-0.4-6.8-0.5
			c-0.2,0-0.5,0.3-0.4,0.5c-2-0.2-4-0.5-6-0.4c-0.3,0-1,0.6-1,1c-3,2.3-5.9,4.9-8.7,7.4c-2.6,2.3-6.5,5.2-7.6,8.6
			c-1.1,0.9-2.2,1.8-3.4,2.6c-0.1,0.1-0.2,0.1-0.3,0.2c-0.2,0.1-0.3,0.3-0.4,0.5c-0.5,0.3-0.9,0.9-0.6,1.4c3.7,5.5,4.9,11.4,5.1,18
			c0.1,2.7,0.5,6.9-0.2,10.3c-0.3,0.6-0.6,1.1-0.8,1.7c-0.1,0.1-0.2,0.2-0.2,0.2c-0.1,0.2-0.1,0.3-0.2,0.5c-0.3,0.5-0.6,1.1-0.6,1.4
			c0,0,0,0,0,0.1c-0.3,0.2-0.5,0.5-0.8,0.8c-0.3,0.3-0.4,0.7-0.4,0.9c-0.1,0.5,0.1,0.8,0.5,0.8c0,0,0.1,0.1,0.2,0.1
			c4.2,1.1,7.4,3.5,10.2,6.7c1.4,1.6,2.6,3.4,3.7,5.2c0.6,1,1,2,1.8,2.8c0.3,0.5,0.6,1,0.8,1.4c1.9,3.9,3.8,7.7,5.3,11.8
			c0,0.1,0,0.2,0.1,0.3c0,0,0,0,0,0c0.2,0.4,0.6,0.3,1,0c5.2-0.2,10.3-1.1,15.4-1.6c3.8,0.2,7.5-0.7,11.3-0.3c0.2,0,0.4-0.1,0.5-0.2
			c0,0,0,0,0,0c0.5,0.2,1.1-0.2,1.5-0.7c0.2,0.3,0.6,0.2,1-0.1c0,0,0,0,0.1,0c0.1,0,0.2-0.1,0.3-0.1c0.7-0.4,1.4-0.8,2-1.3
			c1.8-0.6,4.2-3.2,5-3.9c1.3-1.1,2.6-2.3,3.9-3.5c1.7-1.2,3.4-2.5,4.9-3.8c1-0.7,2-1.5,3-2.3c0.8-0.6,1.6-1.2,2.3-1.9
			c0.2-0.1,0.5-0.2,0.7-0.3c0,0,0,0,0,0C560.5,111.3,560.8,110.7,560.7,110.6z M536.6,120.8c-0.2,2-0.2,3.9,0,5.9
			c-3-4.2-6.4-7.4-10.5-10.5c-4.7-3.6-9.3-7.7-14.8-10.2c-0.4-0.3-0.8-0.5-1.2-0.8c-4-2.6-7.9-5.2-11.9-7.8
			c-0.1-0.1-0.1-0.2-0.2-0.3c0.2-0.1,0.3-0.2,0.4-0.3c0-0.1,0.1-0.1,0.1-0.2c0.1-0.1,0.2-0.3,0.3-0.4c0.1-0.2,0.2-0.5,0-0.6
			c0,0,0,0-0.1-0.1c0,0-0.1,0-0.1,0c0-0.2,0.1-0.4,0.1-0.6c0.7-1.5,1.1-3.2,1.4-4.9c1.1-2.1,1.6-4.5,2.1-6.8
			c1.9-4.9,3.3-10.8,3.2-16.1c0.4-2.4,0.7-4.7,0.7-7.1c0.3-3.6,0.3-7.2-0.3-10.7c1.8,2.2,3.6,4.3,5.7,6.1c0,0.1,0,0.2,0.1,0.3
			c1.1,1,2.2,2,3.4,2.8c4.4,3.5,8.9,6.8,13.8,9.5c3.3,1.8,6.8,3.3,10.1,4.9c2.6,1.3,5.6,3.6,8.5,4.3c-1.2,2.4-1.8,5.5-2.7,8
			c-1.7,4.5-2.8,9.2-4.2,13.8C538.5,106,536.9,113.4,536.6,120.8z"/>
		<path class="st14" d="M556.3,122c-0.2-1.2-0.6-2.5-1.1-3.6c0-0.3-0.1-0.5-0.3-0.6c0-0.1-0.1-0.1-0.1-0.2c0-0.1,0-0.1-0.1-0.2
			c0.2-0.1,0.4-0.3,0.4-0.6c0-0.1,0-0.1,0-0.2c0-0.4-0.4-0.2-0.6-0.1c-3.5,2.3-6.7,5-9.9,7.7c-0.9,0.8-1.9,1.6-2.8,2.4
			c-0.9,0.7-1.8,1.4-2.7,2.1c-0.2,0.1-0.4,0.3-0.6,0.5c-2.3,0.3-4.6,0.7-6.9,0.9c-3.6,0.4-7.3,0.6-10.9,1.3c-0.4-0.2-0.9-0.2-1.4,0
			c-0.3,0.1-1,0.6-0.8,1c0.7,1.3,1.4,2.6,1.4,4.1c0,0.1,0.1,0.3,0.2,0.3c0.8,0.2,1.4,0.3,2,0c1.7,0.9,3.3,1,5.2,0.9
			c2.1,0.2,4.4,0.1,6.6-0.2c1.2,0,2.3,0,3.5,0c-0.2,0.5-0.1,0.9,0.6,1c1.3,0.1,2.2,0.2,3.1-0.3c0.3,0.2,0.8,0.2,1.3-0.3
			c2.6-2.8,5.4-5.5,8-8.3c2-2.1,4.2-4.3,5.5-6.9C556.2,122.6,556.4,122.3,556.3,122z"/>
		<path class="st8" d="M527,45.6c-1.3-1.2-2.4-2.6-3-4.2c0-0.2-0.1-0.3-0.1-0.5c0-0.2,0-0.4-0.1-0.7c-0.1-0.4-0.5-0.4-0.8-0.3
			c-0.2-0.1-0.6-0.1-1.2-0.1c-2.6-0.2-5.2-0.8-7.9-1.3c-3.5-0.6-7.3-1.5-10.8-0.6c-0.5-0.6-1.7,0.5-1.9,1.3
			c-4.7,3.9-9.9,8.4-12.7,13.8c-0.1,0.2-0.1,0.4-0.1,0.5c-0.1,0.1-0.1,0.1-0.2,0.2c-0.3,0.2-0.9,1-0.3,1.2c0.4,0.1,1,4.1,1.2,4.7
			c0.2,0.7,1.1,0.1,1.4-0.2c4.4-3.8,8.4-8.1,12.4-12.4c0.6-0.3,1.2-0.7,1.8-1c0.2-0.1,0.4-0.2,0.5-0.4c-0.1,0.4,0.1,0.7,0.6,0.6
			c5.2-0.4,10.9,1.1,16-0.2c0,0,0,0,0,0.1c-0.1,0.3,0.1,0.5,0.4,0.6c1.3,0.2,2.6,0.1,3.9,0.2C526.6,46.8,527.5,46,527,45.6z"/>
		<path class="st2" d="M535.2,171.1c-0.1-6.5-0.6-13.1-2.2-19.4c0.1-4.5-0.7-9.1-2.8-12.5c-0.2-0.3-0.5-0.3-0.8-0.2
			c-2-0.5-4.1-0.5-6.1-0.8c-0.1,0-0.2,0-0.3,0.1c-0.1-0.2-0.1-0.5-0.2-0.7c0,0,0,0,0,0c-0.1-0.4-0.8,0.1-0.8,0.5
			c0,5.1,2.6,9.9,3.1,15c0.6,6.1,0.2,12.5,0.1,18.6c0,1-0.1,2-0.1,3c0,0-0.1,0.1-0.1,0.1c-2.6,7.8-2.7,16.4-4.5,24.5
			c-1.4,6.5-4.2,12.5-6.6,18.7c-0.4,0.4-0.6,1-0.9,1.4c-0.4,0.8-1,1.9-0.7,2.9c0,0.1-0.1,0.2-0.1,0.4c-0.2,0.2-0.4,0.5-0.4,0.8
			c0,0,0,0.1,0,0.1c0,0.3,0,0.5,0.1,0.7c-0.7,5.5,0.7,12.6,4,17.1c0.4,0.5,1.3-0.4,1.5-0.7c0.4-1,0.6-2,0.7-3c0.5-0.9,0.8-2,1.2-3
			c2.4-2.9,3.3-7.4,4.5-10.9c1.2-3.3,2.3-6.7,2.7-10.2c1.1-3,2.1-6.1,2.9-9.2c1-3.5,2.3-7.7,2.9-11.8
			C535.1,185.5,535.3,178.6,535.2,171.1z"/>
		<path class="st2" d="M555,222.4c-0.5-1-1-2.1-1.5-3.2c-0.2-0.7-0.6-1.3-0.8-1.8c0.3-3.9-1.5-8.3-2-12.1
			c-0.7-6.1-1.4-12.2-1.7-18.4c-0.6-11.4,0.8-23.4-1.6-34.7c0.3-5.2-1-10.4-1.9-15.5c-0.1-0.3-0.4-0.2-0.6,0
			c-0.2,0.1-0.3,0.3-0.4,0.4c0,0,0,0.1,0,0.1c0,0,0,0,0,0c0,0,0,0,0,0c0,0,0,0.1,0,0.1c0,0,0,0,0,0c0,0,0,0,0,0.1
			c-0.2-0.1-0.5,0-0.8,0.3c-0.1,0.1-0.3,0.3-0.4,0.4c-0.2,0.2-0.3,0.4-0.5,0.6c-0.6,0.4-1.5,0.4-2.2,0.3c-0.2,0-0.4,0-0.6,0.1
			c0,0,0,0,0-0.1c0-0.1-0.2-0.1-0.3-0.1c0,0,0,0,0,0c-0.2,0.1-0.7,0.5-0.4,0.7c0,0,0,0,0,0.1c-0.1,0.2-0.1,0.4,0,0.5l0,0
			c0.1,0.3,0.3,0.5,0.4,0.8c0.1,0.3,0.2,0.6,0.2,0.7c0.8,1.7,0.6,4.3,0.9,6.2c0.7,4.3,1.6,8.5,1.8,12.8c0.4,7.3-1.7,14.8-1,21.9
			c-0.3,0.3-0.5,0.7-0.4,1c0.1,0.3,0.1,0.6,0.2,0.9c0,0.1,0,0.2,0.1,0.3c0.1,0.3,0.1,0.6,0.1,0.9c0,0.2,0,0.4-0.1,0.6
			c-0.1,0.2-0.3,0.4-0.3,0.5c-0.1,1-0.1,1.8,0,2.8c-0.1,0.2-0.2,0.4-0.2,0.6c0,2,0.2,4,0.4,6c0.1,3.5,0,7.1,0.4,10.6
			c0.6,5.3,1.4,10.6,2.6,15.8c0.1,0.4,0.5,0.4,0.8,0.3c1.5-0.2,1.7-0.1,2.9-0.7c0.1,0,0.2-0.1,0.3-0.2c0,0,0,0,0.1,0.1
			c0,0.2,0.2,0.3,0.6,0.4c0.5,0.1,1,0.1,1.6,0.1c0.2,0,0.4,0,0.6,0c0,0,0,0,0,0c0.2,0,0.3-0.1,0.5-0.1c0.4,0,0.7-0.1,1-0.2
			c0.3,0.4,0.6,0.8,1,1.3C554.1,224.1,555.3,223,555,222.4z"/>
		<path class="st2" d="M595.6,166.7c-0.7-1.7-2.2-2.3-3.8-3.1c-0.1-0.1-0.3-0.1-0.4,0c-2.1-1.6-4.2-3.1-6.3-4.7
			c-2.1-2-4.2-3.9-6.4-5.7c-0.1-0.1-0.3-0.1-0.4-0.1c-2.4-2.9-5.2-5.6-7.6-8.5c-2.6-3.1-5-6.4-7.6-9.6c-0.6-1-1.3-1.9-1.8-2.8
			c0,0-0.1-0.1-0.1-0.2c-1.3-2.5-2.2-5.1-3.3-7.7c0-0.1-0.1-0.1-0.2-0.2c0.1-0.2,0-0.4-0.1-0.4c0,0,0-0.1,0-0.1c0,0,0-0.1,0-0.1
			c0.1-0.2,0-0.4-0.3-0.4h-0.2c-0.4,0-0.9,0.4-0.8,0.8c0,0.1,0,0.1,0,0.2c-0.5,1-1.7,1.4-2,2.6c-0.2,0.6,0.2,0.8,0.5,1.3
			c0,0.1,0,0.3,0,0.4c1.8,4,4.1,7.8,6.5,11.5c1,1.5,2,3,3,4.6c0.4,0.7,0.9,1.5,1.4,2.2c0.3,0.4,0.5,0.9,0.8,1.3c0,0,0,0,0,0
			c0.6,3.4,3.1,6.6,5.2,9.3c2.4,3,5,5.9,7.9,8.5c0.1,0.1,0.2,0.1,0.3,0.2c0,0.1,0,0.2,0.1,0.3c0.2,0.2,0.4,0.5,0.7,0.7
			c1.1,1.4,2.3,2.9,3.7,3.9c0.9,0.9,2,1.5,3.4,1.2c0,0,0.1,0,0.1,0c0.1,0,0.2,0,0.3-0.1c0.4-0.1,0.9-0.3,1.3-0.6
			c0.1,0,0.2-0.1,0.2-0.2c0.7-0.2,1.3-0.2,2-0.4c0.2-0.1,0.5-0.5,0.6-0.8c0.8-0.4,1.6-0.9,2.4-1.4c0.2-0.1,0.4-0.5,0.5-0.9
			C595.5,167.4,595.7,167.1,595.6,166.7z"/>
		<path class="st15" d="M591,185c-0.3-1.1-0.6-2.1-0.9-3.1c0.1-0.2,0.1-0.4,0.1-0.6c-0.3-1-0.6-2-1-3c0-0.1-0.1-0.3-0.1-0.4
			c0-0.1-0.1-0.2-0.2-0.3c-0.2-0.4-0.4-0.8-0.6-1.2c-0.1-0.2-0.3-0.3-0.4-0.3c0.1-1,0-1.8-0.7-2.8c-0.2-0.2-0.5-0.2-0.8-0.1
			c-0.2,0-2.8-3.3-3.1-3.6c-1.5-1.5-3-3.2-4.5-4.8c-3.4-3.7-6.4-7.8-10.1-11.2c-0.1-0.1-0.3,0.1-0.3,0.2c1,1.7,2.2,3.3,3.5,4.8
			c-0.2,0-0.5,0.3-0.4,0.5c1.3,2.3,2.1,5.1,3.2,7.5c-0.1,0.2-0.1,0.4,0,0.5c1.2,3.8,2.3,7.7,3.8,11.4c0,0-0.1,0-0.1,0l0,0
			c-0.1,0.1-0.3,0.3-0.3,0.4c0,0,0,0.1,0.1,0.1c0.1,0.2,0.3,0,0.4-0.1c-0.2,0.5-0.5,0-0.2,0.8c0.2,0.6,0.4,1.3,0.6,1.9
			c0.1,0.3,0.2,0.5,0.3,0.8c0.6,2.5,1.4,5,1.7,7.6c0,0.3,0.3,0.4,0.6,0.4c1.1-0.3,2.4-0.7,3.4-1.5c0.1,0.2,0.4,0.3,0.8,0.1
			c1.1-0.5,2.8-1.1,3.6-2.2c0.3-0.1,0.6-0.3,1-0.4C590.6,186.3,591.1,185.5,591,185z"/>
		<path class="st16" d="M571.5,208.8c0-0.1,0-0.2,0-0.3c0-0.2-0.1-0.3-0.2-0.4c0.1-0.1,0.1-0.3,0.1-0.4c-0.1-0.6-0.5-1-0.9-1.5
			c0,0,0,0,0,0c0,0,0,0,0,0c0,0,0,0,0,0c0,0,0,0,0,0c-0.2-0.4-0.5-0.8-0.7-1.1c-0.1-0.1-0.1-0.2-0.2-0.2c0-0.2,0-0.4,0-0.6
			c0-1-0.1-2-0.3-3c-0.1-0.8-0.2-1.6-0.3-2.4c0-0.2,0-0.4,0-0.7c0-3-0.4-6.1-0.8-9.1c-0.8-5.7-2.1-11.3-3.5-16.9
			c-1.4-5.6-2.5-11.3-4.3-16.7c-1.5-4.7-3.2-10.7-6.6-14.4c-0.5-1.9-1.2-3.6-2.4-5c-0.1-0.2-0.5,0.2-0.4,0.4
			c2.4,5.1,2.6,10.6,3.2,16.2c0.9,7.5,2,14.9,3.1,22.3c-0.2,0.8-0.1,1.8-0.1,2.5c0,2.6,0.3,5.2,0.6,7.8c0.4,3.5,1,7.1,1.4,10.6
			c0.3,2.2,0.3,6.3,1.8,8.6c0.7,5,1.7,10.1,3.7,14.6c0.2,0.4,0.6,0.4,1,0.2c0.1,0,0.2,0,0.3,0c0.1,0,0.2-0.1,0.3-0.2
			c0.4-0.1,0.8-0.3,1-0.5c0.4-0.4,0.7-0.9,1-1.4c0.1,0,0.3-0.1,0.4-0.2c1-1,1.5-2.7,2.3-3.8c0.4-0.5,0.1-0.8-0.3-0.7c0,0,0,0,0-0.1
			c0-0.1,0-0.2,0-0.3c0.2-0.4,0.3-0.8,0.5-1.2c0.1-0.1,0.1-0.1,0.1-0.2c0.1-0.3,0.2-0.6,0.4-1C571.7,209.2,571.7,208.9,571.5,208.8z
			"/>
		<path class="st5" d="M582.8,202.1c-0.1-0.2-0.2-0.3-0.4-0.4c0.5-3-0.9-6.3-1.6-9.3c-1-3.8-2.2-7.4-3.1-11.2
			c-1.6-6.5-3.3-13.7-6.9-19.5c-0.6-1.6-1.2-3.2-1.8-4.8c-2.2-5.9-4.5-11.6-7.6-17.1c-1.4-2.4-2.7-4.6-4.3-6.9
			c-0.2-0.3-0.5-0.6-0.7-0.9c-0.6-1.7-1.3-3.4-2.1-5c-0.3-0.5-1,0.2-1,0.6c0,0,0,0,0,0c0,0.1-0.1,0.2-0.1,0.2
			c-0.1,0.1-0.1,0.1-0.2,0.2c0,0.1-0.1,0.1-0.1,0.2c-0.5,0.3-0.9,0.8-1.3,1.2c-1,1-2.1,1.9-3.1,3c-0.5,0.5-1.6,1.7-2.3,2.8
			c-0.2,0.1-0.4,0.3-0.5,0.4c-0.4,0.6,0,1.6,0.4,2.5c3.2,15.2,2.8,30.7,3.2,46.2c0.1,7.3,0.6,14.7,1.8,21.9c0.5,3.2,1.2,6.5,2,9.6
			c0.6,2.2,1.1,5,2.2,7.3c-0.9-0.1-1.8,0-2.7,0.2c-0.4,0.1-1.4,1.1-0.6,1.3c0.4,0.1,0.7,0.3,1,0.5c-0.1,0.1-0.2,0.3-0.2,0.5
			c-0.1,0.1-0.2,0.3-0.1,0.7c0.1,0.3,0.5,0.6,0.6,0.8c0.6,0.7,1,1.6,1.4,2.4c1.2,2.4,2.2,4.9,3.9,7.1c0.3,0.3,0.9-0.1,1-0.3
			c0.4-0.5,0.8-0.8,1.2-1.3c0.2,0,0.3,0,0.5-0.1c1.7-0.9,2.9-2.4,3.8-4c0.7-1.3,2-3.6,1.5-5.1c0,0,0,0,0,0c-0.1-0.1-0.2-0.2-0.4-0.2
			c-0.1-0.1-0.1-0.2-0.2-0.3c0.4-3-1.4-6.3-2.3-9.2c-1.2-3.7-2.4-7.5-3.3-11.3c-2-8.3-2.6-16.9-3.4-25.4c-0.7-8.2-1.6-16.5-2.7-24.6
			c-0.4-3.3-1.3-6.5-2.1-9.7c-0.1-1.9-0.3-3.7-0.5-5.6c-0.1-1.2-0.3-2.7-0.7-4.1c0.2,0.3,0.4,0.5,0.5,0.8c2.1,3.6,3.9,7.4,5.4,11.3
			c1.7,4,3.2,8.1,4.6,12.3c0.7,2.1,1.3,4.8,2.2,7.3c0.8,3.2,1.6,6.3,2.4,9.5c1.8,7.2,2.9,14.9,3.2,22.3c0.1,2,0.1,8.4,3.3,7.6
			c0,0,0,0,0,0.1c-0.1,0.4,0.2,0.7,0.6,0.6c2.2-0.7,4.5-0.6,6.7-1.1C581.9,205.9,583.7,204.1,582.8,202.1z M550.1,132.1
			c-0.2,0.3-0.2,0.7-0.2,1c-0.1-0.2-0.3-0.3-0.4-0.5C549.8,132.5,550,132.3,550.1,132.1C550.1,132.1,550.1,132.1,550.1,132.1z"/>
		<path class="st5" d="M541.2,175.1c0.8-4.2,0.7-8.6,0.5-13c0.1-1.3,0-2.5-0.2-3.7c0-0.2,0-0.5,0-0.7c-0.2-3.6-0.4-7.3-0.7-10.9
			c-0.2-2.5-0.4-5.9-2.6-7.5c-0.1-0.1-0.3,0-0.5,0.1c-1.5-0.4-2.8-1.1-4.4-0.9c-0.3,0-0.6,0.3-0.8,0.6c-0.3-0.1-0.5-0.3-0.7-0.5
			c-0.4-0.3-1,0.4-0.9,0.7c0.1,0.2,0.1,0.2,0.2,0.4c0.1,0.1,0.2,0.1,0.3,0.1c0,0,0,0,0,0c-0.1,0,0,0.2,0.1,0.4
			c-0.7,1.7,0.3,4.2,0.8,5.8c1.2,4.4,1.7,8.8,2.3,13.4c0.6,4.9,1.2,9.7,1.4,14.6c0,1,0,2,0,3c-1,2.9-1.3,6.1-1.6,9.1
			c-0.5,4.6-1.4,9-2.4,13.5c-0.6,2.9-1.2,5.7-1.9,8.6c-2,4.5-3.9,9.3-4.5,13.9c-0.1,0.2-0.2,0.4-0.3,0.5c-0.8,1.2,0.6,1.3,1.3,0.5
			c1-1.3,1.8-2.8,2.4-4.4c0.7-1.6,1.4-3.3,2-5c1.3-2.4,2.4-4.9,3.3-7.5c0.1-0.1,0.1-0.2,0.1-0.2c0-0.1,0.1-0.3,0.1-0.4
			c1.1-2.9,2-5.9,3-8.9C539.6,189.9,542.1,182.3,541.2,175.1C541.3,175.1,541.2,175.1,541.2,175.1z"/>
		<path class="st9" d="M537.6,56.2c-1.1-2.9-1.7-5.6-2.4-8.6c-0.1-0.3-0.5-0.1-0.7,0.2c0-0.2-0.1-0.5-0.2-0.8
			c-0.1-0.4-0.5-0.4-0.8-0.3c-2.3,0.3-4.9-0.5-7.2-0.2c0.2-0.1,0.3-0.3,0.3-0.4c0.1-0.4,0.2-0.6,0.1-0.9c-0.1-0.3-0.3-0.6-0.4-0.9
			c-0.3-0.5-0.5-1.1-1-1.4c0,0,0,0,0,0c-0.1-0.1-0.2-0.1-0.4-0.1c-0.2,0-0.4,0.2-0.5,0.3c0,0,0,0,0,0c0.9-1.1,0.8-2.8-0.4-3.5
			c-0.2-0.1-0.5,0.2-0.5,0.4c0,1.2,0.1,0.7,0.2,2.1c0.1,1.2-2.4,1.5-3.1,1.6c-1.5,0.2-3,0.1-4.5,0.1c-2.1,0-4.3-0.2-6.4-0.1
			c-2.2,0.1-3.2-1-4.6-2.5c-0.4-0.4-1.2,0.4-1.2,0.8c0.6,3.8-4.5,6.7-7.2,8.6c-1.9,1.4-5.6,6.1-7.9,4.8c-0.2-0.1-0.5,0.2-0.4,0.4
			c0.2,0.4,0.5,0.7,0.8,0.8c0,0,0,0,0,0.1c0.1,1.1-0.2,2.7,0.1,3.8c0.1,0.2,0.2,0.2,0.4,0.2c-2.1,2.2-4.2,4.5-6.3,6.9
			c0,0-0.1,0.1-0.1,0.2c-0.1-0.1-0.2-0.2-0.2-0.3c-0.2-0.2-0.5,0.2-0.4,0.4c1.6,2.6,3,5.4,3.7,8.3c0.5,1.7,0.6,3.6,1.8,5
			c2.3,2.6,7.7-3.9,8.8-5.2c3.8-4.6,6.5-10,8.4-15.7c1-3,2.1-7.1,1.2-10.5c5.1,7.7,13.3,12.6,22.6,13c2.2,0.1,8.4,0.3,9.2-2.8
			C538.5,58.6,538.1,57.5,537.6,56.2z M505,47C505,47,505,46.9,505,47c-0.3-0.3-0.7,0-0.9,0.2c-0.9,0.8-1.7,1.6-2.5,2.4
			c0-0.1,0.1-0.1,0.1-0.2c0.7-0.8,1.4-1.7,2.1-2.5c0.3,0,0.7-0.2,0.9-0.4c0.3-0.3,0.4-0.6,0.5-0.9c0.2-0.2,0.3-0.5,0.3-0.8
			c0-0.1,0-0.2,0-0.4c0,0,0,0,0-0.1c0,0,0-0.1,0-0.1c0-0.3-0.2-0.4-0.4-0.4c-0.1,0-0.1-0.1-0.2,0c0,0,0,0-0.1,0
			c0.1-0.2,0.1-0.3,0.2-0.5c0.5,0.5,1,0.9,1.6,1.1c-0.5,0.4-0.9,1-0.3,1.1c0,0,0,0,0,0c2.2,1.3,5.3,1.2,7.8,1.3c2.2,0,6.4,0.2,8.6-1
			c0,0.1,0,0.3,0,0.4c0.1,0.1,0.2,0.2,0.3,0.1c0.1,0.1,0.2,0.2,0.3,0.3c0.1,0.1,0.3-0.1,0.3-0.2c0-0.1,0-0.1,0.1-0.2
			c0.1,0.1,0.1,0.2,0.2,0.3c0.1,0.3,0.2,0.3,0.4,0.3c0,0,0.1,0,0.1,0c0,0.1,0.1,0.1,0.1,0.2c-0.3,0.1-0.6,0.3-0.9,0.5
			c-1.1-0.1-2.1-0.1-3.2-0.2c-4.9-0.3-9.8,0-14.6-0.8C505.5,46.5,505.2,46.7,505,47z"/>
		<path class="st9" d="M556.7,74c-2.4,2-5.6,2.4-8.1,4.1c0-0.1,0-0.3,0-0.4c0.1-0.8-1.2,0-1.3,0.5c-0.1,0.5-0.2,0.9-0.3,1.3
			c-1.5,1.7-2,4.1-2.4,6.4c-0.1,0.3-0.2,0.6-0.2,0.8c-0.9,3-1.5,6-2.7,8.9c-0.2,0.5-0.7,1.5-1.1,2.6c0-0.1,0-0.1,0-0.2
			c0-0.2-0.2-0.1-0.3,0c-0.7,1.7-1.9,4.9-0.5,6.5c1.5,1.7,6.2-3.1,7.1-3.8c3.7-3.2,6.7-7,7.8-11.8c1.2-4.8,1.4-9.9,2.6-14.7
			C557.5,73.8,557,73.7,556.7,74z"/>
		<path class="st9" d="M514.2,107.7c-4.6-3.9-10.2-7.6-15.6-10.4c-0.2-0.1-0.6,0-0.8,0.3c-1.7,0-3.9,1.1-5.4,1.7
			c-2.3,0.9-4.9,3.3-7.4,3c-0.2,0-0.6,0.4-0.3,0.5c0.5,0.3,1.1,0.3,1.6,0.3c-0.1,0.1-0.2,0.2-0.1,0.3c2.3,1.6,4.4,3.1,6.3,5.2
			c1.9,2,3.5,4.1,5.7,5.8c4.6,3.6,10.9,2.7,15.9,0.6C518.1,113.3,517,110,514.2,107.7z"/>
		<path class="st9" d="M567.8,151.2c-0.5-0.9-1-1.9-1.6-2.8c-0.2-0.4-0.4-0.9-0.5-1.3c-0.6-1.7-0.8-3.6-0.2-5.3
			c0.7-1.8,3.2,0.7,4,1.1c0.1,0.1,0.4-0.2,0.3-0.3c-0.7-1.6-2-2.4-3.1-2.3c-0.1-0.2-0.2-0.2-0.3-0.2c0-0.1,0.1-0.2,0.1-0.2
			c0.2-1.6-2.3-3.9-3.2-5.1c-2.5-3.3-3.9-7.1-5.7-10.8c0-0.2-0.1-0.4-0.2-0.5c0.1-0.2,0.2-0.3,0.2-0.5c-0.1-1.1-0.5-2.5-1.5-3
			c0.2-1.1-0.3-2.1-0.8-3.2c-0.2-0.4-0.7-0.2-0.9,0c-2.3,1.5-4.5,3.2-6.7,5c-1.3,1-2.8,2.1-4,3.3c-1.9,1.5-3.6,3-5.2,4.8
			c-0.1,0.1-0.2,0.2-0.2,0.3c-5.6,1.9-12.3,0-18,1.6c-0.1,0-0.2,0.1-0.2,0.1c0,0,0,0,0,0c0-0.4-0.3-0.4-0.6-0.2
			c-0.4,0.1-1,0.7-0.8,1.1c0.4,0.7,0.7,1.3,0.7,2c0,0.2,0,0.4,0,0.6c0,0.3,0.2,0.4,0.4,0.3c0,0.3,0.1,0.6,0.3,0.9
			c0.2,0.4,0.8-0.2,0.7-0.5c-0.6-1.6,8-1,9.1-1c3.7-0.2,9.6-1.1,11.2,3.3c0,0.1,0.1,0.2,0.2,0.2c-0.6,0-1.2-0.1-1.8-0.1
			c-0.4,0-0.8,0.3-1.1,0.7c-0.3,0-0.6,0-0.9,0c-0.8,0-1.6,0.1-2.3,0.3c0,0,0,0,0,0c0-0.1,0-0.2-0.1-0.3c-0.1-0.6-0.6-0.5-1.2-0.2
			c-0.9-0.2-1.8-0.3-2.7-0.4c-0.3,0-0.7,0.2-0.9,0.5c-0.1,0-0.1,0-0.2,0c-0.2-0.1-0.4,0-0.6,0.1c-1.8-1.1-4.2-1.1-6.4-1.4
			c-0.2,0-0.5,0.1-0.7,0.4c-0.3,0.1-0.6,0.5-0.5,0.7c1,2.9,2.1,5.7,2.6,8.7c-0.1,0.1-0.1,0.2-0.1,0.3c0.1,0.5,0.1,0.7,0.1,1
			c0.2,1.5,0.3,3,0.2,4.5c0,0,0,0,0,0c0,0.1,0,0.1,0,0.2c0,0,0,0,0,0l0,0.5c0,0.1,0,0.1,0.1,0.2l0,0.1c0,0.1,0,0.1,0,0.2
			c0,0.4,0.3,0.3,0.6,0.1c-0.8,4.2-0.6,9.6-0.3,10.8c0,0.2,0.3-0.1,0.3-0.1c0.6-2.9-0.1-6.2,0.1-9.1c0.2-2.2,0.8-6.8,4-5.9
			c1.5,0.4,2.1,2.2,2.6,3.5c2,5.8,1.3,12.5,1.9,18.5c0,0.3,0.4,0,0.4-0.2c0.2-2.3,0.3-4.5,0.3-6.7c0.1,0,0.2-0.1,0.2-0.2
			c0.4-1.4,0.7-2.7,1.2-4c0.5-1.1,1.4-3.1,3-2.9c1.1,0.2,1.9,1.8,2.3,2.7c1.8,3.7-0.2,8.2,0.1,12.1c0,0.2,0.3,0,0.3-0.1
			c0.4-3.2,1.1-6.3,1-9.5c0-1.2-0.5-3.1-1.4-4.5c0.5-0.2,0.9-0.8,0.6-1.2c-0.1-0.1-0.2-0.2-0.3-0.3c0-0.1,0-0.2-0.1-0.3
			c0-0.8-0.1-1.5-0.1-2.3c0.1,0,0.1-0.1,0.2-0.1c1.3-2.2,0.1-4.8,1.4-7c1-1.6,2.2-0.9,2.9,0.4c0.6,1.3,0.9,2.8,1.1,4.2
			c0.2,1.1,0.6,2.1,0.8,3.2c0,0.1,0.1,0.1,0.2,0c0.1,0.2,0.2,0.3,0.4,0.5c0.1,0.1,0.3-0.1,0.3-0.2c0.2-1.5,0.1-2.8,0.8-4.1
			c1.2-2.4,3-0.6,3.5,0.9c0.8,2.3,0.8,4.8,1.4,7.2c0,0.2,0.3-0.1,0.3-0.2c0.1-0.9,0.1-1.8,0.2-2.6c0.1,0.6,0.3,1.2,0.5,1.8
			c0.1,2.5,0.1,5-0.3,7.4c-0.1,0.5,0.4,0.5,0.7,0.3c-0.8,2.5-0.8,5.7,0.2,7.2c0.1,0.1,0.3-0.1,0.3-0.2c0-1.9-0.2-3.8,0-5.7
			c0.3-2.4,2.1-5.2,4.6-3.1c2.6,2.1,2.9,6.3,3.8,9.2c0.1,0.2,0.4-0.1,0.4-0.2c0.1-2.5-0.8-7.2-3.1-9.4c0.1-0.1,0.2-0.3,0.1-0.4
			c-0.2-0.5-0.4-1-0.6-1.5c0.1-0.2,0.2-0.5,0.2-0.6c-0.3-1.3-0.7-2.6-1-4c0.1-0.1,0.1-0.1,0.1-0.2c-0.5-2.5-1.2-5.2-0.6-7.8
			c0.7-3.2,3.1-1.9,4.4-0.2c2.1,2.6,2.7,6.1,5,8.6c0.1,0.1,0.3-0.1,0.3-0.3C569.5,155.3,568.9,153.3,567.8,151.2z M534.7,164.3
			c0-1.2-0.1-2.3-0.2-3.5c-0.2-2.1-0.5-4.9-1.4-7.3c0.4-0.2,0.8-0.7,0.7-1.1c0-0.1,0-0.2-0.1-0.3c0.8,3,1.3,6.1,0.9,9.3
			c0,0.4,0.5,0.1,0.7-0.2C535,162.2,534.7,163.4,534.7,164.3z M541.1,150.7c0-0.2-0.1-0.4-0.2-0.7c0,0,0.1-0.1,0.1-0.1
			c0.2-0.5,0.4-1,0.6-1.5c0.1-0.1,0.1-0.1,0.1-0.2c0,0,0,0,0,0C541.4,149,541.2,149.9,541.1,150.7z M548.7,132.3
			c-0.3,0.1-0.5,0.3-0.7,0.4c-1.4,1.3-2.3,2.7-2.6,4.3c0-0.1-0.1-0.2-0.1-0.4c-0.1-0.4-0.7-0.2-0.9,0c-0.5,0.4-1,0.8-1.4,1.2
			c-0.1,0.1-0.1,0.2-0.2,0.2c0,0,0,0,0,0c0,0-0.1,0.1-0.1,0.1c0,0,0,0,0,0c-0.1,0.1-0.1,0.2-0.1,0.4c-0.4,0-0.7,0-1.1,0
			c0.5-0.2,1.2-0.9,1-1.4c-1.2-4.5,3-7.6,6-10.2c1-0.9,1.7-1.8,2.6-2.8c0.7-0.9,1.5-1.8,2.4-2.5c1.4-1.2,2.3,0.9,2.9,1.8
			c-0.1,0-0.1,0.1-0.2,0.2c-1.6,1.7-3.1,3.4-4.5,5.1C550.7,129.9,549.6,131.1,548.7,132.3z"/>
		<path class="st10" d="M524.3,40c-3.4-1-7.4-0.4-11-0.5c-2.9-0.1-6-0.5-9-0.6c0-0.1,0.1-0.2,0.1-0.3c0-0.2,0-0.3-0.2-0.3
			c-0.7-0.1-1.4,0.2-2.2,0.7c-0.3,0-0.5,0-0.8,0c-0.1,0-0.3,0.1-0.2,0.2c0.1,0.1,0.2,0.2,0.2,0.2c-1.7,1.4-3.3,3.5-4.2,4.4
			c-2.9,2.9-6.4,5.8-8.6,9.2c-0.1,0.2-0.1,0.3,0.2,0.3c3.2-1.2,5.7-4.4,8.1-6.8c1.5-1.5,3.1-3,4.7-4.5c0.6-0.5,1.3-1,1.8-1.6
			c2.5,0.8,6.2,0.5,8.2,0.6c4.2,0.3,8.8,1,12.7-0.8C524.3,40.3,524.5,40.1,524.3,40z"/>
		<path class="st10" d="M545,77.3c-6.5-2.3-12-6.4-18.2-9.2c-4.9-2.2-10.5-0.4-15,1.9c-4.7,2.3-7.3,6.1-9.3,10.8
			c-0.2,0.4-0.4,0.9-0.5,1.3c0,0,0,0,0,0c-1.1,0.6-2.1,1.3-3.2,2c-1.6,0.8-3,2.2-4.2,3.4c-0.7,0.7-1.6,1.5-2.4,2.5
			c-2.9,3.2-5.3,6.9-6.6,10.7c-0.3,0.2-0.7,0.5-1,0.8c0,0,0,0-0.1,0c0,0,0,0,0,0c-0.1,0-0.1,0.1-0.2,0.1c-0.5,0.5-0.2,1.3,0.5,0.8
			c0.9-0.7,1.9-1.3,2.8-1.8c3.8-1.5,8.7-1.4,11.1-4.7c0-0.1,0.1-0.1,0.1-0.2c0,0.2,0,0.5,0,0.7c0,0.7,0.8,0.1,1.1-0.2
			c0.1,0,0.2,0,0.4-0.1c6.6-2.5,13.1-5.1,19.6-7.7c5.2-2.1,11.8-3.4,16.3-6.9c2.5-0.7,5.1-1.4,7.7-1.9c0.6-0.1,1.3-0.9,1.3-1.5
			c0-0.1,0-0.1,0-0.2C545.3,77.5,545.2,77.3,545,77.3z"/>
		<path class="st10" d="M556.2,73.7c0,0,0-0.1-0.1-0.1c-1-1.2-3.3-1.5-4.8-2.2c-2-1-3.8-2.1-5.9-2.8c-3.8-1.2-8.9,0.1-12.4,1.6
			c-0.2,0.1-0.5,0.7-0.2,0.6c0.7-0.1,1.4-0.2,2.1-0.2c-0.3,0.3-0.4,0.7,0,0.8c-0.2,0,0.8,0.6,1,0.7c1.4,0.7,2.7,1.5,4.1,2.2
			c2.1,1.1,4.7,2.5,7.2,2.3c0.1,0,0.1,0,0.2-0.1c-0.2,0.1-0.3,0.2-0.5,0.4c-0.1,0.1-0.2,0.4,0,0.3c2.6-0.8,5.3-1.6,7.9-2.6
			c0.3-0.1,0.5-0.1,0.8-0.2c0.1,0,0.2-0.1,0.2-0.2C556.1,74.1,556.3,73.8,556.2,73.7z"/>
		<path class="st10" d="M560.3,109.9c0-0.5-0.2-1-0.4-1.5c-0.2-0.8-0.5-1.6-0.8-2.3c-0.1-0.3-0.4-0.3-0.7-0.2
			c0.6-1.9,0.5-3.8-0.9-5.2c-0.1-0.1-0.3,0.1-0.3,0.2c-0.1,1.8,0.4,3.4,0,5.2c-0.4,2-2.1,3.5-3.5,4.8c-1.8,1.7-3.9,3.1-5.8,4.6
			c-3,2.2-11,7.5-11.3,0.4c0-0.8-1.1,0.1-1.2,0.4c-0.7,2.7-0.1,5.4-0.2,8.1c-2-1.8-3.7-3.9-5.9-5.7c-0.4-0.4-1.3,0.5-0.9,0.9
			c0.7,1.1,2.1,3,0.7,4.1c-0.9,0.7-2.1,0.9-3.2,1.2c-2.3,0.5-4.6,0.7-6.9,0.8c-5.2,0-12.8,0.1-15.7-5.1c-0.1-0.2-0.4,0.1-0.4,0.3
			c0.5,1.9,1.5,3.4,2.9,4.4c0,0,0,0,0,0c0,2.1,0,4.9,1.5,6.6c1.1,1.3,5.7,0.2,7.1,0c3.4-0.4,6.8-0.9,10.1-1.4c2.5-0.4,5-0.7,7.5-0.9
			c1.8-0.1,3,0.1,4.4-0.7c0,0,0,0,0,0c1.4-0.3,2.8-1.6,3.9-2.5c2.3-1.8,4.7-3.5,7-5.3c4.1-3.1,8.4-6,12.4-9.2
			C560.1,111.4,560.5,110.4,560.3,109.9z"/>
		<path class="st10" d="M526.8,191.8c-4.1-1.6-6.2,7.7-6.8,10c-1.3,4.7-3,9.2-5.2,13.6c-1.3,2.6-4.7,6.4-3.3,9.6
			c0.1,0.3,0.4,0.1,0.6-0.2c-0.1,1.3,0.1,2.6,0.3,4.1c0.7,4.1,2.4,8,3.8,11.9c0.4,1.2,2-0.6,2.1-1.3c0.6-5.4,3.4-10.1,5.5-15
			c2.1-4.9,3.7-9.8,4.8-15C529.5,205,532.6,194.1,526.8,191.8z"/>
		<path class="st10" d="M539.4,185.9c-3,5.6-4.6,12.1-6.5,18.1c-2.2,6.9-5.2,13.4-8.2,19.9c-0.2,0.5,0.4,0.3,0.6,0.1
			c4.5-5.4,6.9-11.9,9.1-18.5c2.1-6.3,4.5-13.1,5.2-19.7C539.7,185.7,539.4,185.9,539.4,185.9z"/>
		<path class="st10" d="M590.3,183.2c-0.3-1.5-0.8-2.9-1.5-4.4c-0.3-2.4-1.3-4.8-3.5-5.9c-0.1-0.1-0.2,0-0.3,0.2
			c-2.4-2.2-5-0.2-6.1,2.6c-0.8,2-1.5,5.4-1,8c-1.9-4.2-5.1-9.1-7.7-3.9c-1.4,2.8-1.9,6.6-1.9,10.2c-0.8-2.3-2.4-5.2-5-4.1
			c-2.3,1-3.6,3-4.2,5.5c-0.1,0.1-0.2,0.2-0.2,0.3c0,0.3,0,0.6,0,0.9c0,0.1,0,0.3-0.1,0.5c0.3-2.7-2.7-7.9-5.6-7.3
			c-4.1,0.9-4,11.1-3.9,14c-0.1-2-0.2-4.1-0.2-6.1c-0.3-6.8,0.2-16.1-4.3-21.7c-0.1-0.1-0.4,0-0.5,0.1c-2.5,1.8-3.2,5.2-3.3,8.1
			c-0.3,2-0.3,4.1-0.4,6c-0.1,4.2,0.3,8.3,0.4,12.5c0.2,6,0,13.5,2.4,19.3c0.1,1.7,0.4,3.3,0.9,5c0.1,0.4,0.5,0.4,0.8,0.3
			c2.2-0.4,5.2-1.5,7,0.3c0.1,0.1,0.2,0.1,0.3,0.2c-0.5,0.4-1,1-0.7,1.4c1.5,2.5,3.9,11.6,8.1,10.7c2.3-0.5,3.9-2.8,5.1-4.6
			c0.7-1,3.1-4,2-5.2c-0.2-1.7-1.3-3.6-2-5c-0.6-1.2-1.1-2.3-1.6-3.5c0.2,0.4,0.5,0.7,0.8,1c1.7,1.8,4.2-0.7,5-2.1
			c1.9-3.4,2.3-6.4,1.2-10.1c-0.2-0.6-0.3-1.2-0.4-1.8c1.3,2,3.3,3.2,6.4,2.7c3.5-0.6,6.3-2.3,6.2-6.1c0-4-1.6-8.3-2.8-12.2
			c0.4,0.4,1,0.7,1.7,0.9c2.1,0.5,4.5-1.5,6.1-2.6C589.2,186.1,590.6,185.2,590.3,183.2z M553.6,223.4c0.3-0.2,0.6-0.5,0.7-0.9
			c0.1,0.3,0.3,0.6,0.4,0.9C554.4,223.5,554,223.5,553.6,223.4z"/>
		<path class="st10" d="M595.3,167c-0.6-0.6-1.1-1.1-1.7-1.5c-1-1.9-3.7-3.9-4.8-4.9c-2-1.8-4.5-3.8-7.4-3.2
			c-3.6,0.7-5.2,7.8-1.1,8.5c0.2,2.7,2.6,5.2,5,6.2c3.2,1.2,7.1-1.7,9.5-3.6C595.1,168.2,595.7,167.5,595.3,167z"/>
	</g>
	<g>
		<g>
			<g>
				<path class="st12" d="M506.6,133.4c5.4-0.4,10.8-0.8,16.2-1.2c3.4-0.3,6.8-0.5,10.2-0.8c1.3-0.1,3.2,0.1,4.5-0.4
					c1.2-0.5,2.3-1.8,3.3-2.6c2.7-2.3,5.4-4.6,8.1-6.9c4.2-3.5,8.3-7.1,12.5-10.5c0.3-0.2,0.2-0.7-0.2-0.4c-3.9,3.2-8,6.2-12,9.2
					c-2.6,2-5.3,4-7.9,6.1c-1,0.7-2,1.4-2.9,2.2c-0.2,0.2-1.6,1.1-0.7,0.7c1-0.4-0.6-0.1-0.9-0.1c-1.1,0-2.2,0.2-3.3,0.2
					c-3.5,0.2-6.9,0.5-10.4,0.7c-5.1,0.4-10.1,0.8-15.2,1.1C506.7,130.9,505,133.5,506.6,133.4L506.6,133.4z"/>
			</g>
		</g>
		<g>
			<g>
				<path class="st12" d="M535.7,45.7c-5.4-0.1-10.9-0.2-16.3-0.3c-3.5-0.1-7.1-0.1-10.6-0.2c-1.3,0-3.1-0.4-4.3,0.1
					c-1.2,0.5-2.3,2.1-3.2,3c-2.5,2.5-5.1,4.9-7.6,7.4c-3.9,3.8-7.8,7.5-11.7,11.3c-1.3,1.3,0,2.5,1.3,1.3
					c3.7-3.5,7.3-7.1,10.9-10.7c2.4-2.4,4.8-4.7,7.3-7.1c0.9-0.8,1.9-1.7,2.7-2.6c0.4-0.4,1.6-1.1,0.5-0.7c-1.3,0.4,0.5,0.2,0.9,0.3
					c1.1,0.2,2.3,0,3.4,0.1c3.5,0.1,7,0.1,10.5,0.2c5.1,0.1,10.2,0.2,15.3,0.2C535.6,48,537,45.8,535.7,45.7L535.7,45.7z"/>
			</g>
		</g>
		<g>
			<g>
				<path class="st12" d="M504.2,46.6c4.6,8.8,1.1,21.4-1,30.4c-1.6,6.8-3.4,13.6-5.7,20.3c-0.1,0.3,0,0.5,0.3,0.7
					c6.3,3.6,12.4,7.5,18.3,11.7c4.4,3.1,8.8,6.4,12.7,10.1c3,2.9,7,6.1,8.4,10.2c0.1,0.2,0.5-0.1,0.4-0.3
					c-1.3-7.5-8-12.7-13.6-17.1c-6.4-5-13.3-9.6-20.3-13.7c-1.1-0.7-3.8-1.6-4.6-2.6c0.5,0.7,0.2,0.6,0.5-0.3c0.4-1,0.6-2,0.9-3.1
					c2.3-7.7,4.2-15.6,5.4-23.6c1-6.8,3-17-1.5-22.9C504.5,46.1,504.2,46.4,504.2,46.6L504.2,46.6z"/>
			</g>
		</g>
		<g>
			<g>
				<path class="st12" d="M504.7,46.3c0.6,7,8.6,12.4,13.7,16.2c7,5.1,14.6,9.5,22.4,13.4c1.7,0.9,3.9,1.6,5.5,2.7
					c-0.1-0.1,0.2-1.3-0.3-0.2c-0.4,1-0.8,2.1-1.2,3.2c-2.9,7.9-5.4,15.9-7.4,24.1c-1.7,7.2-4.5,17.4,0.2,24.1
					c0.1,0.2,0.5-0.2,0.4-0.3c-1.9-3.9-1.1-9-0.6-13.2c0.7-5.9,2-11.7,3.6-17.4c2-7.1,4.3-14.2,6.9-21.1c0.1-0.3,0.2-0.8-0.2-0.9
					c-6.7-3-13.4-6.5-19.8-10.2c-7.7-4.5-20.7-11-23-20.6C505,45.9,504.7,46.2,504.7,46.3L504.7,46.3z"/>
			</g>
		</g>
		<g>
			<g>
				<path class="st12" d="M502.2,37.6C496,41,490.9,48.4,486.6,54c-0.2,0.3-0.4,0.7-0.1,1c1.5,1.9,2.3,3.8,2.8,6.1
					c0.1,0.3,0.5-0.1,0.5-0.3c0-1.1,0-2-0.1-3c-0.1-0.8-1.3-3.1-1.1-3.9c0.3-1.5,3.6-3.9,4.6-5.1c3.1-3.5,7.1-6.8,9.2-10.9
					C502.5,37.7,502.3,37.5,502.2,37.6L502.2,37.6z"/>
			</g>
		</g>
		<g>
			<g>
				<path class="st12" d="M502,38.1c4.2,2,10,1.5,14.5,1.9c2,0.2,5-0.1,6.6,1c1.4,1,2.5,3.8,3.9,5.2c0.2,0.2,0.6-0.2,0.5-0.4
					c-1.4-2.2-2.1-4-2.3-6.7c0-0.2-0.1-0.4-0.3-0.4c-7-1.4-15.7-2.9-22.6-1.1C502.1,37.6,501.8,38,502,38.1L502,38.1z"/>
			</g>
		</g>
		<g>
			<g>
				<path class="st12" d="M502,38.4c1.4,2.7,3.1,4.8,3.2,8c0,0.3,0.2,0.4,0.4,0.4c2.1,0.2,0.9-3.5,0.6-4.4c-0.7-1.9-1.8-3.5-3-5
					C502.8,37,501.8,38,502,38.4L502,38.4z"/>
			</g>
		</g>
		<g>
			<g>
				<path class="st12" d="M542.3,138.6c-4.2-2-10-1.5-14.5-1.9c-2-0.2-5,0.1-6.6-1c-1.4-1-2.5-3.8-3.9-5.2c-0.2-0.2-0.6,0.2-0.5,0.4
					c1.4,2.2,2.1,4,2.3,6.7c0,0.2,0.1,0.4,0.3,0.4c7,1.4,15.7,2.9,22.6,1.1C542.2,139,542.5,138.7,542.3,138.6L542.3,138.6z"/>
			</g>
		</g>
		<g>
			<g>
				<path class="st12" d="M542.2,139.1c6.2-3.4,11.3-10.8,15.6-16.3c0.2-0.3,0.4-0.7,0.1-1c-1.5-1.9-2.3-3.8-2.8-6.1
					c-0.1-0.3-0.5,0.1-0.5,0.3c0,1.1,0,2,0.1,3c0.1,0.8,1.3,3.1,1.1,3.9c-0.3,1.5-3.6,3.9-4.6,5.1c-3.1,3.5-7.1,6.8-9.2,10.9
					C541.8,139,542,139.1,542.2,139.1L542.2,139.1z"/>
			</g>
		</g>
		<g>
			<g>
				<path class="st12" d="M543,138c-0.6-3.2-1.3-6.8-3.6-9.2c-0.1-0.1-0.3-0.1-0.5-0.1c-2.3,0.7,0.4,3.2,1,4.4
					c0.9,1.9,1.2,3.9,1.9,5.8C542,139.6,543.1,138.5,543,138L543,138z"/>
			</g>
		</g>
		<g>
			<g>
				<path class="st12" d="M481.9,68c5.8,11.2,7.8,23.1,1.7,34.8c-0.2,0.4,0.3,0.4,0.5,0.2c4.7-4.6,5.6-10.9,5.5-17.3
					c-0.1-6.3-1.5-14.6-7.4-18.1C482.1,67.6,481.8,67.9,481.9,68L481.9,68z"/>
			</g>
		</g>
		<g>
			<g>
				<path class="st12" d="M483.7,103.2c6,3.5,11.1,8.6,15,14.3c3.1,4.6,4.6,10.9,8.3,14.8c0.2,0.2,0.5-0.2,0.5-0.4
					c0.5-5.9-3.5-11.8-6.8-16.5c-4.2-6-9.3-11.1-16.6-12.9C483.8,102.4,483.3,103,483.7,103.2L483.7,103.2z"/>
			</g>
		</g>
		<g>
			<g>
				<path class="st12" d="M535.5,46.7c-2.4,11.6,10.9,27.4,22.6,27c0.2,0,0.8-0.5,0.4-0.7c-12-5.3-19.4-13.9-22.7-26.5
					C535.8,46.3,535.5,46.6,535.5,46.7L535.5,46.7z"/>
			</g>
		</g>
		<g>
			<g>
				<path class="st12" d="M558,73.4c-3.7,6.4-4.2,13.4-3.2,20.7c0.7,5.4,1.7,13.5,6.3,16.9c0.2,0.1,0.5-0.2,0.5-0.4
					c-0.3-5.6-3.2-10.8-4.2-16.3c-1.2-6.9-1.1-14.2,1.2-20.9C558.8,72.9,558.1,73.2,558,73.4L558,73.4z"/>
			</g>
		</g>
		<g>
			<g>
				<path class="st12" d="M484,103.2c13-4,25.7-9.7,38.3-14.7c6.6-2.6,13.2-5.1,19.7-7.7c5.3-2.1,11.8-3.7,16.4-7.1
					c0.2-0.1,0.6-0.8,0.1-0.7c-4.9,0.2-10.2,3.5-14.7,5.2c-6.6,2.6-13.2,5.3-19.7,7.9c-13.3,5.3-27.1,10.1-40,16.3
					C483.8,102.5,483.3,103.4,484,103.2L484,103.2z"/>
			</g>
		</g>
		<g>
			<g>
				<path class="st12" d="M506.6,94.1c3.4-3.8,5.5-9,7.8-13.5c2.8-5.3,5.9-10.6,8.3-16.1c0.4-0.9-0.7-0.7-1.1-0.2
					c-3,4.7-5.3,9.8-7.9,14.7c-2.5,4.7-6.3,9.8-7.6,15C506,94.3,506.4,94.2,506.6,94.1L506.6,94.1z"/>
			</g>
		</g>
		<g>
			<g>
				<path class="st12" d="M502.8,82c2.7-3.5,4.4-7.9,6.3-11.8c1.7-3.5,4.8-7.7,5.6-11.6c0.1-0.4-0.4-0.3-0.6-0.1
					c-2.7,2.9-4.1,7.6-5.9,11.1c-2,4-4.5,8.1-5.9,12.4C502.4,82.2,502.8,82.1,502.8,82L502.8,82z"/>
			</g>
		</g>
		<g>
			<g>
				<path class="st12" d="M520.7,88.5c2.5-2.8,4.4-6.3,6.5-9.5c1.8-2.9,4.1-5.9,5.2-9.2c0.2-0.8-0.8-0.3-1,0
					c-2.3,3.3-4.1,7-6.3,10.4c-1.7,2.6-3.8,5.3-4.8,8.2C520.1,88.7,520.6,88.6,520.7,88.5L520.7,88.5z"/>
			</g>
		</g>
		<g>
			<g>
				<path class="st12" d="M535.6,82.5c2.5-1.6,3.7-4.8,5.3-7c0.8-1.1-0.8-1.2-1.2-0.2c-1,2.5-3,4.6-4.5,6.8
					C534.8,82.5,535.2,82.8,535.6,82.5L535.6,82.5z"/>
			</g>
		</g>
		<g>
			<g>
				<path class="st12" d="M507.4,93.3c8.9,7,19.5,11.9,29,18c0.8,0.5,2-1.1,1.2-1.4c-10.8-4.1-19.4-12.6-30-16.9
					C507.5,92.9,507.3,93.2,507.4,93.3L507.4,93.3z"/>
			</g>
		</g>
		<g>
			<g>
				<path class="st12" d="M520.9,88.3c3,1.8,6.3,3.3,9.3,5c3.1,1.8,6.5,4.2,9.9,5.1c0.2,0,0.6-0.3,0.4-0.5c-2.4-2.3-6.1-3.7-9.1-5.3
					c-3.3-1.7-6.7-3.7-10.3-4.8C521,87.8,520.7,88.2,520.9,88.3L520.9,88.3z"/>
			</g>
		</g>
		<g>
			<g>
				<path class="st12" d="M534.6,82.7c1.3,1.2,3,2.1,4.5,3.2c1.3,0.9,2.6,2,4.2,2.2c0.3,0,1.1-0.7,0.7-1c-1.4-1.1-3.2-1.9-4.8-2.9
					c-1.3-0.9-2.7-1.8-4.3-1.9C534.8,82.3,534.5,82.5,534.6,82.7L534.6,82.7z"/>
			</g>
		</g>
		<g>
			<g>
				<path class="st12" d="M492.8,81.5c1.6-6.4-0.6-14-4.1-19.4c-0.4-0.6-2,0.7-1.4,1.4c4.1,5.4,4.2,11.7,5.3,18.1
					C492.6,81.8,492.8,81.6,492.8,81.5L492.8,81.5z"/>
			</g>
		</g>
		<g>
			<g>
				<path class="st12" d="M493.5,66.2c0.6-2.3-0.8-4.9-1.7-6.9c-0.4-0.9-2.2,0.6-1.6,1.3c0.7,1,1.3,2.1,1.7,3.2
					c0.3,0.9,0.5,1.9,1.3,2.6C493.3,66.6,493.5,66.3,493.5,66.2L493.5,66.2z"/>
			</g>
		</g>
		<g>
			<g>
				<path class="st12" d="M493.9,68.4c-0.1,0.6-0.1,1.5,0.7,1.7c0.1,0,0.3-0.1,0.3-0.2c0.2-0.7-0.1-1.2-0.4-1.8
					C494.2,67.8,493.9,68.2,493.9,68.4L493.9,68.4z"/>
			</g>
		</g>
		<g>
			<g>
				<path class="st12" d="M536.1,61.3c2.3,3.4,5.1,6.7,8.2,9.5c2.3,2.1,5.8,5.2,9.1,5.3c0.2,0,0.6-0.4,0.4-0.6
					c-1-1.2-2.3-1.7-3.7-2.5c-2-1.2-3.8-2.6-5.6-4.1c-3-2.4-5.5-5.3-8.2-8C536.3,60.9,536,61.2,536.1,61.3L536.1,61.3z"/>
			</g>
		</g>
		<g>
			<g>
				<path class="st12" d="M533.1,54.5c0-1.2-0.5-2.2-0.8-3.3c-0.4-1.3-0.6-2.7-0.8-4.1c-0.1-0.7-1,0.1-1,0.5c0,1.3,0.3,2.6,0.7,3.8
					c0.4,1.2,0.7,2.5,1.7,3.3C532.9,54.8,533.1,54.6,533.1,54.5L533.1,54.5z"/>
			</g>
		</g>
		<g>
			<g>
				<path class="st12" d="M527.7,59.8c-0.1-2.4-2-4.5-3.1-6.6c-1-2-1.5-4.8-3-6.4c-0.3-0.4-0.9,0.4-0.9,0.6
					c-0.2,2.5,1.4,5.2,2.6,7.3c1,1.8,2.1,4.5,4.1,5.3C527.5,60.2,527.7,60,527.7,59.8L527.7,59.8z"/>
			</g>
		</g>
		<g>
			<g>
				<path class="st12" d="M524.8,49.8c0-0.5-0.2-1-0.2-1.5c-0.1-0.5-0.1-1,0-1.5c0-0.4-0.4-0.4-0.7-0.3c-0.3,0.1-0.7,0.5-0.7,0.9
					c0,0.9,0.2,2.3,1,2.8C524.5,50.4,524.9,50,524.8,49.8L524.8,49.8z"/>
			</g>
		</g>
		<g>
			<g>
				<path class="st12" d="M550.9,95.6c-0.1,6.7,2.5,12.9,4.9,19c0.2,0.6,1.4-0.3,1.2-0.9c-2.4-6-5-11.9-5.6-18.4
					C551.4,95.1,550.9,95.4,550.9,95.6L550.9,95.6z"/>
			</g>
		</g>
		<g>
			<g>
				<path class="st12" d="M551.2,107.9c-0.4,2.9,1.2,6.1,2.6,8.6c0.3,0.6,1.4-0.4,1-0.9c-1-1.2-1.5-2.8-2-4.3
					c-0.4-1.1-0.6-2.6-1.3-3.5C551.4,107.7,551.2,107.9,551.2,107.9L551.2,107.9z"/>
			</g>
		</g>
		<g>
			<g>
				<path class="st12" d="M509.7,113.4c2.5,2.9,5.9,5,8.5,7.8c1.4,1.4,2.7,3,3.8,4.6c1,1.5,1.5,3.4,2.9,4.6c0.4,0.4,1.1-0.4,1-0.9
					c-0.6-3.2-4.6-6.9-6.8-9.2c-2.6-2.7-5.7-5.8-9.3-7.1C509.8,113.2,509.6,113.3,509.7,113.4L509.7,113.4z"/>
			</g>
		</g>
		<g>
			<g>
				<path class="st12" d="M515.5,124.7c0.6,1.1,1.3,2,1.8,3.1c0.6,1.1,0.8,2.2,1.1,3.5c0,0.1,0.1,0.1,0.2,0.2c0.1,0,0.2,0.1,0.3,0.1
					c0.2,0,0.4-0.1,0.5-0.3c0.7-1.2-0.3-2.6-0.9-3.7c-0.7-1.2-1.5-2.3-2.7-3.1C515.7,124.3,515.5,124.6,515.5,124.7L515.5,124.7z"/>
			</g>
		</g>
		<g>
			<g>
				<path class="st12" d="M495.2,106.1c-0.6-1.4-1.8-2.7-2.9-3.8c-0.9-0.8-2.3-2.2-3.6-2.1c-0.6,0-1.7,1.3-0.7,1.5
					c0.9,0.1,1.7,0.1,2.5,0.6c0.6,0.4,1.1,0.9,1.6,1.4c0.9,0.9,1.7,2,2.9,2.6C495.1,106.4,495.3,106.2,495.2,106.1L495.2,106.1z"/>
			</g>
		</g>
		<g>
			<g>
				<path class="st12" d="M496.8,47.1c1.4-1,2.5-2.4,3.7-3.6c1.2-1.2,2.7-2.4,3.6-3.9c0.3-0.5,0-0.9-0.5-0.5c-1.4,1-2.5,2.6-3.6,3.8
					c-1.1,1.3-2.4,2.5-3.3,4C496.4,47,496.5,47.2,496.8,47.1L496.8,47.1z"/>
			</g>
		</g>
		<g>
			<g>
				<path class="st12" d="M509.4,40.3c-0.9-0.6-1.9-0.8-3-1c-0.9-0.2-1.9-0.6-2.8-0.1c-0.2,0.1-0.3,0.3-0.3,0.5
					c0,0.1,0.1,0.2,0.1,0.3c0,0.1,0.1,0.1,0.2,0.2c1.8,0.4,3.7,0.8,5.5,0.7C509.2,40.7,509.5,40.5,509.4,40.3L509.4,40.3z"/>
			</g>
		</g>
		<g>
			<g>
				<path class="st12" d="M547.8,128.3c-2.4,1.8-4.5,4.1-6.7,6.1c-1,0.9,0.2,1.8,1,0.7c1.7-2.3,4.7-3.9,5.9-6.6
					C548.1,128.3,547.9,128.3,547.8,128.3L547.8,128.3z"/>
			</g>
		</g>
		<g>
			<g>
				<path class="st12" d="M536.4,135.4c0.8,0.1,1.6,0,2.4,0c0.7,0,1.6,0.2,2.3-0.1c0.3-0.1,1-0.7,0.5-1c-0.6-0.3-1.7,0-2.4,0.1
					c-0.9,0.1-1.8,0.3-2.6,0.6C536.4,135.1,536.2,135.4,536.4,135.4L536.4,135.4z"/>
			</g>
		</g>
		<g>
			<g>
				<path class="st12" d="M542.3,130.1c-0.4,0.1-0.7,0.3-1,0.6c-0.4,0.3-0.7,0.6-1,0.9c-0.2,0.2-0.4,0.6-0.2,0.8
					c0.2,0.2,0.7,0,0.8-0.2c0.5-0.6,1.2-1,1.7-1.6C542.6,130.3,542.6,130,542.3,130.1L542.3,130.1z"/>
			</g>
		</g>
		<g>
			<g>
				<path class="st12" d="M553.3,124.4c0.5-0.4,1-0.9,1.5-1.4c0.5-0.5,1.2-0.8,1.6-1.4c0.2-0.3,0.2-0.7-0.3-0.7
					c-0.7,0.1-1.4,0.9-1.8,1.4c-0.5,0.5-1,1.1-1.3,1.8C552.9,124.4,553.1,124.5,553.3,124.4L553.3,124.4z"/>
			</g>
		</g>
		<g>
			<g>
				<path class="st12" d="M523.8,135.5c-0.2-0.6-1.1-0.8-1.6-0.8c-0.4-0.1-0.8,0-1.1-0.1c-0.4-0.1-0.5-0.3-1,0
					c-0.4,0.2-0.8,0.6-0.9,1c-0.1,0.3,0.1,0.7,0.4,0.7c0.6,0,1.2-0.4,1.5-1c-0.3,0.2-0.5,0.5-0.8,0.7c1.1-0.3,2.3,0.2,3.4-0.2
					C523.7,135.7,523.8,135.6,523.8,135.5L523.8,135.5z"/>
			</g>
		</g>
		<g>
			<g>
				<path class="st17" d="M487.6,54.4c3.6-11,6.7-22.5,9.1-33.9c-0.6,0.3-1.1,0.7-1.7,1c9.6,6.2,19.5,12,29,18.2
					c0.2,0.1,0.6-0.3,0.4-0.4C515,33.1,506,26.3,496.6,20c-0.6-0.4-1.5,0.4-1.7,1c-2.4,11.1-6.7,22.2-7.8,33.6
					C487.1,54.9,487.6,54.5,487.6,54.4L487.6,54.4z"/>
			</g>
		</g>
		<g>
			<g>
				<path class="st17" d="M493.7,47c2-8.6,2.5-17.9,3-26.7c-0.6,0.4-1.1,0.8-1.7,1.2c6.4,5.8,13.3,11.2,19.7,17
					c0.2,0.2,0.6-0.3,0.4-0.4c-6.4-5.8-12.2-12.2-18.5-18.1c-0.7-0.6-1.7,0.6-1.7,1.2c-0.5,8.5-2.3,17.4-1.6,26
					C493.2,47.5,493.6,47.2,493.7,47L493.7,47z"/>
			</g>
		</g>
		<g>
			<g>
				<path class="st17" d="M496.4,21.1c-1.5-3.9-2.6-7.8-3.8-11.7c-1-3.3-2-7-4.2-9.7c-0.3,0.4-0.6,0.7-0.9,1.1
					c0.1,0,0.2,0.1,0.3,0.1c0.2,0.1,0.5-0.2,0.6-0.4c0-0.1,0.1-0.3,0.1-0.4c0.2-0.8-1.2-0.3-1.2,0.4c0.9,7.2,6,14.2,8.8,20.9
					C496.2,21.4,496.4,21.2,496.4,21.1L496.4,21.1z"/>
			</g>
		</g>
		<g>
			<g>
				<path class="st12" d="M520.2,134.9c5,15.3,5.4,30.7,3.1,46.6c-1.1,7.7-2.8,15.3-5.1,22.8c-1.1,3.8-2.4,7.5-4,11.1
					c-1,2.4-2.6,4.8-3.2,7.3c-1,4.1,0.6,9.4,1.7,13.3c0.4,1.5,1.5,7.7,3.8,7.5c1.3-0.1,1.9-2.1,2.3-3c1.9-4.4,3.6-8.9,5.3-13.3
					c3.4-9,6.5-18.1,8.7-27.4c5-20.9,5.8-41.5-2.1-61.7c-0.2-0.4-0.8,0.2-0.7,0.5c4.2,17.8,4,37.1,0.7,55
					c-1.5,8.3-3.6,16.5-6.1,24.5c-1.3,4.2-2.7,8.4-4.2,12.6c-0.8,2.2-1.6,4.3-2.4,6.5c-0.3,0.7-0.9,1.7-1,2.5
					c-0.1,1,0.7,1.7,0.1,0.8c-2.1-3.3-3.2-8.1-3.9-11.9c-0.5-2.3-1-4.9-0.3-7.2c0.8-2.6,2.4-5.2,3.4-7.8c4.6-11.9,7.5-24.4,8.8-37
					c1.4-13.2,2.1-29.8-4.6-41.9C520.4,134.5,520.2,134.7,520.2,134.9L520.2,134.9z"/>
			</g>
		</g>
		<g>
			<g>
				<path class="st12" d="M553.6,126.5c5.2,13.4,13.8,26,22.8,37.1c2.3,2.8,4.5,6.1,7.2,8.5c1.2,1,1.6,1.4,3.2,1.3
					c2.9-0.3,6.4-2.5,8.4-4.5c2.4-2.4,1.7-3-0.9-4.9c-5.3-3.9-10.3-8-15-12.5c-10.1-9.6-19.8-21.4-23.7-35c-0.1-0.3-0.5,0.1-0.5,0.3
					c4.3,21,21.7,36.9,38.4,48.9c2.3,1.6,1.1,2.3-1,3.8c-1.9,1.3-4.7,3-7,1.9c-2-1-4.3-4.7-5.8-6.4c-2-2.3-4-4.7-5.9-7.2
					c-7.8-9.9-13.7-20.7-20-31.6C553.8,126,553.5,126.3,553.6,126.5L553.6,126.5z"/>
			</g>
		</g>
		<g>
			<g>
				<path class="st12" d="M538.2,138.9c3.4,15.4,4.5,30.3,1.6,45.9c-1.4,7.8-3.6,15.4-6.6,22.7c-3.1,7.6-7.8,14-11.2,21.3
					c-0.2,0.4,0.3,0.5,0.6,0.2c5.2-5.7,8.7-13.7,11.7-20.8c3.2-7.6,5.6-15.6,7-23.8c2.7-14.8,3-31.8-2.4-46
					C538.7,138.1,538.1,138.6,538.2,138.9L538.2,138.9z"/>
			</g>
		</g>
		<g>
			<g>
				<path class="st12" d="M540.9,183.5c-0.5,7-0.4,14.2,0,21.2c0.3,6.2,0.2,13,3.5,18.5c0.2,0.3,0.6-0.1,0.6-0.3
					c-0.3-6.6-2.5-12.9-3-19.5c-0.5-6.6-0.2-13.3-0.7-20C541.3,183.1,540.9,183.4,540.9,183.5L540.9,183.5z"/>
			</g>
		</g>
		<g>
			<g>
				<path class="st12" d="M544.7,223.7c0.5,0.1,1,0.3,1.6,0.3c0.9,0,1.8,0,2.8,0.1c2.1,0.1,4.1,0,6.2-0.1c0.2,0,0.7-0.4,0.5-0.6
					c-2.8-2.4-7.8-3-10.9-0.8C544.5,222.7,543.9,223.6,544.7,223.7L544.7,223.7z"/>
			</g>
		</g>
		<g>
			<g>
				<path class="st12" d="M545.1,136.5c2.9,15.6,2.2,31.3,2.3,47c0.1,13.4-0.3,29,7.6,40.4c0.2,0.3,0.8-0.3,0.7-0.6
					c-4.4-14.8-5.7-29.6-5.8-45c-0.1-13.8,0.6-29-4.4-42.1C545.4,136,545.1,136.4,545.1,136.5L545.1,136.5z"/>
			</g>
		</g>
		<g>
			<g>
				<path class="st12" d="M549,131.3c2.7,10.4,4.9,20.7,6.1,31.4c1.2,10.7,1.9,21.4,3.2,32.1c1.2,9.5,3,19,6.3,28.1
					c0.9,2.6,2,4.2,0.6,6.8c-1,1.7-2.3,3.3-3.8,4.6c-2.3,2-2.5,0.4-4.1-2c-1.9-2.9-3.8-5.7-5.2-8.9c-0.2-0.4-0.8,0.2-0.7,0.5
					c0.7,3.5,1.6,6.6,3.4,9.7c0.8,1.3,1.9,4,3.4,4.4c2.2,0.5,5.1-3.1,6.2-4.4c1.7-2,4.2-5.1,3.9-8c-0.3-2-1.8-4.3-2.6-6.2
					c-1.2-3.1-2.1-6.2-2.9-9.4c-3.5-13.6-4.6-27.6-6-41.5c-1.3-12.3-2.2-26.1-7.4-37.5C549.3,130.9,549,131.2,549,131.3L549,131.3z"
					/>
			</g>
		</g>
		<g>
			<g>
				<path class="st12" d="M549,131.3c6.5,14.2,12.3,28.7,15.9,44c2.2,9.4,3.4,18.8,4.1,28.4c0.3,4,1.8,5.1,5.9,4.7
					c2.5-0.2,6.9-1,8.5-3.4c1.3-1.9,0-4.8-0.3-6.8c-0.6-3.7-1.3-7.3-2.1-10.9c-1.9-8.5-4.1-16.8-7.2-24.9c-2.4-6.2-4.8-14.1-10-18.6
					c-0.3-0.3-0.8,0.3-0.7,0.6c1.4,5.8,4.9,11.1,7.1,16.7c2.5,6.3,4.6,12.7,6.5,19.1c2,6.7,4.7,14.7,4.8,21.7
					c0.1,3.5-1.5,3.8-4.6,4.4c-2.9,0.5-5.2,0.6-6-2.4c-0.9-3.1-0.6-7.1-1-10.3c-0.4-3-0.8-6.1-1.4-9.1c-1.3-6.8-3-13.4-5.1-20
					c-3.7-11.6-8.4-22.8-14-33.5C549.3,130.8,548.9,131.2,549,131.3L549,131.3z"/>
			</g>
		</g>
		<g>
			<g>
				<path class="st12" d="M565.3,220.1c2.2,0.1,4.4-3.6,5.3-5.2c0.8-1.4,3.7-6.7,1.9-8c-0.4-0.3-1.1,0.2-1.3,0.6
					c-0.8,2-0.4,4.2-1.3,6.2c-1.1,2.5-2.9,4-4.6,6C565.2,219.8,565.1,220.1,565.3,220.1L565.3,220.1z"/>
			</g>
		</g>
		<g>
			<g>
				<path class="st12" d="M585.9,172.7c1.7,4.5,4.7,8.3,4.2,13.4c0.3-0.4,0.6-0.8,0.9-1.2c-3,1.8-8.5,3-10.2,6.2
					c-0.1,0.1-0.1,0.3,0.1,0.4c1.7,0,3-1.3,4.5-2c2-1,4-2,5.9-3.1c0.3-0.2,0.7-0.7,0.6-1.1c-0.4-3.9-2.2-10.5-5.7-12.8
					C586,172.5,585.8,172.6,585.9,172.7L585.9,172.7z"/>
			</g>
		</g>
		<g>
			<g>
				<path class="st12" d="M531,180.4c-1.4,5.8-2.4,11.6-3.7,17.4c-1.2,5-3,10-3.4,15.1c0,0.4,0.5,0,0.6-0.1c4.4-9.5,6.6-22,6.8-32.5
					C531.3,180.1,531,180.3,531,180.4L531,180.4z"/>
			</g>
		</g>
		<g>
			<g>
				<path class="st12" d="M522.7,217.3c-0.7,1.3-0.8,2.6-1.2,3.9c-0.1,0.2,0.2,0.1,0.3,0c0.8-1.3,0.9-2.6,1.4-3.9
					C523.3,216.9,522.8,217.1,522.7,217.3L522.7,217.3z"/>
			</g>
		</g>
		<g>
			<g>
				<path class="st12" d="M543.3,201.8c-0.5,4.3,0.3,10.9,2.4,14.8c0.1,0.2,0.4-0.1,0.4-0.2c0.1-2.3-0.6-4.3-1.1-6.6
					c-0.6-2.7-1-5.4-1.4-8.2C543.7,201.4,543.3,201.7,543.3,201.8L543.3,201.8z"/>
			</g>
		</g>
		<g>
			<g>
				<path class="st12" d="M543.6,197.3c0.1-0.5,0.2-1,0.1-1.5c-0.1-0.4-0.3-0.8-0.4-1.3c0-0.1-0.3,0.1-0.3,0.1
					c-0.1,0.5-0.2,1-0.2,1.5c0,0.5,0.1,0.9,0.3,1.4C543.2,197.8,543.6,197.4,543.6,197.3L543.6,197.3z"/>
			</g>
		</g>
		<g>
			<g>
				<path class="st12" d="M556.9,202.6c0.7,7.7,2.1,17.9,6.9,24.1c0.2,0.2,0.5-0.2,0.4-0.4c-0.9-4.1-2.7-8-3.9-12
					c-1.1-4-2-8-3.2-11.9C557.1,202.3,556.9,202.5,556.9,202.6L556.9,202.6z"/>
			</g>
		</g>
		<g>
			<g>
				<path class="st12" d="M553,160.3c0.1,3.6,0.7,7.2,0.9,10.8c0.1,3.1,0.2,6.1,0.7,9.2c0,0.2,0.4-0.1,0.4-0.2
					c0.9-6.1,0.7-14.2-1.7-20C553.2,160,553,160.2,553,160.3L553,160.3z"/>
			</g>
		</g>
		<g>
			<g>
				<path class="st12" d="M560.1,184c0.1,3.6,0.7,7.1,1.3,10.6c0.5,2.9,0.7,6,1.8,8.8c0.1,0.3,0.5-0.1,0.5-0.3
					c0.1-6.1-1.6-13.4-3.2-19.3C560.3,183.6,560.1,183.9,560.1,184L560.1,184z"/>
			</g>
		</g>
		<g>
			<g>
				<path class="st12" d="M559.4,175.4c-0.2,1.5,0.1,2.9,0.7,4.3c0.1,0.1,0.3-0.1,0.2-0.1c-0.1-1.5-0.3-2.9-0.6-4.3
					C559.7,175,559.4,175.3,559.4,175.4L559.4,175.4z"/>
			</g>
		</g>
		<g>
			<g>
				<path class="st12" d="M575,181.6c0.7,3.7,1.6,7.4,2.4,11.1c0.7,3.5,0.7,7.5,2,10.8c0.1,0.2,0.3-0.1,0.3-0.2
					c0.8-6.9-2.3-15.5-4.3-22C575.3,181.1,574.9,181.4,575,181.6L575,181.6z"/>
			</g>
		</g>
		<g>
			<g>
				<path class="st12" d="M573.1,175.4c0,0.5,0.1,1.1,0.2,1.6c0.1,0.5,0.4,0.8,0.7,1.2c0.1,0.1,0.3-0.1,0.3-0.2
					c-0.1-1-0.1-2-0.8-2.9C573.4,174.9,573.1,175.3,573.1,175.4L573.1,175.4z"/>
			</g>
		</g>
		<g>
			<g>
				<path class="st12" d="M586,177.7c0.5,1.9,0.9,3.8,1.7,5.6c0.1,0.1,0.3-0.1,0.3-0.1c0.3-2.2-0.4-4-1.6-5.8
					C586.2,177.2,585.9,177.6,586,177.7L586,177.7z"/>
			</g>
		</g>
		<g>
			<g>
				<path class="st12" d="M573.4,150.4c2.6,3.4,5.7,6.5,8.7,9.5c2,2.1,4.9,4.7,7.5,5.9c0.1,0,0.3-0.1,0.2-0.2
					c-1.2-2.8-4.9-4.3-7-6.4c-3.1-3-5.8-6.4-9.2-9C573.5,150.1,573.3,150.3,573.4,150.4L573.4,150.4z"/>
			</g>
		</g>
	</g>
</g>
</svg>
